<?xml version="1.0" encoding="UTF-8"?>
<svg id="Layer_1" data-name="Layer 1" xmlns="http://www.w3.org/2000/svg" viewBox="0 0 500 500.03">
  <defs>
    <style>
      .cls-1 {
        fill: #b7c7b5;
        stroke-width: 0px;
      }
    </style>
  </defs>
  <path class="cls-1" d="M500,500.03H0V.22c1.09-.06,2.04-.15,3-.15C167.43.06,331.87.07,496.3,0c2.85,0,3.7.63,3.7,3.61-.05,163.35-.02,326.7,0,490.05,0,2.06,0,4.12,0,6.37ZM172.45,348.52c-.65.27-1.17.43-1.63.68-9.89,5.24-15.66,13.73-18.12,24.33-3.7,15.97-.19,30.14,12.26,41.35,5.63,5.07,12.62,7.51,20.12,8.18,1.81.16,4.17.92,4.91-2.3.8-3.49,1.89-6.98,3.42-10.21,3.05-6.45,6.51-12.71,9.74-19.07,2.62-5.16,6.28-7.35,11.99-6.58,2.57.35,5.17,1.12,7.56,2.15,5.12,2.21,10.12,4.72,15.33,7.18.41-2.23.81-4.43,1.33-7.28-11.91-3.65-16.64-13.32-19.85-24.23-.84-2.84-2.23-5.28-5.82-5.33-3.52-.05-5.19,2.17-6.12,5.02-4.61,14.1-12.47,26.62-19.16,39.71-1.6,3.13-3.29,6.23-5.3,9.1-.66.95-2.59,1.76-3.69,1.52-4.47-1-8.36-3.15-11.42-6.74-13.67-16.09-8.05-44.67,9.29-50.32-1.63-2.41-3.21-4.73-4.84-7.14ZM260.08,105.79c-1.66,7.09-1.81,7.42,4.3,10.37,5.57,2.69,8.94,6.83,10.89,12.49.79,2.28,1.81,4.48,2.79,6.69,1.4,3.16,2.18,6.96,6.83,6.93,4.63-.03,5.54-3.77,6.74-7,5.63-15.11,13.84-28.92,21.58-42.96.58-1.05,1.14-2.26,2.05-2.96,1-.76,2.72-1.74,3.56-1.36,3.55,1.6,7.6,2.98,10.19,5.67,15.46,16.03,9.35,44.36-7.55,51.22,1.35,2.26,2.67,4.5,3.97,6.68,4.46-1.09,8.15-3.52,11.46-7.52,5.79-6.99,8.89-15.1,9.83-24.05,2.27-21.66-12.54-40.22-34-42.61-1.45-.16-2.96.2-3.73.27-.93,3.75-1.2,7.13-2.58,9.96-3.51,7.2-7.53,14.16-11.33,21.22-3.03,5.63-7.43,7.85-13.68,6.29-3.59-.9-7.08-2.36-10.48-3.86-3.68-1.63-7.2-3.61-10.83-5.45ZM191.3,77.36c-12.04-.52-21.83,2.89-29.43,11.22-11.01,12.06-13.21,26.27-8.09,41.48,3.22,9.56,8.65,17.61,18.85,21.37,1.66-2.61,3.05-4.81,4.1-6.46-3.19-2.58-6.64-4.52-8.95-7.39-5.64-7.01-8.46-15.23-7.38-24.29,1.28-10.7,5.02-20.09,15.96-24.63,5.38-2.23,5.53-2.24,8.37,2.82,8.4,14.93,16.89,29.83,22.89,45.96,1.03,2.76,2.58,4.77,5.94,4.75,3.34-.02,4.85-2.02,5.96-4.76,1.65-4.07,3.04-8.31,5.21-12.09,1.63-2.84,4.06-5.36,6.58-7.5,2.38-2.01,5.35-3.34,7.99-4.92-.49-2.46-.93-4.64-1.43-7.09-1.63.85-2.95,1.63-4.34,2.25-5.11,2.28-10.1,4.94-15.39,6.65-7.23,2.33-11.7.11-15.19-6.59-3.05-5.84-5.86-11.82-9.13-17.53-2.24-3.92-4.21-7.71-2.53-13.25ZM408.45,387.81c1.55,0,3.73.14,5.88-.08.69-.07,1.8-1.07,1.82-1.68.12-3.46.58-7.08-.2-10.38-1.99-8.46-.61-11.95,7.12-16.08,1.68-.9,3.49-2.08,4.5-3.62,3.19-4.84,3.7-10.2,2.21-15.8-.59-2.22-1.68-3-4.03-2.44-5.77,1.38-11.64,1.5-17.21-.64-6.52-2.51-13.18-3.25-20.05-2.66-2.61.22-4.19-.74-5.64-2.92-8.08-12.2-15.91-24.51-20.42-38.6-.86-2.67-2.45-4.57-5.66-4.63-3.3-.06-5.06,1.72-6.16,4.49-1.34,3.37-2.76,6.71-3.88,10.15-1.86,5.71-5.27,9.91-10.58,12.84-4.8,2.65-4.97,3.77-2.99,9.63,1.09-.49,2.2-.88,3.2-1.45,4.2-2.38,8.29-4.97,12.57-7.2,7.71-4.01,14.02-2.17,18.5,5.17,3.72,6.09,7.5,12.15,11.08,18.32,1.49,2.58,3.29,3.58,6.36,3.53,12.54-.18,25.09-.08,37.83-.08.07,2.88-1.7,5.31-4.06,7.34-2.16,1.86-4.51,3.5-6.74,5.27-3.82,3.03-5.52,6.92-5.05,11.85.61,6.27,1.02,12.56,1.59,19.69ZM162.17,352.14c-3.31-2.64-4.85-2.57-7.37.51-1.39,1.7-2.67,3.49-3.89,5.31-5.31,7.88-15.39,7.48-20.17-.78-3.74-6.46-7.51-12.91-11.46-19.24-.85-1.36-2.45-3.12-3.78-3.18-7.85-.36-15.81-1.59-23.45,1.49-5.74,2.32-11.73,2.93-17.8,1.99-2.55-.39-3.61.61-4.37,2.76-2.81,7.91-.03,15.64,7.27,19.95,6.51,3.85,7.72,7.75,5.61,14.89-.96,3.26-.82,6.89-.9,10.36-.02.73,1.11,2.06,1.82,2.14,2.32.28,4.7.1,6.47.1.31-5.27-.08-10.21,1.03-14.79,2.01-8.27-.26-14.22-7.11-19.14-3.12-2.24-5.47-5.59-8-8.58-.65-.77-.68-2.05-1.21-3.79,9.21,3.24,17.84,2.18,26.47,1.36,2.51-.24,5.05-.12,7.57-.25,2.3-.12,3.93.77,5.21,2.72,6.97,10.66,14.11,21.22,18.65,33.25.96,2.56,1.98,5.17,3.44,7.45,2.33,3.65,7.46,3.46,9.48-.36,1.43-2.69,2.71-5.59,3.36-8.55,2.1-9.54,5.69-18.21,12.96-25.03.13-.12.11-.41.15-.62ZM427.22,242.86c1.67.75,3.22,1.15,4.38,2.04,2.64,2.02,4.84,1.62,7.71.1,8.59-4.55,20.15-1.67,26.09,6.09,9.79,12.79,9.04,37.55-1.54,49.75-2.83,3.27-6.45,5.27-10.74,5.93-8.96,1.37-16.39-1.85-22.8-7.87-2.96-2.78-5.64-5.87-8.71-8.52-3.58-3.08-8.48-2.13-10.72,1.77-1.99,3.47-.83,5.71,2.88,6.73,2.67.73,5.33,1.96,7.61,3.53,3.24,2.23,6.03,5.12,9.19,7.48,14.57,10.87,34.29,6.89,43.69-8.67,6.51-10.77,7.81-22.52,6.31-34.66-1.64-13.18-7.51-23.8-19.94-29.85-11.06-5.38-26.06-2.72-33.41,6.15ZM75.65,157.05c-.33-.34-.65-.69-.98-1.03,1.88-2.45,3.56-5.1,5.69-7.3,2.13-2.19,4.74-3.9,7.08-5.9,2.92-2.49,4.62-5.69,4.39-9.54-.43-7.14-1.14-14.27-1.77-21.91-1.03,0-2.68.16-4.27-.04-2.56-.32-3.83.85-3.78,3.22.07,3.24-.1,6.63.78,9.68,2.16,7.42,1.07,10.99-5.51,14.93-7.73,4.63-10.51,11.85-8.05,20.44.68,2.36,1.76,2.9,4.24,2.69,4.66-.39,9.39-.39,14.06-.11,3.53.21,6.03,2.35,7.5,5.65,1.52,3.41,3.14,6.77,4.76,10.14,1.29,2.69,2.91,4.96,6.39,4.76,3.31-.19,4.62-2.51,5.68-5.19,1.49-3.78,3.13-7.5,4.54-11.31,1.75-4.73,4.65-8.58,9.02-10.98,6.33-3.48,12.91-6.51,19.34-9.81,2.23-1.14,4.33-2.52,6.49-3.78-.13-.41-.26-.82-.39-1.24-1.21-.21-2.41-.59-3.62-.6-10.76-.12-19.92,4.18-28.01,10.78-6.55,5.34-13.64,6.73-21.86,5.53-5.36-.78-10.91-.37-16.37-.27-1.79.03-3.57.76-5.36,1.18ZM103.13,249.85c-.04-.33-.08-.65-.12-.98-.68-.29-1.33-.72-2.04-.84-6.79-1.17-13.55-2.69-20.4-3.33-10.3-.96-16.65-5.85-19.26-15.87-2.73-10.46-.28-20.02,5.25-28.97,1.73-2.8,4.5-4.09,7.71-4.48,4.33-.54,7.9.88,11.13,3.8,3.02,2.73,6.32,5.14,9.86,7.98.19-3.36.38-5.73.41-8.1,0-.66-.3-1.58-.78-1.96-5.28-4.07-8.07-9.73-10.38-15.75-.31-.81-1.09-1.85-1.82-2.01-4.66-1.02-9.37-1.83-13.57-2.61-4.06,7.86-8.36,15.64-12.11,23.67-2.21,4.71-4.42,9.71-5.14,14.78-2.87,20.33,9.54,41.39,35.09,38.2,5.45-.68,10.78-2.32,16.16-3.51ZM170.38,425.16c3.68,2.1,7.26,3.91,10.6,6.09,4.41,2.88,8.4,6.51,13.03,8.94,4.38,2.3,9.26,4.48,14.08,4.93,13.2,1.22,24.15-6.65,28.74-19.57.62-1.76,1.22-3.53,1.82-5.3.38.09.76.18,1.14.26-.26,1.62-.32,3.31-.81,4.86-2.81,8.92-8.26,15.62-16.74,19.79-1.06.52-2.3,1.48-2.64,2.51-.91,2.69-1.54,5.51-1.96,8.32-.52,3.56,2.76,7.59,6.54,8.15.22-2.73.48-5.45.66-8.17.3-4.54,2.61-7.81,6.32-10.25,4.15-2.74,7.32-5.93,8.98-10.41,1.97-5.33,3.69-10.82,4.88-16.37.96-4.45-.16-8.66-3.72-12.05-1.49-1.42-2.83-3.28-3.51-5.2-2.09-5.89-8.64-11.07-15.45-11.57,1.01,1.72,1.95,3.29,2.87,4.88,3.95,6.85,5.86,14.19,5.03,22.12-1.38,13.24-11.88,21.42-24.66,18.78-3.53-.73-6.76-2.95-10.13-4.49-5.05-2.32-10-4.94-15.2-6.85-3.09-1.13-6.59-1.09-9.87.6ZM62.18,186.01c.55-1.26,1.05-2.33,1.48-3.43q1.81-4.53-2.83-6.2c-12.66-4.54-27.7.71-35.02,13.3-11.16,19.18-10.5,38.85.26,57.97,4.91,8.72,13.2,13.36,23.12,14.63,8.68,1.11,16.32-1.65,23.67-7.02-2.84-1.38-5.12-2.65-7.52-3.58-1.15-.45-2.75-.72-3.81-.28-12.13,5.03-24.15.93-29.67-10.93-6.38-13.69-6.84-27.92-1.14-41.93,5.55-13.66,17.28-18.23,31.46-12.55ZM171.24,75.78c3.41,1.26,7.48,1.22,11.2-.46,5.17-2.32,10.34-4.84,15.07-7.95,13.77-9.05,31.04-1.06,32.8,15.32.87,8.09-1.01,15.48-4.97,22.45-.93,1.63-1.87,3.24-2.81,4.87.22.19.43.38.65.57,2.45-1.18,4.82-2.58,7.36-3.5,4.55-1.64,6.69-4.97,7.59-9.48.22-1.12.68-2.55,1.53-3.14,6.71-4.72,6.82-10.98,4.49-17.92-1.75-5.21-3.75-10.35-5.05-15.67-.57-2.36-1.44-3.49-3.58-4.35-7.28-2.93-11.27-8.11-10.65-16.3.12-1.56-.15-3.16-.24-4.86-5.38,2.11-7.27,5.32-6.3,10.26.34,1.72.96,3.41,1.12,5.15.24,2.49,1.52,3.77,3.73,4.84,8.75,4.24,14.06,11.37,16.47,20.69.28,1.09.04,2.32.04,3.49-.29.04-.58.08-.87.12-.52-1.6-1.03-3.21-1.57-4.8-6.4-18.73-26.41-25.84-43-15.1-7.85,5.08-15.44,10.57-23.02,15.78ZM275.46,390.38c-.18-.18-.36-.37-.54-.55-2.16,1.02-4.25,2.2-6.48,3.02-4.4,1.62-6.87,4.63-7.94,9.21-.4,1.73-1.81,3.4-3.16,4.68-2.55,2.43-4.05,5.3-3.97,8.72.07,2.82.45,5.71,1.21,8.42,1.41,5.07,3.44,9.97,4.73,15.06.56,2.23,1.17,3.57,3.46,4.41,7.53,2.75,11.61,7.97,11.04,16.32-.1,1.54.25,3.1.4,4.83,5.85-2.55,7.26-5.28,5.95-10.74-.33-1.39-.87-2.78-.9-4.18-.07-2.56-1.4-3.83-3.6-4.88-8.89-4.26-14.24-11.45-16.66-20.9-.29-1.14-.19-2.37-.27-3.56.34-.06.68-.12,1.01-.18.67,1.98,1.32,3.96,2.01,5.92,6,17.06,24.99,24.55,40.19,15.48,8.67-5.17,16.87-11.14,25.73-17.05-3.25,0-6.49-.4-9.59.08-6.07.94-11.33,3.89-16.33,7.44-14.12,10.03-30.83,2.92-33.49-14.19-1.17-7.53.4-14.63,3.89-21.34,1.06-2.03,2.2-4.03,3.31-6.04ZM327.91,76.31c.05-.51.09-1.02.14-1.52-7.14-1.47-12.24-6.26-17.73-10.42-1.66-1.26-3.33-2.52-5.06-3.69-17.18-11.65-38.31-4.04-44.16,15.87-.31,1.06-.77,2.08-1.16,3.12-.3-.06-.59-.12-.89-.18,0-1.08-.23-2.21.04-3.22,2.55-9.71,8.32-16.77,17.44-21.11,1.15-.55,2.49-1.61,2.86-2.73.86-2.59,1.29-5.33,1.69-8.05.5-3.43-3.01-7.58-6.7-7.89-.19,2.61-.4,5.22-.57,7.84-.29,4.41-2.38,7.65-6.15,9.92-2.7,1.63-8.18,7.65-9.23,10.6-1.83,5.16-3.65,10.35-4.89,15.67-1.06,4.56-.22,8.89,3.65,12.31,1.44,1.27,2.34,3.23,3.23,5,1.16,2.32,1.41,5.63,3.21,6.98,3.48,2.62,7.77,4.17,11.72,6.16-.67-2.62-1.84-4.57-2.89-6.59-4.17-7.97-5.89-16.32-3.39-25.16,3.1-10.96,11.98-16.98,22.95-14.95,3.84.71,7.37,3.11,11.01,4.8,5.14,2.38,10.1,5.25,15.43,7.07,2.84.97,6.29.17,9.46.17ZM423.04,157.28c-2.89-.62-5.44-1.62-7.99-1.61-6.23.03-12.49.24-18.68.91-7.84.85-14.46-1.1-20.14-6.68-2.49-2.45-5.22-4.87-8.28-6.45-3.12-1.61-6.76-2.91-10.21-3.01-6.96-.21-10.27,5.97-7.07,12.19,1.12,2.17,2.59,3.1,5.04,2.43,4.85-1.33,9.38-.23,13.62,2.16,3.06,1.72,5.97,3.69,8.98,5.51,1.12.68,2.26,1.64,3.48,1.79,7.71.96,15.48,2.46,23.09-.59,6.49-2.6,13.1-3.47,20.01-1.94.88.19,2.45-.4,2.93-1.13,4.27-6.56,1.38-17.43-5.47-21.18-7.25-3.96-8.73-8.13-6.58-16.1.82-3.03.43-6.42.34-9.64-.02-.65-1.1-1.74-1.78-1.81-2.21-.23-4.46-.09-5.85-.09-.59,6.77-.99,12.73-1.68,18.65-.64,5.54,1.05,9.91,5.6,13.19,2.13,1.54,4.25,3.13,6.23,4.86,2.43,2.13,4.42,4.58,4.42,8.54ZM84.32,278.92c1.75,3.01,4.29,4.66,7.33,4.78,6.89.27,13.79.14,20.69.14,3.05,0,5.08-1.61,6.61-4.17,3.99-6.7,8.07-13.34,12.13-20,4.6-7.52,14.95-7.54,19.66-.07,2.05,3.25,4.13,6.48,6.3,9.65,2.67,3.91,7.3,5.2,12.19,3.44-.44-.65-.83-1.29-1.28-1.9-8.38-11.36-15.92-23.18-20.21-36.79-.33-1.04-.83-2.04-1.37-2.99-2.29-4.08-7.81-4.13-10.2-.07-.89,1.51-1.66,3.12-2.23,4.77-4.24,12.41-11.62,23.1-18.28,34.21-2.68,4.46-5.88,6.45-11.18,5.97-6.78-.61-13.6-.37-20.17,3.04ZM412.54,219.94c-2.53-3.21-5.76-4.85-9.69-4.96-3.84-.11-7.7-.21-11.53.03-4.1.26-6.85-1.32-8.95-4.8-6.87-11.37-14.38-22.4-18.54-35.2-.44-1.35-1.11-2.63-1.74-3.92-1.15-2.38-2.58-4.32-5.66-4.24-3.06.08-5.01,1.69-5.98,4.36-3.94,10.9-9.04,21.2-15.5,30.84-.49.74-.65,2.26-.21,2.95,1.19,1.92,2.77,3.59,4.44,5.66,2.13-3.57,4.16-6.69,5.9-9.96,2.38-4.47,5.49-7.55,10.97-7.61,5.63-.06,8.78,3.07,11.29,7.64,3.54,6.45,7.39,12.74,11,19.15,1.24,2.2,2.85,3.39,5.45,3.56,9.68.62,19.3.89,28.74-3.5ZM158.85,210.28c1.07-1.3,1.71-2.05,2.31-2.83,3.25-4.16,2.99-4.03.54-8.55-4.02-7.41-7.69-15-11.44-22.55-.97-1.96-1.64-4.07-2.52-6.08-1.03-2.35-2.53-4.03-5.41-4.06-2.94-.04-4.75,1.35-5.82,3.95-.17.41-.38.79-.54,1.2-4.73,12.86-11.52,24.6-18.78,36.17-2.94,4.69-6.18,6.81-11.66,6.37-3.9-.31-7.91,0-11.81.51-2.93.38-5.74,1.54-6.74,4.89,7.17,3.37,14.04,4.12,26.88,3.22,2.8-.2,4.63-1.23,6.04-3.72,3.97-6.96,8.28-13.73,12.22-20.71,4.48-7.93,16.61-7.06,19.81.13,1.81,4.06,4.41,7.76,6.92,12.07ZM320.87,355.93c9.63,3.38,13.46,11.15,15.71,19.72,1.09,4.14,1.09,8.72.76,13.04-.53,6.99-3.76,13.07-8.2,18.38-5.12,6.12-13.56,7.79-21.7,5.13-3.44-1.12-7.2-1.93-10.78-1.83-3.7.11-6.47,3.39-7.04,6.86-.53,3.25.62,5.85,3.38,7.64,3.2,2.08,6.6,2.05,9.56-.18,2.24-1.69,4.49-1.96,7.07-1.78,6.42.45,12.45-.96,18.02-4.17,23.5-13.51,25.78-49.79,4.16-66.33-1.87-1.43-3.99-2.54-6.13-3.88-1.7,2.61-3.12,4.79-4.82,7.4ZM234.74,264.35c-2.22-3.61-4.7-7-6.51-10.71-3.02-6.21-5.63-12.62-8.38-18.96-1.17-2.69-2.73-4.71-6.04-4.71-3.31,0-5.07,1.98-6.01,4.73-4.5,13.13-12.03,24.57-19.52,36.1-2.63,4.04-5.6,5.81-10.21,5.49-4.27-.3-8.56-.38-12.82-.71-2.11-.16-3.65-.02-3.72,2.66-.03,1.03-.58,2.06-.94,3.22,9.06,3.55,18.33,3.7,27.67,2.78,1.12-.11,2.42-1.45,3.1-2.55,4.13-6.61,8.11-13.31,12.12-19.99,4.77-7.94,15.56-7.85,20.2.16,1.69,2.92,3.43,5.81,5.24,8.88,2.11-2.33,3.94-4.34,5.8-6.39ZM336.08,277.09c-6.32,0-12.34-.16-18.34.06-3.39.13-5.51-1.19-7.28-3.96-7.75-12.11-15.97-23.96-20.49-37.82-.27-.83-.7-1.61-1.12-2.38-1.17-2.16-3.01-3.03-5.45-2.94-3.18.11-4.5,2.26-5.64,4.77-3.44,7.58-6.59,15.32-10.5,22.66-3.48,6.52-3.86,6.32,1.33,11.78.07.07.19.1.71.35,1.57-2.66,3.09-5.41,4.78-8.05,4.79-7.45,15.07-7.28,19.62.25,4.14,6.86,8.24,13.76,12.57,20.49.89,1.39,2.76,3.03,4.18,3.04,6.99.05,14-.27,20.98-.78,2.78-.2,6-.75,4.45-5.15-.26-.74.14-1.72.2-2.31ZM367.29,180.44c.42.09.85.18,1.27.26.34-.26.7-.5,1.03-.77,6.19-5.19,9.5-4.87,14.56,1.39.28.34.54.7.82,1.04,4.18,5.08,7.98,5.31,12.81.78.8-.75,1.54-1.56,2.34-2.32,4.46-4.26,8.24-4.13,12.42.44.74.81,1.45,1.65,2.1,2.53,3.14,4.23,6.9,7.59,12.04,9.29,4.31,1.43,6.8,4.73,7.93,9.01,1.84,6.96.62,13.46-3.07,19.61-1.8,3-3.57,6.07-4.88,9.29-.73,1.79-.5,3.98-.7,5.99.31.04.61.08.92.12,4.22-6.4,8.71-12.63,12.53-19.26,1.86-3.24,2.95-7.13,3.52-10.85,1.28-8.41-2.41-16.14-9.57-19.64-6.92-3.38-12.8-7.83-18.21-13.29-6.04-6.1-13.42-7.48-21.52-3.96-.92.4-2.37.39-3.26-.06-9.27-4.71-16.56-2.93-22.35,5.86-.77,1.16-.5,3.01-.71,4.54ZM413.18,437.1c.4-.04.8-.09,1.21-.13.74-2.25,1.37-4.54,2.24-6.73,2.87-7.26,2.39-14-2.04-20.66-6.35-9.53-11.64-19.65-14.91-30.71-.15-.52-.28-1.19-.66-1.49-1.73-1.34-3.51-3.49-5.34-3.57-1.83-.07-4.34,1.56-5.49,3.2-1.73,2.46-2.72,5.5-3.68,8.41-2.48,7.53-6.77,13.71-12.97,18.65-2.66,2.12-5.21,4.42-7.46,6.95-.89,1.01-.81,2.87-1.18,4.34,1.59.26,3.44,1.15,4.72.63,2.49-1.01,4.79-2.65,6.94-4.32,3.29-2.56,6.27-5.53,9.6-8.02,5.94-4.45,13.86-3.36,18.59,2.32,5.36,6.43,8.86,13.48,8.59,22.2-.09,2.95,1.19,5.95,1.85,8.93ZM86.96,63.73l-1.05.16c-4.53,8.77-7.93,17.37-1.16,26.98,6.08,8.63,10.95,18,13.88,28.27.38,1.35,1.11,2.64,1.89,3.82,2.43,3.67,7.59,3.62,9.85-.16,1.06-1.78,1.84-3.74,2.58-5.69,3.32-8.75,8.08-16.54,14.95-22.99,2.48-2.33,4.86-4.79,6.99-7.43.7-.87,1.07-3.14.53-3.63-.87-.79-2.95-1.29-3.89-.77-2.85,1.59-5.48,3.61-8.03,5.67-3.24,2.62-6.19,5.61-9.49,8.16-5.06,3.91-13.27,3.04-17.33-1.85-5.3-6.38-9.36-13.19-8.26-22.13.33-2.7-.94-5.6-1.47-8.4ZM411.9,63.5c-.49,4.05-1.32,7.34-1.18,10.59.31,7.08-1.91,13.07-6.19,18.6-5.81,7.5-12.54,9.34-21.36,5.46-7.23-3.19-14.47-6.36-21.71-9.52-.65-.28-1.38-.38-2.35-.65-.06,3.48,1.72,5.81,3.96,7.44,4.07,2.95,8.56,5.3,12.65,8.22,2.14,1.52,4.31,3.43,5.58,5.67,2.31,4.09,3.92,8.58,5.89,12.86,1.22,2.66,2.68,5.13,6.17,5.12,3.59-.02,5.4-2.36,6.3-5.34,3.54-11.81,9.73-22.27,15.94-32.77,4.26-7.19,2.75-18.23-3.7-25.68ZM84.34,436.8c.53.05,1.07.11,1.6.16.56-2.89,1.71-5.81,1.58-8.67-.37-8.07,2.46-14.77,7.38-20.93,4.48-5.6,10.18-7.75,17.17-5.85,2.21.6,4.31,1.62,6.43,2.52,6.47,2.75,12.91,5.55,19.38,8.29.74.31,1.56.42,2.76.74-.67-4.13-3.1-6.51-5.89-8.39-3.64-2.45-7.45-4.67-11.31-6.75-3.05-1.65-5.12-4-6.54-7.12-2.17-4.8-4.31-9.64-6.79-14.28-2.11-3.94-7.32-4.02-9.75-.27-1,1.54-1.5,3.4-2.22,5.11-2.51,5.96-4.77,12.04-7.61,17.83-2.17,4.42-5.08,8.48-7.65,12.7-2.52,4.15-3.26,8.69-2.18,13.34.92,3.92,2.4,7.72,3.63,11.57ZM401.04,449.86c-6.75,1.95-9.09,8.03-6.16,14,2.34,4.78,1.63,6.38-3.71,7.66-6.23,1.49-12.42.9-18.61-.46-2.6-.57-5.31-2.6-7.94.16-.26.27-1.28-.03-1.87-.26-1.84-.71-3.74-1.34-5.43-2.32-11.45-6.62-14.37-21.75-6.65-34.13.59-.94,1.2-1.87,2.3-3.6-4.67,1.39-8.36,2.4-11.97,3.64-.76.26-1.5,1.25-1.8,2.06-7.06,19.55,4.79,40.34,25.37,43.58,7.62,1.2,15.54.9,23.3.72,3.65-.09,7.27-1.51,10.89-2.34,1.78-.41,2.4-1.54,2.35-3.37-.12-4.39-.07-8.79-.08-13.19,0-3.91,0-7.83,0-12.15ZM97.94,450.73c0,7.65.17,15.31-.08,22.97-.11,3.31,1.22,4.72,4.19,5.53,12.99,3.54,26.02,3.08,38.6-1.03,15.21-4.98,23.5-21.22,19.83-36.82-1.58-6.72-6.75-10.26-13.91-9.47,1.18,2.25,2.48,4.41,3.49,6.71,5.93,13.47-.34,27.93-13.97,32.22-.85.27-2.32.5-2.67.06-1.51-1.85-3.06-1.1-4.77-.6-2.32.67-4.66,1.35-7.04,1.69-5.61.79-11.19.65-16.54-1.51-2.4-.97-3.65-2.32-1.85-5.03,1.02-1.52,1.87-3.29,2.28-5.06,1.14-5.03-2.28-9.66-7.55-9.66ZM351.87,69.34c-1.64-3.84-3.33-7.06-4.41-10.48-3.86-12.3,2.09-24.29,14.11-28.79.88-.33,2.46-.76,2.74-.4,2.03,2.63,4.19,1.02,6.24.35,5.93-1.95,11.94-2.79,18.16-1.72,7.68,1.32,8.65,3,5.41,10.02-2.47,5.35,1.53,12.32,6.9,11.39,0-5.9,0-11.9,0-17.91.01-10.56.05-10.9-10.51-12.02-6.26-.66-12.66.09-19,.01-24.07-.31-39.91,21.45-31.99,44.11.31.89,1.15,1.96,1.98,2.26,3.28,1.17,6.66,2.07,10.36,3.17ZM458.63,420.42c.54.65,1.3,1.42,1.89,2.3,2.92,4.36,6.41,8.47,8.57,13.19,8.33,18.15-3.63,37.32-22.59,36.11-4.63-.3-9.12-2.73-13.69-4.16-.98-.3-2.29-1-2.94-.62-2.3,1.34-4.37,3.06-7.2,5.13,3.52,2.06,6.24,3.89,9.15,5.32,20.29,9.97,44-1.2,48.17-22.65,3.16-16.29-5.04-28.7-13.45-40.78-2.76,2.16-5.22,4.07-7.91,6.17ZM145.57,69.63c4.24-1.24,7.55-2.04,10.7-3.23,1.13-.42,2.34-1.62,2.78-2.74,6.83-17.69-1.51-35.91-19.74-41.74-9.73-3.11-20.04-3.28-30.23-2.3-2.48.24-4.88,1.23-7.33,1.82-2.63.63-3.64,2.13-3.57,4.93.17,6.81.02,13.62.02,20.43,0,.95.16,1.89.25,2.82,6.64-.33,9.45-7.27,5.72-13.4-2.43-3.99-1.81-5.65,2.74-7.1,5.82-1.85,11.69-1.32,17.6-.37,3.36.54,6.66,3.31,10.25.59.22-.17.83.15,1.25.26,8.88,2.29,15.86,10.97,16.34,20.19.37,7.13-2.15,13.32-6.78,19.84ZM76.05,472.29c-1.17-.88-2.18-1.51-3.05-2.29-2.8-2.54-5.25-2.69-8.92-.8-9.54,4.91-19.3,4.6-27.81-2.37-8.6-7.06-10.17-16.57-7.23-26.93,1.84-6.47,5.6-11.88,10.1-16.79.85-.93,1.67-1.88,2.3-2.58-2.83-2.08-5.34-3.91-8.07-5.92-5.8,8.17-12.03,16.35-13.98,26.69-1.59,8.45-.51,16.7,3.91,24.22,10.44,17.76,36.07,21.24,52.74,6.79ZM75.73,28c-.44-.49-.73-.98-1.16-1.28-11.48-8.29-23.87-10.7-36.93-4.54-12.83,6.05-18.65,16.83-18.64,30.84,0,12.92,7.33,22.7,14.26,32.62.07.11.4.04-.08,0,2.79-2.16,5.17-3.99,7.81-6.03-.5-.6-1.34-1.44-1.99-2.4-2.77-4.08-5.96-7.96-8.12-12.34-5.26-10.65-3.55-22.21,3.86-29.71,7.48-7.57,18.71-9.74,28.88-4.45,4.63,2.41,7.61,1.76,10.83-1.55.37-.38.79-.72,1.28-1.16ZM423.51,28.03c5.13,5.22,6.02,5.4,12.02,2.56,17.59-8.33,36.46,3.37,35.9,22.31-.26,8.8-4.56,15.9-10.02,22.42-1.23,1.47-2.48,2.92-3.52,4.15,2.77,1.96,5.22,3.7,7.93,5.63,6.08-8.3,12.52-16.64,14.17-27.53,2.28-15.01-4.35-28.45-17.32-35.01-12.49-6.32-29.64-3.98-39.16,5.48ZM272.44,371.79c1.13-2.81,2.2-4.85,2.73-7.02.31-1.3.28-3.19-.46-4.15-8.43-10.96-15.31-22.74-19.82-35.86-.86-2.52-2.72-3.99-5.44-4.04-2.82-.05-4.81,1.26-5.78,3.99-4.66,13.18-11.92,24.9-20.23,36.04-.64.86-1.19,2.28-.95,3.23.6,2.39,1.68,4.66,2.71,7.35.76-.84,1.23-1.27,1.59-1.77,4.35-6.06,8.62-12.2,13.06-18.19,4.64-6.27,14.04-6.16,18.67.14,1.04,1.41,1.95,2.92,2.95,4.37,3.51,5.12,7.04,10.23,10.97,15.93ZM226.03,128.87c-4.29,7.04-4.27,7.53-.1,13.41.76,1.07,1.45,2.2,2.23,3.27,6.78,9.3,11.57,19.63,15.95,30.21,1.51,3.65,5.41,4.94,8.37,2.81,1.32-.95,2.38-2.64,2.93-4.21,4.52-12.89,11.54-24.37,19.57-35.31.6-.82.91-2.28.64-3.23-.67-2.29-1.76-4.46-2.86-7.1-.9,1.17-1.58,1.99-2.18,2.86-3.77,5.4-7.47,10.85-11.29,16.23-5.39,7.59-14.66,7.53-20.03-.11-2.4-3.41-4.69-6.9-7.09-10.32-1.93-2.76-3.95-5.47-6.14-8.5ZM304.46,286.37c-.26.25-.53.51-.79.76,1.84,2.69,3.74,5.34,5.52,8.08,2.9,4.47,5.62,9.12,4.83,14.69-1.67,11.84-3.58,23.65-5.43,35.46-.28,1.77-.76,3.5-1.3,5.92,8.58-5.89,11.2-14.37,13.35-23.85,3.21,6.49,2.99,13.38,7.42,18.75.36-.77.55-1.05.63-1.36.19-.74.33-1.5.49-2.25,1.89-8.97,1.77-18.02-.38-26.81-2.33-9.56.39-17.5,5.84-25.01,1.33-1.83,2.74-3.6,4.12-5.4-8.46,1.64-13.21,7.92-18.18,14.27-4.39-5.98-9.43-10.69-16.13-13.25ZM190.75,350.7c-.48-2.11-1.08-4.2-1.41-6.33-1.57-9.98-2.74-20.04-4.72-29.93-1.4-6.97-.24-13.04,3.68-18.77,1.43-2.08,2.89-4.14,4.28-6.25.62-.94,1.11-1.98,1.66-2.97-7.51,2.07-12.65,6.92-16.91,13.21-4.87-6.93-10-12.76-18.14-14.87.55,1.26,1.31,2.29,2.12,3.28,7,8.57,11.25,17.84,7.62,29.2-.26.83-.3,1.73-.45,2.6-1.46,8.75-1.06,17.4,1.49,26.68,4.41-5.85,4.47-12.69,7.15-18.63,2.45,8.85,5.4,17.22,13.61,22.78ZM307.07,148.49c.63,2.92,1.19,4.9,1.48,6.92,1.39,9.67,2.07,19.5,4.24,28.99,1.84,8.06.02,14.69-4.29,21.17-1.55,2.34-3.07,4.7-4.6,7.06,7.69-1.5,12.18-7.02,16.68-12.47,11.23,12.3,13.67,14.19,18.01,13.85-.76-.94-1.44-1.78-2.11-2.62-6.67-8.35-10.45-17.28-7.67-28.39,1.31-5.25,1.36-10.9,1.35-16.36,0-4.25-1-8.5-1.55-12.74-.35,0-.7,0-1.05-.01-4.1,5.4-4,12.42-6.8,18.58-2.29-9.03-4.67-17.86-13.71-23.98ZM190.78,148.11c-8.08,6.47-11.52,14.87-13.51,24.2-3.04-6.05-2.42-13.3-7.28-19.12-2.84,10.72-2.96,20.63-.78,30.55,1.44,6.54,1.51,12.89-2.16,18.8-1.97,3.17-4.08,6.24-6.13,9.36-.48.74-.97,1.47-1.86,2.83,8.41-2.85,13.56-8.41,18.09-14.72,8.61,9.58,11.97,12.22,17.22,13.27-.73-1.31-1.23-2.34-1.84-3.29-1.73-2.67-3.62-5.25-5.25-7.99-3.08-5.19-4.02-10.59-2.79-16.74,2.4-12.04,4.14-24.21,6.29-37.17ZM385.42,273.21c-.9-1.54-1.45-2.58-2.09-3.56-7.55-11.62-14.89-23.36-19.27-36.65-.27-.83-.52-1.88-1.14-2.34-1.55-1.17-3.21-2.64-5.02-2.96-3.43-.61-5.2,1.83-6.09,4.79-3.79,12.48-10.56,23.37-17.88,33.98-1.66,2.41-3.31,4.82-5.37,7.83,2.49-.16,4.33-.53,6.11-.34,2.95.33,4.63-.98,6.08-3.37,2.22-3.66,4.77-7.12,7.1-10.71,5.32-8.2,14.9-8.16,20.13.13,2.46,3.9,4.83,7.87,7.36,11.72.54.82,1.57,1.77,2.42,1.82,2.36.13,4.74-.18,7.66-.34ZM259.61,395.01c1.12-.61,2.13-1.22,3.18-1.73,5.13-2.48,10.12-5.35,15.44-7.31,8.37-3.08,13.54-.68,17.5,7.23,2.06,4.12,4.09,8.27,6.35,12.28,2.07,3.68,8.41,6.11,11.64,5.22-6.46-13-13.05-26.11-19.48-39.29-1.68-3.44-2.54-7.31-4.44-10.6-.91-1.58-3.27-2.75-5.18-3.21-2.35-.57-4.16,1.02-5.12,3.26-1.07,2.52-2.28,5.02-3.03,7.64-2.2,7.71-6.51,13.55-14.03,16.79-.99.43-1.96,1.07-2.72,1.83-.53.53-.99,1.45-.95,2.16.1,1.81.5,3.61.84,5.74ZM286.26,278.62c-3.28-1.17-4,.26-4.62,2.72-1.95,7.75-4.34,15.38-6.29,23.13-1.93,7.64-6.54,12.74-13.35,16.55-5.88,3.29-5.15,2.31-2.45,8.48.07.17.34.25.72.51,5.09-2.76,10.25-5.62,15.47-8.37,5.03-2.66,10.25-3.25,15.51-.76,2.57,1.22,4.98,2.78,7.46,4.18,3.12,1.76,6.25,3.52,9.45,5.32,2.17-6.78,2.18-7.11-3.32-10.4-4.53-2.71-7.64-6.32-9.53-11.29-3.74-9.82-8.55-19.29-9.04-30.07ZM241.77,323.52c-3.22-2-6.21-4.03-9.36-5.75-4.13-2.26-7.03-5.35-8.55-9.91-3.05-9.15-6.33-18.22-9.5-27.33-.52-1.5-.66-3.41-3.28-2.56-.13,1.4-.29,2.8-.39,4.2-.61,8.76-5.1,16.27-7.75,24.38-1.81,5.53-5.14,9.51-10.01,12.53-5.05,3.12-5.26,4.27-2.84,10.51,4.25-2.57,8.52-4.98,12.61-7.67,6.27-4.13,12.69-4.56,19.33-1.18,4.69,2.39,9.29,4.96,13.93,7.45,1.01.54,2.03,1.06,3.2,1.67.96-2.3,1.75-4.2,2.64-6.34ZM190.2,168.39c-2.22,6.85-1.96,7.13,3.5,10.6,2.8,1.78,6.26,3.76,7.51,6.52,4.69,10.36,9.61,20.75,10.56,32.37.07.91.62,1.78.95,2.67.33-.01.66-.03.99-.04.67-2.03,1.34-4.07,2.01-6.1,3-9.04,5.8-18.16,9.13-27.08.87-2.34,3.08-4.45,5.16-6.02,2.78-2.1,6.08-3.49,9.04-5.37.71-.45,1.51-1.74,1.34-2.42-.42-1.73-1.36-3.34-2.17-5.17-5.18,2.53-10,4.87-14.81,7.23-7.05,3.46-13.94,3.16-20.79-.64-4.02-2.23-8.13-4.3-12.42-6.56ZM114.2,287.5c8.6,12.97,16.58,26.58,22.26,41.41.87,2.28,2.81,3.22,5.28,3.16,2.65-.06,4.33-1.41,5.27-3.76,4.37-10.81,9.09-21.43,15.73-31.09.45-.66.64-2.02.26-2.64-1.26-2.09-2.83-3.99-4.56-6.34-2.59,4.45-4.83,8.33-7.11,12.2-4.7,7.96-14.75,8-19.58.05-3.08-5.07-6.06-10.19-9.11-15.28-.59-.99-1.28-1.92-1.7-2.54-2.29,1.64-4.26,3.05-6.75,4.84ZM473.23,243.28c.49-.62.83-.93,1.01-1.3,8.72-18.16,8.8-36.21-2.06-53.41-9.1-14.43-27.17-18.02-41.77-9.11-.87.53-1.61,1.26-2.71,2.14,4.66,2.46,8.12,4.92,13.76,2.9,9.39-3.36,19.03.92,24,9.63,7.46,13.07,7.87,26.69,2.38,40.62-.42,1.08-.54,2.87.07,3.64,1.4,1.78,3.33,3.13,5.31,4.88ZM285.17,466.36c-.55.26-.95.41-1.32.63-11.8,6.96-21.79,6.11-32.28-2.93-1.72-1.48-2.75-1.39-4.36.16-6.35,6.14-13.98,8.69-22.65,6.76-3.99-.89-7.76-2.81-11.86-4.34-1.74,1.94-3.67,4.1-5.85,6.54,9.94,6.73,20.25,9.45,31.78,6.55,5.51-1.39,16.12-1.35,21.53-.06.53.13,1.07.26,1.6.37,10.82,2.13,20.58-.31,29.87-6.62-2.31-2.52-4.37-4.76-6.46-7.05ZM249.7,37.84c11.18-11.16,23.39-12.29,36.47-4.05,2.17-2.34,4.15-4.47,6.14-6.61-.4-.45-.58-.72-.82-.93-.33-.29-.68-.56-1.05-.78-12.07-7.16-24.55-8.45-37.38-2.3-2.44,1.17-4.29,1.18-6.72.04-3.04-1.43-6.33-2.54-9.63-3.2-10.61-2.14-20.09.68-29.03,7.02,2.2,2.43,4.16,4.59,6.17,6.82,12.93-8.44,24.72-6.9,35.85,3.99ZM176.66,430.75c-1.82-.67-3.61-1.42-5.46-2-3.14-.98-6.3-1.91-9.48-2.74-6.65-1.74-11.17-5.71-13.6-12.21-1.03-2.76-2.45-5.41-3.95-7.95-1.46-2.48-3.7-3.31-6.34-2.66,1.81,3.03,3.58,5.62,4.9,8.42.47.99.28,2.92-.41,3.64-.58.6-2.43.31-3.56-.05-2.46-.77-4.82-1.84-7.38-2.85-.83,1.85-1.6,3.19-2.06,4.63-2.43,7.59-8,11.53-15.36,13.44-2.02.52-4.05,1.01-6.09,1.44-9.77,2.08-8.27,2.74-9.03,9.7-.12,1.06.67,3.17.88,3.15,1.61-.15,3.58-.29,4.64-1.28.84-.79.72-2.79.67-4.25-.04-1.09-.66-2.17-1.09-3.45.71,0,1.04-.08,1.32.01,9.5,3.03,17.94.44,25.91-4.82,4.38-2.89,9.29-3.41,14.25-2.36,4.18.88,8.25,2.25,12.34,3.5,6.28,1.92,12.48,1.93,18.9-1.3ZM301.79,210.96c1.46-1.96,2.54-3.59,3.81-5.05,1.24-1.42,1.07-2.62.09-4.09-6.38-9.52-11.68-19.59-15.38-30.47-.98-2.88-2.68-5.05-6.13-5.03-3.59.03-5.22,2.35-6.28,5.33-3.62,10.17-8.01,19.95-14.46,28.7-.51.69-.66,2.17-.26,2.88,1.14,2.02,2.66,3.84,4.3,6.12,2.49-4.11,4.58-7.7,6.81-11.22,4.92-7.77,14.9-7.71,19.74.1,2.53,4.08,5.01,8.2,7.76,12.72ZM88.96,32c-1.57,8.07-4.36,15.9-2.3,24.3,1.99,8.12,4.89,15.75,10.3,22.4.5-4.21,1.03-8.41.41-12.42-2.18-14.1-1.78-28.27-1.76-42.43,0-1.05-.11-2.1-.2-3.57-1.39.48-2.5.65-3.36,1.21-7.64,4.94-15.36,9.75-22.77,15.01-3.6,2.56-4.17,6.8-2.37,10.35,1.47,2.91,4.66,4.47,8.01,3.94,3.91-.62,6.62-3.55,7.03-7.99.44-4.75,3.2-7.95,7.02-10.8ZM94.76,479.56c.9-19.55,1.78-38.69,2.65-57.83-.38-.2-.75-.4-1.13-.6-.3.59-.54,1.22-.91,1.77-8.27,12.2-12.2,25.19-7.37,39.83.56,1.71.77,3.54,1.14,5.32-4.29-2.81-6.73-6.34-7.35-11.1-.56-4.29-3.4-7.15-7.05-7.65-3.36-.46-6.47,1.14-7.94,4.08-1.71,3.42-1.03,7.76,2.29,10.46,7.76,6.32,16.22,11.57,25.66,15.72ZM404.28,479.61c2.44-1.23,4.77-2.18,6.88-3.49,6.24-3.9,12.49-7.79,18.52-11.98,3.69-2.56,4.59-6.44,3.06-10.19-1.28-3.13-4.5-5.04-7.93-4.71-3.77.37-6.44,3.02-7.37,7.33-.19.86-.28,1.75-.54,2.58-1.14,3.61-3.13,6.58-6.82,8.47,1.7-8.06,4.26-15.87,2.4-24.23-1.81-8.1-4.48-15.64-10.82-21.68.87,19.1,1.73,38.19,2.63,57.9ZM409.43,32.53c.52-.07,1.03-.15,1.55-.22.94,1.02,2.21,1.88,2.75,3.08,1.41,3.16,2.57,6.44,3.71,9.71,1.13,3.26,3.87,5.57,7.26,5.82,3.4.25,6-1.06,7.6-4.12,1.62-3.09,1.23-6.5-1.16-9.18-.94-1.06-2.04-2.01-3.2-2.82-4.14-2.89-8.24-5.86-12.54-8.48-3.6-2.2-7.46-3.96-11.17-5.9-.95,19.74-1.87,38.89-2.79,58.05.34.11.69.21,1.03.32,1.53-2.47,3.21-4.86,4.56-7.41,6.6-12.42,7.96-25.33,2.4-38.83ZM101.91,66.45c-.02.36-.03.71-.05,1.07,2.07.39,4.15.74,6.22,1.17,7.6,1.58,15.14,3.22,19.53,10.75.35.6,2.25.71,3.25.42,2.69-.78,4.85-.75,6.63,1.87,2.43,3.57-.34,5.43-2.2,7.61-2.58,3.02-1.95,6.13,1.67,7.85,2.9,1.38,6.1.3,7.77-2.92,1.72-3.31,3.18-6.76,4.7-10.17,1.85-4.17,4.89-6.96,9.28-8.26,3.58-1.06,7.18-2.06,10.74-3.19,2.55-.81,5.04-1.78,7.56-2.68-.05-.32-.1-.64-.15-.97-5.01-2.03-10.24-2.63-15.58-1.41-3.85.88-7.6,2.19-11.39,3.31-7.07,2.09-13.72,1.72-20.3-2.18-3.81-2.26-8.15-3.88-12.46-5.02-5.38-1.42-10.52.01-15.21,2.74ZM370.02,417.92c-1.31.4-2.23.74-3.18.95-2.48.54-4.62,0-6.04-2.25-1.43-2.27-.91-4.42.67-6.38.62-.76,1.34-1.46,2.09-2.1,1.46-1.25,1.17-2.39-.04-3.61-2.6-2.63-7.29-1.97-9.28,1.55-1.45,2.57-2.62,5.32-3.73,8.07-2.54,6.3-7.12,10.12-13.65,11.78-3.83.97-7.65,2-11.45,3.11-1.32.39-2.54,1.11-4.54,2.01,5.44,2.19,10.09,3.08,14.8,2.05,4.92-1.07,9.73-2.68,14.58-4.05,6.55-1.85,12.69-1.32,18.69,2.28,3.54,2.12,7.46,3.78,11.41,5.02,5.79,1.81,11.34.51,17.61-2.82-11.21-2.99-23.13-2.99-27.96-15.61ZM336.65,353.51c7.58,7.46,10.8,16.62,13.16,26.2.23.95.64,1.88,1.06,2.77,1.47,3.13,2.38,6.84,6.95,6.88,4.68.04,5.61-3.71,6.75-6.94,4.22-11.92,10.61-22.65,17.59-33.08.58-.87,1.09-1.79,1.42-2.33-2.36-1.56-4.45-2.95-6.83-4.52-3.09,4.96-6.33,10.03-9.42,15.19-2.44,4.07-5.93,6.01-10.64,5.93-4.66-.09-7.72-2.43-9.94-6.43-2.41-4.35-5.32-5.39-10.1-3.66ZM396.72,67.38c-5.61-4.11-11.57-5.2-17.81-2.98-3.7,1.32-7.28,3.09-10.73,4.99-4.63,2.56-9.47,3.61-14.61,2.58-3.86-.77-7.6-2.19-11.47-2.95-4.06-.79-8.2-1.48-12.32-1.56-2.62-.05-5.26,1.09-7.89,1.7.03.37.06.73.09,1.1,1.41.52,2.79,1.11,4.23,1.53,3.9,1.14,7.8,2.29,11.74,3.26,5.9,1.46,9.86,4.94,12.06,10.62,1.18,3.07,2.51,6.1,4.07,8.99,1.42,2.64,3.77,3.57,6.52,3.02-1.42-3.09-3.16-5.71-3.82-8.58-.82-3.56.91-4.68,4.31-3.32,1.91.77,3.78,1.65,5.91,2.59.73-1.63,1.53-2.96,1.95-4.4,2.36-7.96,8.33-11.8,15.77-13.92,2.32-.66,4.72-.99,7.08-1.5,1.64-.36,3.27-.78,4.91-1.17ZM75.06,308.54c-7.43-2.9-10.53-7.83-10.91-14.13-.23-3.85.61-7.83,1.43-11.65.85-3.95,3.43-6.34,7.74-6.09,8.1.47,15.62-1.62,23.01-4.7,3.1-1.29,6.35-1.55,9.51.33,2.65,1.57,4.66.69,6.41-1.81,3.02-4.3,3.12-4.23-.14-8.1-.28-.34-.57-.67-.85-1-7.23-8.64-9.83-8.73-16.95.24-5.56,7.01-12.11,11.92-21.31,12.88-4.45.46-8.29,2.26-11.23,6.07-7.79,10.09-6.85,26.86,2.89,37.73,3.28-3.08,6.55-6.14,10.41-9.76ZM32.77,178.65c-5.12-8.31-6.75-16.96-5.03-26.21,2.17-11.68,8.7-18.9,18.79-20.09,3.92-.46,7.99.39,12.55.68.89-1.78,2.07-4.15,3.34-6.7-6.72-3.13-13.23-3.9-19.93-1.99-11.64,3.31-18.96,11.22-22.6,22.48-4.39,13.58-1.4,26.11,6.06,38.2,2.43-2.27,4.57-4.27,6.82-6.37ZM429.76,295.22c1.51,1.35,2.92,2.52,4.23,3.79,1.42,1.37,2.49,1.08,3.88-.22,11.93-11.25,13.11-30.92,2.59-44.11-9.43-11.83-30.7-14.72-43.91-5.63,1.31.52,2.34,1.16,3.44,1.33,5.94.91,11.88,2.11,17.87,2.46,12.24.71,20.15,8.31,20.86,20.6.49,8.54-2.53,15.66-8.96,21.78ZM423.13,308.03c-1.08,4.51-2.75,8.58-2.73,12.65.01,2.1,3,4.21,4.71,6.26,1.12,1.35,2.42,2.55,3.53,3.9,3.71,4.51,5.6,9.75,5.25,15.54-.46,7.51-2.9,13.82-10.91,16.66-4.87,1.73-6.76,6.98-4.63,11.34,1.93,3.94,7.03,5.58,11,3.19,1.61-.96,3.09-2.56,3.97-4.21,2.46-4.64,4.87-9.36,6.77-14.25,3.71-9.56,2.67-18.75-3.21-27.24-1.93-2.79-4.44-5.22-6.12-8.14-1.24-2.15-2.31-4.87-2.17-7.25.31-5.25.64-5.23-5.46-8.46ZM281.6,447.56c.09,1.19.06,2.59.31,3.95,2.07,11.24,8.36,19.45,18.34,24.77,9.43,5.02,19.62,6.18,30.1,4.92,6.19-.74,12.23-2.14,17.96-5.07-1.6-1.63-3.15-2.9-4.29-4.46-1.48-2.02-2.98-2.31-5.33-1.5-6.96,2.39-14.16,3.03-21.46,2.04-11.8-1.61-21.56-6.16-25.76-18.42-2.27-6.63-2.25-6.64-9.29-6.62-.09,0-.18.11-.58.38ZM419.06,174.09c-.11-.23-.06,0,.08.15,7.16,7.53,5.45,6.88,11.67.48,16.45-16.92,11.84-33.95.82-50.82-2.01-3.08-6.27-3.77-9.51-2.33-3.22,1.43-5.24,5.11-4.55,8.69.74,3.87,3.47,5.83,6.99,7.15,1.63.61,3.35,1.67,4.41,3.02,4.91,6.23,5.37,14.72.68,21.52-2.94,4.26-6.82,7.88-10.57,12.13ZM348.76,24.41c-1.4-.66-2.35-1.16-3.33-1.55-10.51-4.13-21.38-5.11-32.38-2.85-15.76,3.23-26.47,12.25-30.49,28.26-.38,1.5-.28,3.11-.42,4.78,3.16-.17,5.78-.3,8.45-.44.18-.53.37-.92.44-1.33,2.15-11.97,9.6-18.87,21.02-21.91,9.28-2.47,18.49-1.93,27.63.85,1,.3,2.53.41,3.23-.14,1.96-1.54,3.62-3.46,5.85-5.68ZM150.35,24.25c2.17,2.26,3.51,3.42,4.56,4.8,1.43,1.88,2.88,2.01,5.08,1.22,7.16-2.58,14.6-3.12,22.1-2.05,13.48,1.93,23.78,7.73,26.59,22.42.14.71,1.13,1.67,1.84,1.79,2.23.36,4.51.38,7.05.55-1.01-13.42-7.41-22.94-18.82-28.94-9.98-5.24-20.82-6.22-31.78-4.42-5.42.89-10.65,2.93-16.62,4.64ZM150.24,475.88c1.72.81,2.94,1.48,4.22,1.97,10.33,3.89,20.91,4.74,31.71,2.47,13.19-2.77,23.23-9.65,28.33-22.51,1.28-3.22,1.62-6.81,2.49-10.66-2.09.24-3.2.58-4.25.44-3.55-.48-4.94,1.14-5.65,4.52-2.02,9.54-8.48,15.02-17.43,17.97-9.91,3.27-19.83,3.08-29.8.18-1.14-.33-2.82-.63-3.6-.06-2.08,1.52-3.81,3.52-6.03,5.68ZM77.53,323.71c-4.23,1.54-7.82,2.81-11.38,4.15-.78.3-1.69.69-2.16,1.32-5.12,6.8-8.4,14.24-7.02,22.98,1.27,8.04,4.67,15.32,8.83,22.23,2.32,3.86,6.13,5.27,9.87,4.2,3.2-.91,5.41-3.89,5.49-7.42.09-3.79-2.53-6.97-6.59-8.5-1.56-.59-3.18-1.55-4.28-2.79-6.51-7.28-6.03-17.83,1.24-24.54,2.95-2.72,6.39-4.9,9.85-7.51-1.41-1.52-2.8-3.03-3.83-4.14ZM347.22,237.93c.88-2.36,1.35-4.19,2.22-5.81,1.21-2.27.39-3.82-1.07-5.58-9.67-11.69-22.17-15.57-36.8-13.24-1.78.28-3.89,1.64-4.9,3.14-3.87,5.72-7.38,11.69-10.99,17.58-2.54,4.13-2.03,7.64,1.63,11.52,4.52-6.75,8.9-13.59,13.66-20.16,1.11-1.54,3.38-2.77,5.3-3.11,9.47-1.66,17.53,1.27,24.09,8.31,2.15,2.3,4.3,4.6,6.87,7.36ZM82.01,175.4c-2.94-2.2-5.86-4.42-8.81-6.6-11.91-8.78-10.41-26.15,2.78-32.1,3.43-1.55,5.37-4.6,5.13-8.07-.23-3.31-2.45-6.17-5.51-7.12-3.44-1.07-7.47,0-9.18,3.4-3.43,6.83-7.33,13.68-9.21,20.99-3.98,15.44,8.99,31.04,24.81,29.5ZM151.37,236.76c2.64-2.95,4.83-5.68,7.32-8.11,6.03-5.88,13.23-8.66,21.65-6.99,1.94.39,4.2,1.57,5.35,3.11,3.88,5.18,7.31,10.69,10.94,16.06,1.14,1.68,2.35,3.32,3.93,5.54.84-2.17,1.23-3.79,2.05-5.14,1.62-2.65,1.03-4.81-.64-7.2-2.69-3.88-5.58-7.74-7.51-12-3.06-6.77-7.96-9.2-15.2-9.59-13.07-.71-22.53,5.15-30.32,14.78-.52.65-.87,1.89-.62,2.62.79,2.26,1.9,4.41,3.03,6.92ZM460.43,360.6c.1.19.22.51.43.75,12.75,14.39,14.51,30.41,7.09,47.8-.28.66-.63,1.64-.35,2.14,1.4,2.52,2.99,4.93,4.61,7.52,13.87-15.94,10.93-50.58-4.9-64.59-2.22,2.06-4.41,4.1-6.87,6.38ZM128.57,316.89c-.9,1.02-1.57,1.89-2.34,2.65-5.02,4.94-8.43,4.75-12.85-.67-.28-.34-.54-.69-.82-1.03-4.88-6.01-8.43-6.2-13.84-.72-6.03,6.11-8.41,6.14-14.42.22-.14-.13-.4-.15-.94-.33-1.26,1.39-2.62,2.88-3.98,4.38.55.74.84,1.22,1.21,1.61.75.8,1.5,1.6,2.32,2.34,6.23,5.59,13.03,7.92,21.12,3.96.86-.42,2.46.07,3.47.62,3.87,2.1,8.05,3.25,11.96,1.16,3.39-1.81,6.19-4.74,9.17-7.27,2.34-1.99,2.38-4.23-.06-6.9ZM25.56,363.71c1.19-1.6,2.22-3.27,3.53-4.69,1.69-1.83,1.74-3.44.87-5.86-5.65-15.63-2.96-29.74,8.37-42.06.62-.68,1.21-1.39,1.59-1.84-2.44-2.23-4.66-4.27-6.91-6.33-15.81,13.63-20.13,46.82-7.45,60.78ZM27.2,418.89c3.92-3.82,5.06-7.17,2.81-12.92-5.4-13.84-2.87-26.93,7.39-38.13.63-.69,1.21-1.41,1.61-1.87-2.54-2.29-4.86-4.37-7.19-6.46-15.25,12.43-18.1,46.94-4.63,59.39ZM471.58,81.47c-4.75,4.24-5.24,6.24-2.88,11.64,5.68,13,2.69,28.4-7.42,38.27-.81.79-1.56,1.66-2.06,2.19,2.63,2.31,4.94,4.33,7.26,6.35,16.23-15.44,18.97-46.17,5.1-58.46ZM55.33,324.1c.07.31.14.62.21.93,5.87,1.62,11.67,1.33,17.01-1.84,6.88-4.08,11.83-10.08,15.51-17.11,1.41-2.69,1.51-5.6-.46-8.1-2.3-2.93-4.71-5.8-7.32-8.46-2.42-2.47-6.03-2.74-8.79-1.09-2.76,1.65-4.03,4.91-3.22,8.3.83,3.47,3.15,5.34,6.51,6.25,3.98,1.07,4.46,2.27,2.27,5.82-4.06,6.6-9.8,11.17-17.12,13.73-1.53.54-3.07,1.04-4.6,1.56ZM246.48,190.2c-4.2,4.64-8.4,9.07-12.38,13.7-8.25,9.59-7.68,20.85,1.15,30.22,3.51,3.73,6.61,7.85,9.92,11.77.18.21.51.29,1.16.65.35-1.77.8-3.33.93-4.92.5-6.01-1.79-10.78-6.17-14.93-5.45-5.16-5.21-11.89.18-17.07.87-.84,1.82-1.6,2.65-2.47,3.66-3.86,4.94-13.09,2.56-16.95ZM247.15,310.85c1.5-7.41.4-13.44-4.57-18.58-8.22-8.51-7.1-15.39,3.32-21.21.57-.32,1.32-.54,1.66-1.04,1.37-2.05,2.97-4.05,3.79-6.32.72-2-.18-3.5-2.8-2.54-1.34.49-2.73.83-4.09,1.25-17.18,5.35-21.51,23.83-8.6,36.35,3.29,3.19,6.19,6.78,9.28,10.17.49.54,1.05,1.01,2,1.92ZM252.32,310.03c4.61-5.51,9.25-10.47,13.21-15.92,6.49-8.93,5.38-19.16-2.21-27.31-3.35-3.6-6.34-7.52-9.5-11.29-.46-.55-.94-1.08-1.41-1.61-.28.11-.56.21-.84.32.53,6.46-.79,13.17,4.94,18.64,5.8,5.54,5.75,11.32.57,17.45-.85,1.01-1.8,1.94-2.53,3.03-3.48,5.1-4.44,10.55-2.22,16.71ZM26.42,307.25c1.66-2.15,3.35-3.92,4.49-5.99.61-1.09.59-2.77.31-4.07-1.01-4.69-2.7-9.27-3.3-13.99-1.09-8.61,1.12-16.7,5.58-24.18-2.34-2.14-4.49-4.1-6.65-6.07-10.49,12.67-10.76,40.74-.44,54.3ZM253.07,191.05c-.26.52-.83,1.32-1.1,2.21-1.93,6.3-1.52,11.87,3.74,16.83,6.21,5.86,5.89,11.6.37,17.77-2.2,2.46-3.95,5.56-5.05,8.67-1.1,3.09-1.02,6.54.57,9.25,4.21-4.21,8.22-8.19,12.2-12.2,5.79-5.84,7.04-13.34,2.91-20.49-4.3-7.44-9.03-14.64-13.63-22.02ZM367.9,300.39c2.45-3.43,4.72-6.15,6.47-9.16,2.96-5.12,7.07-7.11,13.01-6.69,7.49.53,14.66-1.24,21.06-5.34,2.5-1.6,4.74-3.59,7.1-5.4-.17-.29-.33-.58-.5-.87-1.82.28-3.62.69-5.45.83-10.07.77-20.15,1.38-30.2,2.3-2,.18-4.49.92-5.74,2.31-3.07,3.41-5.6,7.32-8.21,11.13-.55.8-.9,2.13-.63,3.01.75,2.49,1.87,4.86,3.09,7.89ZM27.02,81.51c-10.82,9.8-11.65,40.49-1.27,50.55,1.56-1.34,3.03-2.81,4.71-4,1.6-1.12,1.6-2.06.78-3.8-4.77-10.15-5.3-20.53-1.06-31,2.03-5.02,1.35-7.84-3.16-11.74ZM80.36,221.31c-.14.43-.27.86-.41,1.29,7.54,3.45,12.39,9.64,16.97,16.13.75,1.07,1.66,2.06,2.64,2.91,2.98,2.6,6.9,2.55,9.34-.51,4.24-5.33,8.66-10.38,15.33-13.32-1.33-1.91-2.42-3.47-3.11-4.46-2.79.74-4.94,1.39-7.13,1.86-1.92.41-4.07.23-5.79,1.01-4.11,1.87-7.89,1.06-11.73-.61-2.41-1.05-4.79-2.28-7.31-2.94-2.86-.75-5.86-.94-8.8-1.37ZM466.69,312.9c.12.5.14.84.29,1.12,6.11,11.51,6.34,23.24,1.39,35.2-.23.57-.48,1.45-.22,1.84,1.66,2.47,3.46,4.84,5.33,7.4,10.89-15.98,8.11-41.74-.59-51.16-2.01,1.81-4.02,3.62-6.2,5.59ZM472.59,135.95c-1.66,2.22-3.39,4.32-4.85,6.6-.42.66-.41,1.96-.05,2.71,5.07,10.67,4.29,21.05-1.25,31.29-.34.63-.49,1.91-.12,2.29,1.88,1.9,3.96,3.61,5.98,5.4,11.25-15.46,9.38-36.88.29-48.29ZM381.33,232.02c2,2.37,4.14,4.71,6.06,7.21,4.06,5.3,9.25,5.59,13.79.56,1.98-2.19,3.75-4.57,5.65-6.84,3.7-4.44,8.43-6.88,14.21-7.24.57-.03,1.13-.2,2.36-.42-4.36-2.89-8.54-2.81-12.57-1.91-4.14.92-8.08,2.73-12.2,3.78-2.01.51-4.41.73-6.34.15-6.29-1.91-7.67-1.48-10.96,4.7ZM386.67,286.88c-2.09.29-3.66.33-5.12.76-3.51,1.02-4.14,3.5-1.84,6.2,1.78,2.09,3.37,4.33,5.06,6.49,3.73,4.75,7.06,5.03,11.73,1.16,3.46-2.86,7.11-5.49,10.54-8.39,1.31-1.11,2.22-2.68,3.32-4.04-1.53-.63-3.04-1.32-4.6-1.87-.6-.21-1.31-.08-1.96-.14-5.89-.61-11.77,3.48-17.12-.17ZM421.02,418.41c-.18,2.55-.5,4.63-.38,6.69.05.89.83,2.3,1.56,2.51,11.41,3.26,22.91,5.19,34.6,1.34,1.48-.49,2.87-1.26,4.63-2.05-1.69-1.91-2.84-3.56-4.34-4.78-.85-.69-2.4-1.14-3.44-.88-7.2,1.81-14.37,1.39-21.52-.1-3.62-.75-7.2-1.76-11.11-2.73ZM38.57,73.5c.77.92,1.46,1.62,2.02,2.41,1.97,2.82,4.26,3.44,7.84,2.8,4.68-.83,9.62-.76,14.39-.34,5.09.45,10.11,1.75,15.37,2.72.42-2.74.82-5.39,1.22-7.98-12.99-4.41-32.42-6.01-40.84.38ZM38.84,427.48c1.11.47,2.17,1.02,3.28,1.39,11.81,3.98,23.44,2.19,34.98-1.22.59-.17,1.36-1.19,1.33-1.79-.11-2.46-.49-4.9-.8-7.58-1.44.44-2.59.79-3.73,1.14-8.08,2.44-16.27,3.79-24.72,2.37-5.15-.86-7.5.36-10.35,5.68ZM420.52,81.18c.83-.14,1.36-.19,1.87-.31,10.07-2.44,20.15-4.45,30.54-1.87.71.18,1.82-.14,2.36-.64,1.74-1.62,3.29-3.44,4.95-5.22-8.57-5.96-29.13-4.77-40.68.57.3,2.35.61,4.71.96,7.47ZM407.99,316.05c-5.38,3.72-9.06,1.02-12.78-1.75-2.55-1.9-5.69-2.37-7.88-.18-2.48,2.49-4.72,5.63-5.82,8.9-.54,1.59,1.72,4.15,2.75,6.25,1.19,2.4,2.71,2.2,4.78.9,1.43-.9,3.27-1.57,4.94-1.59,6.57-.11,12.5-4.86,14.01-12.53ZM341.4,141.84c.15.19.31.39.46.58,1.36-.65,2.7-1.33,4.07-1.93,9.65-4.25,18.74-3.91,27.03,3.28,2.82,2.44,5.71,4.81,8.63,7.13,1.03.82,2.28,1.36,3.11,1.84-1.47-10.17-8.28-16.79-15.27-23.35-6.79,7.86-14.47,7.5-20.79-.83-2.54,4.65-4.89,8.97-7.25,13.28ZM415.84,190.01c-1.58,2.42-3.48,4.92-4.88,7.68-.54,1.06-.42,3.03.24,4.01,2.12,3.15,4.32,6.37,7.08,8.93,3.29,3.05,8.49,2.22,11.13-1.15,2.39-3.06,1.88-7.93-1.47-10.62-3.7-2.97-7.66-5.62-12.1-8.84ZM320.93,336.81c-5.73,13.07-13.64,22.42-28.49,22.72.99,5.97,2.01,6.7,7.47,5.73,11.02-1.96,18.46-8.63,23.8-18.05.38-.67.52-1.72.28-2.43-.82-2.47-1.85-4.88-3.06-7.97ZM177.19,336.53c-1.1,2.97-2.08,5.29-2.79,7.69-.25.83-.08,1.98.32,2.77,5.1,9.98,12.93,16.44,24.17,18.29,5.04.83,6.12-.15,6.55-5.76-14.87-.4-22.5-10.05-28.26-22.99ZM292.22,140.45c6.62.64,13.11,1.72,17.64,6.62,4.28,4.63,7.74,10.01,11.42,14.87.53-1.39,1.52-3.28,1.92-5.29.31-1.56.42-3.57-.3-4.88-5.06-9.12-12.61-15.02-23.04-16.89-5.47-.99-6.18-.51-7.65,5.56ZM205.99,140.59c-1.22-6.19-2.12-6.85-7.87-5.8-8.39,1.53-14.76,6.14-20.22,12.6-4.3,5.09-3.97,9.93-1.16,14.57,3.69-4.93,7.2-10.35,11.45-15.1,4.6-5.13,11.19-6.06,17.79-6.28ZM113.83,151.03c5.17-3.22,10.32-6.14,15.17-9.5,7.27-5.04,15.08-5.25,23.28-3.39.65.15,1.31.25,2.44.46-1.59-3.62-2.96-6.74-4.39-9.99-9.93,8.1-12.1,8.15-20.85.71-6.34,6.32-13.23,12.22-15.65,21.71ZM444.22,385.09c-.31-.48-.63-.96-.94-1.45-11.6,5.59-23.93,7.08-37.16,6.27,1.06,2.29,1.86,3.61,2.29,5.05.81,2.69,2.64,3.39,5.23,3.39,7.82,0,15.37-1.2,21.95-5.62,3.16-2.12,5.77-5.07,8.63-7.64ZM92.56,109.11c-1.38-2.77-2.27-4.88-3.47-6.81-.42-.68-1.57-1.21-2.42-1.26-11.3-.68-21.35,2.1-29.11,10.89-1.01,1.14-1.79,2.49-2.67,3.74.18.29.37.59.55.88,11.41-6.12,23.69-7.84,37.11-7.44ZM444.27,115.98c-1.19-1.66-1.74-2.58-2.43-3.38-6.74-7.7-15.52-10.77-25.47-11.04-5.9-.16-7.82,1.58-8.94,7.73,6.09.5,12.26.55,18.26,1.62,5.97,1.07,11.75,3.15,18.59,5.07ZM55.99,383.59c-.22.32-.44.64-.66.95,1.05,1.36,2.02,2.8,3.17,4.06,7.69,8.39,17.86,10.03,28.49,10.33.55.02,1.39-.35,1.63-.8,1.16-2.14,2.16-4.36,3.5-7.13-13.05.05-24.9-2.18-36.14-7.41ZM58.61,432.81c-4.7-.05-8.42,3.79-8.41,8.68,0,4.31,3.85,8.27,8.12,8.36,4.88.11,8.98-3.8,8.97-8.56-.01-4.68-3.85-8.43-8.69-8.48ZM128.44,56.54c-8.28-3.49-19.91-4.05-27.63-1.3-.77.27-1.91,1.21-1.87,1.77.16,2.44.69,4.85,1.17,7.81,9.4-5.89,18.42-4.02,27.49-.54.31-2.83.56-5.2.84-7.74ZM58.77,67.53c4.85.04,8.58-3.66,8.54-8.47-.04-4.72-3.81-8.4-8.66-8.46-4.45-.06-8.32,3.81-8.38,8.38-.07,4.76,3.66,8.5,8.5,8.55ZM440.29,432.74c-4.68.09-8.42,4.04-8.3,8.79.11,4.61,3.93,8.27,8.53,8.18,4.56-.09,8.34-3.93,8.33-8.46-.02-4.79-3.84-8.6-8.55-8.51ZM393.65,154.01c4.83-.06,8.69-3.93,8.55-8.59-.13-4.69-4.1-8.39-8.91-8.3-4.65.09-8.18,3.81-8.13,8.59.04,4.6,3.88,8.35,8.49,8.29ZM448.51,59.18c.07-4.64-3.56-8.41-8.2-8.54-4.92-.13-8.68,3.49-8.67,8.33.02,4.9,3.61,8.48,8.55,8.53,4.68.04,8.26-3.53,8.33-8.32ZM393.12,345.22c-4.66.07-8.24,3.79-8.18,8.53.05,4.8,3.89,8.55,8.66,8.47,4.63-.08,8.24-3.83,8.19-8.53-.04-4.78-3.89-8.54-8.67-8.47ZM455.77,82.43c-4.78-.06-8.57,3.52-8.57,8.09,0,4.73,3.59,8.5,8.18,8.57,4.97.09,8.56-3.18,8.72-7.92.16-4.81-3.53-8.69-8.32-8.75ZM321.1,408.58c4.61.02,8.51-3.75,8.52-8.25.01-4.75-3.53-8.43-8.2-8.52-4.85-.1-8.67,3.58-8.7,8.37-.02,4.57,3.78,8.38,8.38,8.41ZM177.04,408.09c4.55-.04,8.25-3.94,8.13-8.56-.12-4.62-3.85-8.21-8.52-8.23-4.57-.01-8.3,3.73-8.34,8.4-.05,4.59,3.96,8.43,8.74,8.39ZM104.87,362.24c4.66-.05,8.48-3.8,8.47-8.3,0-4.79-3.83-8.51-8.66-8.43-4.58.07-8.4,3.96-8.32,8.46.08,4.53,3.98,8.33,8.52,8.27ZM146.98,61.4c.06-4.7-3.79-8.63-8.51-8.67-4.54-.04-8.36,3.76-8.44,8.38-.07,4.64,3.59,8.35,8.31,8.41,4.66.06,8.57-3.62,8.63-8.12ZM257.66,441.01c.05-4.5-3.75-8.23-8.43-8.26-4.69-.03-8.38,3.56-8.43,8.23-.06,4.59,3.63,8.4,8.23,8.49,4.69.09,8.58-3.72,8.63-8.46ZM221.54,329.15c-.08-4.62-3.81-8.19-8.52-8.17-4.54.02-8.26,3.82-8.27,8.45,0,4.59,3.76,8.35,8.36,8.35,4.75,0,8.52-3.86,8.43-8.63ZM204.96,166.78c-.03,4.63,3.68,8.44,8.3,8.52,4.62.09,8.34-3.64,8.36-8.37.01-4.71-3.6-8.43-8.26-8.5-4.6-.07-8.36,3.67-8.39,8.34ZM201.06,427.16c4.66.05,8.74-3.92,8.72-8.48-.01-4.58-3.75-8.3-8.39-8.36-4.85-.06-8.41,3.55-8.44,8.56-.02,4.42,3.71,8.23,8.11,8.28ZM52.22,90.9c.05-4.64-3.76-8.32-8.7-8.41-4.53-.08-8.02,3.41-8.11,8.11-.09,4.89,3.26,8.47,8,8.56,4.86.09,8.75-3.56,8.8-8.27ZM177.33,376c4.45-.02,8.39-4,8.36-8.44-.02-4.45-4.02-8.49-8.36-8.46-4.67.04-8.58,4.02-8.48,8.65.1,4.61,3.86,8.26,8.48,8.24ZM305.68,81.74c.03-4.58-3.76-8.44-8.29-8.43-4.61.01-8.49,3.98-8.49,8.68,0,4.37,3.72,8.09,8.2,8.2,4.79.12,8.55-3.58,8.58-8.46ZM455.53,286.25c-4.85.03-8.45,3.75-8.37,8.64.08,4.83,3.56,8.15,8.46,8.08,4.75-.07,8.26-3.67,8.21-8.42-.05-4.8-3.58-8.33-8.31-8.3ZM43.96,204.66c4.84.05,8.53-3.4,8.61-8.02.07-4.8-3.57-8.55-8.41-8.65-4.53-.09-8.29,3.43-8.41,7.86-.12,4.89,3.48,8.76,8.21,8.81ZM177.63,140.87c4.25.07,7.89-3.7,8.03-8.31.14-4.66-3.47-8.44-8.12-8.52-4.77-.08-8.62,3.68-8.65,8.43-.03,4.57,3.88,8.32,8.74,8.4ZM320.62,124.33c-4.65.03-8.22,3.71-8.2,8.45.02,4.55,3.92,8.45,8.36,8.34,4.66-.11,8.42-3.84,8.43-8.35.01-4.79-3.74-8.48-8.59-8.44ZM210.06,81.85c.03-4.53-3.81-8.39-8.39-8.44-4.67-.05-8.45,3.83-8.48,8.7-.02,4.46,3.64,8,8.29,8.01,4.57,0,8.55-3.82,8.58-8.27ZM455.13,263.85c4.71.08,8.47-3.5,8.56-8.16.09-4.73-3.48-8.53-8.09-8.6-4.8-.08-8.36,3.35-8.49,8.17-.14,4.9,3.22,8.51,8.02,8.59ZM105.94,210.96c4.55,0,8.63-3.83,8.69-8.15.06-4.71-3.75-8.49-8.57-8.5-4.58-.01-8.39,3.72-8.44,8.28-.05,4.62,3.68,8.38,8.31,8.37ZM305.25,36.52c-4.44-.1-8.19,3.48-8.36,7.98-.19,4.76,3.3,8.61,7.91,8.73,4.79.13,8.7-3.58,8.75-8.31.05-4.62-3.57-8.28-8.29-8.39ZM113.12,145.47c-.03-4.81-3.79-8.41-8.72-8.33-4.58.07-8.15,3.85-8.11,8.59.04,4.48,3.69,8.12,8.19,8.16,4.89.04,8.67-3.64,8.64-8.41ZM329.16,367.83c-.07-4.65-4.08-8.51-8.76-8.43-4.52.08-8.19,4.02-8.08,8.67.11,4.56,4.01,8.32,8.55,8.25,4.55-.08,8.36-3.97,8.29-8.49ZM43.73,306.91c4.88-.05,8.4-3.56,8.34-8.31-.06-4.83-3.62-8.4-8.33-8.36-4.95.04-8.42,3.68-8.31,8.69.1,4.64,3.64,8.03,8.3,7.98ZM202.6,44.28c-.06-4.81-3.64-8.37-8.34-8.31-4.57.06-8.25,3.86-8.25,8.52,0,4.66,4,8.42,8.82,8.27,4.54-.13,7.84-3.73,7.78-8.48ZM50.85,144.99c.02-4.56-3.7-8.3-8.34-8.41-4.68-.11-8.46,3.76-8.42,8.6.04,4.61,3.5,8.1,8.09,8.18,4.84.08,8.66-3.61,8.67-8.37ZM364.84,325.52c-.03-4.57-3.61-8.18-8.15-8.22-4.71-.04-8.62,3.88-8.57,8.6.05,4.6,3.6,8.16,8.15,8.19,4.83.03,8.6-3.74,8.57-8.57ZM201.94,455.95c.05-4.76-3.25-8.31-7.82-8.41-4.82-.11-8.74,3.55-8.85,8.27-.11,4.73,3.67,8.4,8.63,8.38,4.53-.02,7.98-3.56,8.03-8.23ZM177.3,224.24c-4.86.05-8.47,3.56-8.45,8.24.01,4.69,4.01,8.59,8.69,8.48,4.59-.11,8.1-3.91,8.04-8.7-.07-4.61-3.63-8.06-8.27-8.02ZM292.53,203.29c.09-4.31-3.64-8.05-8.19-8.2-4.61-.15-8.36,3.24-8.52,7.73-.18,4.82,3.56,8.95,8.11,9,4.77.05,8.5-3.66,8.6-8.53ZM360.34,69.54c4.6-.07,8.16-3.61,8.18-8.14.02-4.73-3.8-8.5-8.62-8.49-4.62,0-8.21,3.79-8.11,8.53.1,4.7,3.77,8.17,8.55,8.09ZM114.93,87.34c-.07-4.73-3.76-8.23-8.51-8.08-4.77.15-8.32,4.02-8.16,8.89.15,4.48,3.85,7.85,8.5,7.74,4.59-.1,8.24-3.93,8.17-8.55ZM456.68,341.2c-4.55.09-8.15,3.97-8.01,8.65.14,4.78,3.75,8.22,8.5,8.08,4.76-.14,8.09-3.72,7.97-8.58-.11-4.78-3.71-8.25-8.46-8.15ZM367.57,124.55c.08-4.89-3.54-8.58-8.42-8.59-4.61-.01-8.25,3.51-8.26,7.99,0,4.89,3.62,8.63,8.4,8.67,4.47.03,8.2-3.61,8.27-8.07ZM464.35,144.64c.07-4.58-3.65-8.24-8.41-8.26-4.83-.02-8.41,3.47-8.41,8.2,0,4.67,3.67,8.33,8.38,8.35,4.71.02,8.37-3.58,8.45-8.29ZM213.09,404.06c4.73-.02,8.45-3.82,8.48-8.65.02-4.25-3.91-7.98-8.4-7.96-4.71.02-8.46,3.69-8.42,8.24.04,4.66,3.76,8.39,8.35,8.37ZM137.09,33.36c-4.52-.08-8.34,3.5-8.42,7.91-.09,4.68,3.82,8.71,8.44,8.72,4.59.01,8.51-3.83,8.47-8.3-.04-4.52-3.84-8.24-8.5-8.33ZM311.74,232.75c-.06,4.67,3.58,8.56,8.1,8.66,4.54.1,8.7-4,8.67-8.54-.03-4.6-3.53-8.09-8.15-8.14-4.9-.05-8.56,3.36-8.61,8.02ZM50.79,355.34c.1-4.7-3.42-8.44-8.09-8.61-4.82-.18-8.51,3.24-8.57,7.96-.07,4.87,3.56,8.65,8.36,8.69,4.47.04,8.21-3.59,8.3-8.04ZM456.24,417.58c4.57-.06,8.14-3.64,8.12-8.14-.02-4.87-3.72-8.43-8.63-8.33-4.68.09-8.15,3.73-8.12,8.52.03,4.6,3.74,8.01,8.62,7.95ZM293.23,104.67c-.07-4.8-3.68-8.38-8.37-8.29-4.71.09-8.34,3.74-8.34,8.4,0,4.53,3.9,8.22,8.59,8.12,4.51-.1,8.19-3.83,8.12-8.24ZM284.36,338.57c4.62-.06,8.39-3.83,8.38-8.39,0-4.4-4.05-8.4-8.46-8.39-4.65.02-8.31,3.76-8.24,8.42.07,4.73,3.74,8.42,8.32,8.36ZM150.43,202.85c-.03-4.45-3.73-7.97-8.32-7.93-4.56.04-8.28,3.83-8.28,8.43,0,4.51,3.96,8.48,8.35,8.37,4.68-.12,8.29-3.99,8.25-8.86ZM369.95,459.1c.08-4.67-3.49-8.42-8.15-8.56-4.65-.14-8.4,3.47-8.47,8.16-.07,4.73,3.4,8.38,8.12,8.52,4.68.15,8.42-3.43,8.51-8.12ZM145.26,458.89c.02-4.86-3.42-8.41-8.15-8.41-4.71,0-8.46,3.6-8.52,8.19-.06,4.58,3.64,8.36,8.27,8.45,4.65.09,8.38-3.56,8.4-8.22ZM353.32,41.68c-.02,4.71,3.61,8.38,8.32,8.43,4.46.04,8.43-3.87,8.49-8.38.06-4.73-3.57-8.37-8.32-8.32-4.75.04-8.47,3.67-8.49,8.27ZM329.65,100.89c0-4.51-3.89-8.43-8.4-8.48-4.4-.05-8.24,3.7-8.31,8.13-.08,4.91,3.59,8.57,8.52,8.5,4.63-.07,8.2-3.62,8.19-8.15ZM52.18,409.52c-.07-4.71-4.01-8.55-8.7-8.48-4.6.07-7.94,3.58-7.91,8.32.03,4.72,3.72,8.34,8.41,8.26,4.71-.07,8.26-3.59,8.19-8.1ZM75.75,224.62c-4.51-.08-8.21,3.44-8.36,7.97-.16,4.63,3.49,8.58,8.03,8.69,4.65.11,8.45-3.53,8.52-8.18.08-4.7-3.49-8.4-8.19-8.48ZM177.15,108.77c4.69-.06,8.27-3.81,8.15-8.53-.12-4.62-3.94-8.13-8.7-8-4.52.12-7.97,3.56-7.97,7.95,0,4.87,3.75,8.65,8.52,8.59ZM249.06,366.18c4.5.07,8.48-3.74,8.6-8.24.12-4.37-3.91-8.33-8.47-8.33-4.56,0-8.3,3.58-8.36,8.02-.06,4.61,3.66,8.48,8.22,8.56ZM249.1,150.44c4.63.05,8.37-3.62,8.44-8.28.07-4.59-3.71-8.44-8.3-8.47-4.66-.03-8.41,3.64-8.45,8.28-.04,4.6,3.7,8.41,8.31,8.47ZM105.25,287.53c-4.54,0-8.29,3.57-8.36,7.96-.07,4.9,3.57,8.68,8.34,8.68,4.51,0,8.43-3.87,8.44-8.34.01-4.54-3.79-8.29-8.43-8.29ZM400.08,89.46c.08-4.56-3.39-8.23-7.93-8.37-5.02-.16-8.7,3.27-8.76,8.17-.06,4.54,3.71,8.25,8.44,8.3,4.39.05,8.17-3.66,8.25-8.1ZM147.93,123.95c.05-4.66-3.62-8.43-8.23-8.45-4.64-.02-8.31,3.61-8.4,8.31-.1,4.72,3.49,8.37,8.22,8.37,4.74,0,8.36-3.55,8.41-8.24ZM392.2,195.45c-4.66-.05-8.41,3.62-8.45,8.28-.04,4.68,3.56,8.23,8.4,8.25,4.54.02,8.23-3.56,8.31-8.06.08-4.66-3.58-8.41-8.26-8.47ZM347.96,203.6c-.04,4.84,3.66,8.76,8.3,8.82,4.55.05,8.34-3.72,8.39-8.32.04-4.52-3.77-8.36-8.34-8.39-4.62-.03-8.31,3.46-8.35,7.89ZM221.78,104.94c0-4.95-3.59-8.59-8.48-8.58-4.5.01-8.12,3.61-8.2,8.17-.08,4.59,3.68,8.39,8.32,8.39,4.6,0,8.35-3.58,8.36-7.98ZM365.67,352.66c-.02-4.64-3.69-8.28-8.38-8.3-4.55-.02-8.29,3.73-8.36,8.37-.07,4.56,3.68,8.23,8.41,8.24,4.69,0,8.35-3.66,8.33-8.31ZM240.8,107.55c.09,4.7,3.9,8.47,8.4,8.3,4.52-.17,8.12-4.12,7.99-8.78-.13-4.5-3.81-8.07-8.3-8.05-4.67.02-8.18,3.72-8.09,8.53ZM368.65,439.42c.04-4.66-3.61-8.51-8.15-8.6-4.57-.09-8.33,3.63-8.4,8.3-.06,4.5,3.5,8.24,7.97,8.35,4.73.12,8.54-3.46,8.59-8.06ZM304.92,447.62c-4.55-.24-8.43,3.38-8.64,8.06-.2,4.51,3.23,8.35,7.72,8.62,4.64.28,8.61-3.26,8.8-7.86.2-4.68-3.28-8.58-7.88-8.82ZM257.64,59.46c-.07-4.81-3.97-8.63-8.65-8.49-4.38.14-7.96,3.97-7.94,8.49.03,4.7,3.75,8.31,8.47,8.2,4.64-.11,8.19-3.69,8.12-8.2ZM423.52,256.36c-4.87,0-8.47,3.53-8.42,8.23.05,4.53,3.68,8.22,8.14,8.28,4.67.06,8.48-3.58,8.56-8.2.08-4.78-3.45-8.32-8.28-8.31ZM257.09,392.77c-.01-4.68-3.68-8.38-8.28-8.37-4.68.02-8.09,3.59-8.09,8.48,0,4.51,3.59,8.18,8.06,8.25,4.56.07,8.33-3.72,8.31-8.36ZM366.2,264.74c.05-4.57-3.46-8.15-8.07-8.23-4.61-.09-8.59,3.7-8.6,8.16,0,4.66,3.69,8.43,8.29,8.47,4.57.03,8.32-3.72,8.37-8.39ZM141.03,360.89c4.7-.05,8.23-3.71,8.15-8.46-.08-4.53-3.67-8.08-8.19-8.09-4.56-.01-8.39,3.77-8.42,8.33-.03,4.52,3.83,8.27,8.46,8.22ZM83.92,205.99c0-4.53-3.85-8.25-8.46-8.2-4.47.05-8.18,3.76-8.14,8.14.04,4.63,3.78,8.44,8.29,8.43,4.58-.01,8.32-3.77,8.31-8.37ZM138.36,447.41c4.83,0,8.55-3.52,8.59-8.11.04-4.48-3.83-8.31-8.43-8.35-4.79-.05-8.27,3.47-8.24,8.33.04,4.7,3.45,8.15,8.07,8.14ZM177.73,273.27c4.36-.07,8.16-3.91,8.16-8.24,0-4.61-3.82-8.45-8.32-8.37-4.78.08-8.41,3.94-8.26,8.77.14,4.48,3.83,7.92,8.42,7.85ZM320.38,273.82c4.53-.06,8.21-3.99,8.07-8.61-.13-4.51-3.77-8-8.33-7.98-4.69.02-8.33,3.69-8.28,8.35.05,4.45,4.04,8.3,8.54,8.24ZM107.02,419.89c4.68-.06,8.39-3.86,8.26-8.46-.12-4.27-4.08-8.05-8.46-8.07-4.49-.02-8.12,3.64-8.11,8.21,0,4.82,3.56,8.38,8.31,8.32ZM221.68,266.6c.01-4.49-3.69-8.17-8.19-8.16-4.61.02-8.46,3.6-8.48,7.9-.02,4.63,3.68,8.48,8.26,8.58,4.63.1,8.39-3.63,8.4-8.33ZM454.39,204.77c4.85.01,8.44-3.4,8.52-8.11.08-4.53-3.66-8.29-8.31-8.36-4.77-.07-8.2,3.39-8.21,8.31-.01,4.65,3.43,8.16,8,8.17ZM256.84,218.05c-.02-4.67-3.66-8.22-8.4-8.2-4.36.01-8.15,3.82-8.15,8.18,0,4.58,3.76,8.38,8.31,8.4,4.63.02,8.26-3.67,8.24-8.38ZM52.7,240.7c-.07-4.83-3.9-8.43-8.8-8.27-4.59.15-7.99,3.75-7.89,8.38.1,4.71,3.85,8.26,8.56,8.11,4.63-.15,8.19-3.75,8.12-8.22ZM149.19,264.65c-.02-4.38-3.58-7.98-7.92-8-4.65-.03-8.62,3.72-8.63,8.15,0,4.62,3.71,8.32,8.38,8.34,4.59.02,8.19-3.72,8.17-8.49ZM292.26,266.54c-.03-4.28-4.02-8.03-8.43-7.94-4.52.09-8.13,3.75-8.11,8.23.02,4.57,3.61,8.29,8.01,8.31,4.73.01,8.57-3.86,8.53-8.59ZM141.58,303.62c4.38,0,8.01-3.83,7.92-8.34-.09-4.61-3.61-8.19-8.08-8.25-4.55-.05-8.27,3.69-8.32,8.37-.04,4.47,3.83,8.23,8.47,8.22ZM284.87,387.61c-4.7.05-8.36,3.53-8.33,7.94.03,4.71,3.69,8.44,8.28,8.45,4.73,0,8.26-3.56,8.27-8.37.01-4.5-3.65-8.07-8.22-8.03ZM400.62,411.7c.02-4.62-3.66-8.09-8.55-8.07-4.49.01-7.9,3.38-7.98,7.88-.08,4.66,3.55,8.41,8.22,8.49,4.71.08,8.29-3.49,8.3-8.3ZM248.42,290.54c4.68.07,8.46-3.56,8.52-8.17.06-4.48-3.49-8.09-8.08-8.21-4.73-.13-8.37,3.37-8.46,8.13-.08,4.46,3.54,8.19,8.02,8.26ZM463.16,127.18c-7.25-4.35-13.93-5.03-20.91-3.42-6.61,1.53-6.62,1.63-3.65,7.48.34.67.74,1.31,1.18,2.08,5.1-1.49,10.13-2.23,15.26-.55.65.21,1.74-.22,2.36-.69,1.82-1.39,3.5-2.95,5.76-4.9ZM36.06,372.64c6.02,3.27,11.79,4.06,17.79,3.36,8.05-.95,8.92-2.77,4.79-9.72-.1-.17-.34-.25-.52-.38-4.76.64-9.51.61-14.26.67-.9.01-2.02.19-2.64.74-1.7,1.51-3.2,3.26-5.16,5.33ZM438.31,369.39c8.71,2.8,16.74,2.38,25.18-1.68-1.83-2.07-3.23-3.89-4.9-5.42-.71-.65-1.99-.92-3.01-.91-4.01.04-8.03.21-12.03.45-.82.05-2.01.37-2.33.95-1.09,1.98-1.86,4.14-2.91,6.61ZM36.35,316.75c8.46,4.03,16.24,4.75,24.61,1.62-.89-2.04-1.62-3.5-2.19-5.04-.8-2.19-1.97-2.78-4.48-2.42-3.07.44-6.28-.21-9.44-.28-1.1-.03-2.55-.14-3.26.46-1.79,1.53-3.25,3.45-5.25,5.66ZM376.11,62.97c8.24-3.34,15.41-2.01,22.6,1.65.52-2.6,1.14-4.51,1.2-6.43.03-.94-.81-2.5-1.6-2.76-5.91-1.97-11.99-2.67-18.12-1.17-1.04.26-2.23,1.35-2.66,2.36-.7,1.65-.84,3.54-1.42,6.36ZM375.55,220.79c-1.91,3.07-3.87,6.19-5.8,9.34-2.85,4.63-2.55,7.78,1.36,12.47,3.62-5.54,7.2-11,10.54-16.1-2.17-2.03-4.02-3.77-6.09-5.71ZM399,272.39c-3.54-5.5-6.54-10.29-9.71-14.98-.57-.84-2.01-1.83-2.76-1.64-.84.22-1.72,1.62-1.94,2.65-1.17,5.28,1.3,9.6,4.06,13.75.29.43,1.15.69,1.73.67,2.6-.07,5.19-.27,8.62-.46ZM120.31,392.49c3.7-3.45,6.91-6.38,10.01-9.42.52-.51.91-1.7.68-2.32-.91-2.47-2.09-4.84-3.15-7.23-3.7,3.47-7,6.49-10.17,9.64-.53.53-.86,1.79-.62,2.47.74,2.03,1.82,3.93,3.25,6.87ZM78.06,270.69c7.03-1.01,8.73-3.04,7.63-8.89-1.18-6.33-2.52-7.08-9.65-5.46.67,4.72,1.33,9.44,2.02,14.35ZM308.67,170.05c-2.84.48-5.21.77-7.54,1.29-7.76,1.72-7.99,2.22-4.74,9.25.08.17.34.25.46.34,4.14-1,8.24-1.99,12.56-3.03-.23-2.51-.46-4.87-.73-7.85ZM424.33,241.29c-.99-3.27-2.2-6.73-3.07-10.27-.64-2.61-1.89-3.18-4.21-2.11-1.09.5-2.36.72-3.3,1.41-.6.44-1.14,1.59-1,2.29,1.58,8.31,2.45,9.01,10.83,9.25.08,0,.17-.12.75-.57ZM165.39,325.73c.39-3.43.68-5.98.98-8.65-4.03-.34-7.69-.64-11.62-.97-.7,1.62-1.39,3.33-2.15,5-.78,1.72-.27,2.76,1.57,3.03,3.62.55,7.24,1.03,11.22,1.59ZM114.87,179.29c4.8.31,9.35.63,13.91.85.49.02,1.27-.47,1.48-.93.8-1.73,1.41-3.54,2.26-5.76-4.58,0-8.57-.1-12.56.03-4.92.15-5.18.52-5.09,5.81ZM346.11,175.92c-4.33-.72-8.04-1.41-11.78-1.87-.59-.07-1.77.86-1.9,1.48-.43,2.09-.51,4.26-.74,6.53,3.96.53,7.6,1.01,11.4,1.52.92-2.33,1.79-4.54,3.03-7.66ZM126.81,246.69c1.23-2.77,2.18-4.82,3.05-6.9.76-1.81-2.4-8.85-4.27-9.45-.45-.14-1.09-.02-1.53.2-1.36.68-2.85,1.28-3.93,2.29-.61.57-1.02,2.21-.64,2.84,2.13,3.53,4.54,6.89,7.32,11.02ZM152.12,174.71c.95,2.73,1.51,4.71,2.35,6.57.27.6,1.27,1.21,1.96,1.24,3.14.13,6.3.06,9.71.06-.23-2.67-.33-4.93-.68-7.16-.08-.53-1-1.33-1.51-1.32-3.77.1-7.53.37-11.83.61ZM189.77,134.45c3.43-.69,6.67-1.16,9.77-2.09.86-.26,2.07-2.13,1.84-2.83-1.25-3.75-2.91-7.36-4.66-11.58-2.52,6-4.68,11.12-6.95,16.51ZM196.07,381.06c.28.1.57.19.85.29,1.41-3.27,3.03-6.48,4.08-9.86.3-.97-.77-3.2-1.71-3.55-3.02-1.13-6.26-1.66-9.72-2.49,2.25,5.42,4.37,10.51,6.49,15.61ZM308.4,365.65c-4.28,1-8.17,1.91-12.69,2.97,1.98,4.55,3.8,8.73,5.87,13.51,2.47-5.96,4.59-11.09,6.82-16.48ZM295.65,131.92c4.73.94,8.74,1.74,12.66,2.51-2.18-5.18-4.34-10.28-6.78-16.07-2.04,4.71-3.88,8.96-5.88,13.56ZM411.23,214.9c4.05-4.29,3.71-5.99-2.28-10.62-2.13,2.53-4.26,5.06-6.41,7.61,3.18,1.1,5.93,2.05,8.69,3.01ZM83.88,283.31c-.44,2.15-1.6,4.29-.97,5.48,1.11,2.1,3.32,3.63,5.24,5.57,1.66-2.62,3.21-5.07,4.94-7.79-1.67-.5-3.02-.86-4.33-1.32-1.32-.46-2.61-1.03-4.87-1.94ZM86.33,203.08c-.45,2.32-.83,4.11-1.16,5.92-.38,2.09,1.74,4.9,3.51,4.46,2.48-.61,4.89-1.5,7.81-2.43-3.56-2.79-6.74-5.27-10.17-7.95ZM410.59,145.29c-2.16,2.64-4.03,4.92-5.9,7.19,4.59-.26,9.04,1.94,13.94-.72-2.97-2.39-5.31-4.27-8.05-6.48ZM410.91,354.27c2.08-1.54,3.87-2.77,5.54-4.15.6-.5,1.42-1.64,1.23-2.02-.38-.74-1.4-1.63-2.16-1.63-3.29,0-6.59.29-10.62.52,2.25,2.72,4.01,4.86,6.02,7.29ZM87.21,354.33c1.74-2.61,3.16-4.73,4.85-7.25-3.49-.25-6.3-.54-9.12-.61-.74-.02-1.84.5-2.14,1.1-.24.49.25,1.68.78,2.16,1.67,1.54,3.51,2.89,5.63,4.6ZM398.94,434.99c-1.99,1.27-3.83,1.85-4.56,3.08-.72,1.22-1,3.82-.25,4.54,1.15,1.11,3.33,1.29,5.12,1.45.29.03,1.15-2.14,1.08-3.25-.12-1.78-.8-3.53-1.38-5.82ZM80.28,151.57c.11.38.22.76.34,1.13h11.84c-2.09-2.55-3.66-4.46-5.44-6.64-2.45,2-4.59,3.75-6.73,5.5ZM414.45,286.67c-3.69-6.91-5.16-7.05-9.62-1.73,3.02.54,5.91,1.06,9.62,1.73Z"/>
</svg>