<?xml version="1.0" encoding="UTF-8"?>
<svg id="Layer_1" data-name="Layer 1" xmlns="http://www.w3.org/2000/svg" viewBox="0 0 311 311.02">
  <defs>
    <style>
      .cls-1 {
        fill: #b7c7b5;
        stroke-width: 0px;
      }
    </style>
  </defs>
  <path class="cls-1" d="M311,311.02H0V.13C.68.1,1.27.04,1.87.04,104.14.04,206.42.04,308.7,0c1.77,0,2.3.39,2.3,2.25-.03,101.6-.01,203.21,0,304.81,0,1.28,0,2.56,0,3.96ZM107.26,216.78c-.4.17-.72.27-1.02.42-6.15,3.26-9.74,8.54-11.27,15.13-2.3,9.93-.12,18.75,7.62,25.72,3.5,3.15,7.85,4.67,12.52,5.09,1.12.1,2.6.57,3.06-1.43.5-2.17,1.18-4.34,2.12-6.35,1.9-4.01,4.05-7.9,6.06-11.86,1.63-3.21,3.91-4.57,7.46-4.09,1.6.22,3.22.7,4.7,1.34,3.19,1.37,6.29,2.93,9.53,4.46.25-1.39.5-2.76.83-4.53-7.41-2.27-10.35-8.28-12.35-15.07-.52-1.77-1.39-3.28-3.62-3.31-2.19-.03-3.23,1.35-3.81,3.12-2.87,8.77-7.75,16.56-11.92,24.7-.99,1.94-2.05,3.88-3.3,5.66-.41.59-1.61,1.1-2.3.94-2.78-.62-5.2-1.96-7.1-4.19-8.5-10.01-5.01-27.79,5.78-31.3-1.01-1.5-1.99-2.94-3.01-4.44ZM161.77,65.8c-1.03,4.41-1.13,4.61,2.67,6.45,3.46,1.67,5.56,4.25,6.77,7.77.49,1.42,1.12,2.79,1.73,4.16.87,1.96,1.36,4.33,4.25,4.31,2.88-.02,3.44-2.34,4.19-4.36,3.5-9.4,8.61-17.99,13.42-26.72.36-.66.71-1.41,1.27-1.84.62-.48,1.69-1.08,2.21-.85,2.21.99,4.73,1.85,6.34,3.53,9.61,9.97,5.82,27.59-4.7,31.86.84,1.41,1.66,2.8,2.47,4.16,2.77-.68,5.07-2.19,7.13-4.67,3.6-4.35,5.53-9.39,6.12-14.96,1.41-13.47-7.8-25.02-21.15-26.51-.9-.1-1.84.13-2.32.17-.58,2.34-.74,4.44-1.6,6.2-2.18,4.48-4.68,8.81-7.05,13.2-1.88,3.5-4.62,4.88-8.51,3.91-2.24-.56-4.4-1.47-6.52-2.4-2.29-1.01-4.48-2.24-6.74-3.39ZM118.99,48.12c-7.49-.32-13.58,1.8-18.31,6.98-6.85,7.5-8.22,16.34-5.03,25.8,2.01,5.95,5.38,10.96,11.73,13.29,1.03-1.62,1.9-2.99,2.55-4.02-1.99-1.6-4.13-2.81-5.56-4.6-3.51-4.36-5.26-9.47-4.59-15.11.8-6.66,3.12-12.5,9.93-15.32,3.35-1.39,3.44-1.39,5.21,1.75,5.22,9.29,10.5,18.55,14.24,28.59.64,1.72,1.61,2.97,3.7,2.96,2.08-.01,3.02-1.26,3.7-2.96,1.03-2.53,1.89-5.17,3.24-7.52,1.01-1.76,2.52-3.34,4.09-4.66,1.48-1.25,3.33-2.07,4.97-3.06-.31-1.53-.58-2.88-.89-4.41-1.01.53-1.83,1.01-2.7,1.4-3.18,1.42-6.28,3.07-9.57,4.13-4.49,1.45-7.28.07-9.45-4.1-1.9-3.63-3.65-7.35-5.68-10.9-1.39-2.44-2.62-4.8-1.57-8.24ZM254.06,241.22c.96,0,2.32.09,3.66-.05.43-.04,1.12-.67,1.13-1.05.08-2.16.36-4.4-.12-6.46-1.24-5.26-.38-7.43,4.43-10,1.05-.56,2.17-1.3,2.8-2.25,1.98-3.01,2.3-6.35,1.38-9.83-.37-1.38-1.04-1.87-2.51-1.52-3.59.86-7.24.93-10.7-.4-4.06-1.56-8.2-2.02-12.47-1.66-1.62.14-2.6-.46-3.51-1.82-5.03-7.59-9.89-15.24-12.7-24.01-.53-1.66-1.52-2.84-3.52-2.88-2.05-.04-3.15,1.07-3.83,2.79-.83,2.09-1.71,4.17-2.41,6.31-1.15,3.55-3.28,6.16-6.58,7.99-2.99,1.65-3.09,2.35-1.86,5.99.68-.3,1.37-.55,1.99-.9,2.61-1.48,5.16-3.09,7.82-4.48,4.8-2.49,8.72-1.35,11.51,3.21,2.31,3.79,4.67,7.55,6.89,11.4.93,1.61,2.05,2.23,3.95,2.2,7.8-.11,15.61-.05,23.53-.05.04,1.79-1.06,3.3-2.52,4.57-1.34,1.16-2.8,2.18-4.19,3.28-2.38,1.88-3.44,4.3-3.14,7.37.38,3.9.64,7.81.99,12.25ZM100.87,219.03c-2.06-1.64-3.02-1.6-4.59.32-.86,1.05-1.66,2.17-2.42,3.3-3.3,4.9-9.57,4.65-12.54-.48-2.33-4.02-4.67-8.03-7.13-11.97-.53-.85-1.52-1.94-2.35-1.98-4.88-.22-9.83-.99-14.59.93-3.57,1.44-7.29,1.82-11.07,1.24-1.58-.24-2.25.38-2.72,1.72-1.75,4.92-.02,9.73,4.52,12.41,4.05,2.39,4.8,4.82,3.49,9.26-.6,2.03-.51,4.29-.56,6.44-.01.46.69,1.28,1.13,1.33,1.44.17,2.92.06,4.02.06.19-3.28-.05-6.35.64-9.2,1.25-5.14-.16-8.85-4.42-11.91-1.94-1.39-3.4-3.48-4.98-5.34-.4-.48-.43-1.28-.75-2.36,5.73,2.01,11.1,1.36,16.47.85,1.56-.15,3.14-.07,4.71-.15,1.43-.07,2.45.48,3.24,1.69,4.33,6.63,8.78,13.2,11.6,20.68.6,1.59,1.23,3.21,2.14,4.64,1.45,2.27,4.64,2.15,5.9-.22.89-1.67,1.69-3.48,2.09-5.32,1.3-5.93,3.54-11.33,8.06-15.57.08-.08.07-.25.09-.38ZM265.73,151.06c1.04.47,2,.71,2.73,1.27,1.64,1.26,3.01,1.01,4.79.06,5.34-2.83,12.54-1.04,16.23,3.79,6.09,7.95,5.62,23.35-.96,30.94-1.76,2.03-4.01,3.28-6.68,3.69-5.58.85-10.2-1.15-14.18-4.89-1.84-1.73-3.51-3.65-5.42-5.3-2.23-1.92-5.28-1.33-6.67,1.1-1.24,2.16-.52,3.55,1.79,4.18,1.66.46,3.31,1.22,4.73,2.2,2.02,1.39,3.75,3.18,5.72,4.65,9.06,6.76,21.33,4.28,27.18-5.39,4.05-6.7,4.86-14.01,3.92-21.56-1.02-8.2-4.67-14.81-12.4-18.57-6.88-3.35-16.21-1.69-20.78,3.82ZM47.06,97.68c-.2-.21-.41-.43-.61-.64,1.17-1.53,2.21-3.17,3.54-4.54,1.32-1.36,2.95-2.43,4.41-3.67,1.82-1.55,2.87-3.54,2.73-5.93-.27-4.44-.71-8.88-1.1-13.63-.64,0-1.66.1-2.66-.02-1.59-.2-2.38.53-2.35,2,.04,2.01-.06,4.12.49,6.02,1.34,4.62.66,6.84-3.43,9.29-4.81,2.88-6.54,7.37-5,12.71.42,1.47,1.09,1.8,2.64,1.67,2.9-.24,5.84-.24,8.75-.07,2.19.13,3.75,1.46,4.67,3.52.95,2.12,1.96,4.21,2.96,6.31.8,1.68,1.81,3.09,3.97,2.96,2.06-.12,2.88-1.56,3.53-3.23.93-2.35,1.95-4.66,2.82-7.03,1.09-2.94,2.89-5.34,5.61-6.83,3.94-2.16,8.03-4.05,12.03-6.1,1.38-.71,2.7-1.56,4.04-2.35-.08-.26-.16-.51-.24-.77-.75-.13-1.5-.37-2.25-.38-6.69-.08-12.39,2.6-17.42,6.71-4.07,3.32-8.48,4.19-13.6,3.44-3.33-.49-6.79-.23-10.18-.17-1.12.02-2.22.48-3.33.73ZM64.15,155.41c-.02-.2-.05-.41-.07-.61-.42-.18-.83-.45-1.27-.52-4.22-.73-8.43-1.68-12.69-2.07-6.41-.6-10.36-3.64-11.98-9.87-1.7-6.5-.17-12.45,3.27-18.02,1.08-1.74,2.8-2.54,4.8-2.79,2.69-.33,4.92.55,6.92,2.37,1.88,1.7,3.93,3.2,6.13,4.97.12-2.09.24-3.56.25-5.04,0-.41-.18-.98-.49-1.22-3.28-2.53-5.02-6.05-6.46-9.8-.19-.5-.68-1.15-1.13-1.25-2.9-.64-5.83-1.14-8.44-1.63-2.52,4.89-5.2,9.73-7.53,14.72-1.37,2.93-2.75,6.04-3.19,9.2-1.79,12.65,5.94,25.75,21.83,23.76,3.39-.42,6.71-1.44,10.05-2.19ZM105.98,264.45c2.29,1.31,4.52,2.43,6.59,3.79,2.75,1.79,5.22,4.05,8.1,5.56,2.72,1.43,5.76,2.79,8.76,3.06,8.21.76,15.02-4.14,17.87-12.17.39-1.09.76-2.2,1.13-3.29.24.05.47.11.71.16-.16,1.01-.2,2.06-.5,3.02-1.75,5.55-5.14,9.72-10.41,12.31-.66.32-1.43.92-1.64,1.56-.56,1.67-.96,3.43-1.22,5.18-.32,2.21,1.72,4.72,4.07,5.07.14-1.7.3-3.39.41-5.08.19-2.83,1.63-4.86,3.93-6.38,2.58-1.7,4.55-3.69,5.58-6.48,1.23-3.32,2.29-6.73,3.04-10.18.59-2.77-.1-5.39-2.31-7.49-.92-.88-1.76-2.04-2.18-3.23-1.3-3.66-5.37-6.89-9.61-7.2.63,1.07,1.22,2.05,1.78,3.03,2.46,4.26,3.64,8.82,3.13,13.76-.86,8.23-7.39,13.33-15.34,11.68-2.2-.45-4.2-1.84-6.3-2.79-3.14-1.44-6.22-3.07-9.45-4.26-1.92-.7-4.1-.68-6.14.37ZM38.68,115.7c.34-.78.65-1.45.92-2.13q1.13-2.82-1.76-3.86c-7.87-2.82-17.23.44-21.78,8.27-6.94,11.93-6.53,24.16.16,36.06,3.05,5.43,8.21,8.31,14.38,9.1,5.4.69,10.15-1.03,14.72-4.37-1.77-.86-3.18-1.65-4.68-2.23-.72-.28-1.71-.45-2.37-.17-7.54,3.13-15.02.58-18.45-6.8-3.97-8.51-4.25-17.36-.71-26.08,3.45-8.5,10.75-11.34,19.57-7.8ZM106.51,47.14c2.12.78,4.65.76,6.97-.28,3.22-1.45,6.43-3.01,9.37-4.94,8.56-5.63,19.31-.66,20.4,9.53.54,5.03-.63,9.63-3.09,13.96-.58,1.01-1.16,2.02-1.75,3.03.13.12.27.23.4.35,1.52-.74,3-1.6,4.58-2.18,2.83-1.02,4.16-3.09,4.72-5.9.14-.7.43-1.58.95-1.95,4.17-2.94,4.24-6.83,2.8-11.14-1.09-3.24-2.33-6.44-3.14-9.75-.36-1.47-.89-2.17-2.23-2.71-4.53-1.82-7.01-5.05-6.62-10.14.07-.97-.09-1.96-.15-3.02-3.35,1.31-4.52,3.31-3.92,6.38.21,1.07.59,2.12.7,3.2.15,1.55.95,2.35,2.32,3.01,5.44,2.64,8.74,7.07,10.25,12.87.18.68.02,1.45.02,2.17-.18.03-.36.05-.54.08-.32-1-.64-2-.98-2.99-3.98-11.65-16.43-16.07-26.75-9.39-4.88,3.16-9.61,6.57-14.32,9.81ZM171.34,242.82c-.11-.11-.22-.23-.33-.34-1.34.63-2.65,1.37-4.03,1.88-2.74,1.01-4.27,2.88-4.94,5.73-.25,1.07-1.13,2.12-1.97,2.91-1.59,1.51-2.52,3.29-2.47,5.43.04,1.75.28,3.55.75,5.24.88,3.15,2.14,6.2,2.94,9.37.35,1.39.73,2.22,2.15,2.74,4.68,1.71,7.22,4.96,6.86,10.15-.07.96.15,1.93.25,3,3.64-1.59,4.51-3.28,3.7-6.68-.21-.86-.54-1.73-.56-2.6-.04-1.59-.87-2.38-2.24-3.03-5.53-2.65-8.86-7.12-10.36-13-.18-.71-.12-1.48-.17-2.22.21-.04.42-.08.63-.11.42,1.23.82,2.46,1.25,3.69,3.73,10.61,15.54,15.27,25,9.63,5.39-3.22,10.49-6.93,16-10.61-2.02,0-4.04-.25-5.97.05-3.78.59-7.05,2.42-10.16,4.63-8.79,6.24-19.18,1.82-20.83-8.83-.73-4.69.25-9.1,2.42-13.28.66-1.27,1.37-2.5,2.06-3.75ZM203.96,47.46c.03-.32.06-.63.08-.95-4.44-.91-7.61-3.89-11.03-6.48-1.03-.78-2.07-1.57-3.15-2.29-10.69-7.25-23.83-2.51-27.47,9.87-.19.66-.48,1.29-.72,1.94-.18-.04-.37-.07-.55-.11,0-.67-.14-1.38.02-2,1.58-6.04,5.17-10.43,10.85-13.13.72-.34,1.55-1,1.78-1.7.53-1.61.8-3.32,1.05-5,.31-2.13-1.87-4.72-4.17-4.91-.12,1.63-.25,3.25-.36,4.88-.18,2.74-1.48,4.76-3.83,6.17-1.68,1.01-5.09,4.76-5.74,6.6-1.14,3.21-2.27,6.44-3.04,9.74-.66,2.84-.14,5.53,2.27,7.66.89.79,1.46,2.01,2.01,3.11.72,1.44.88,3.5,1.99,4.34,2.17,1.63,4.83,2.59,7.29,3.83-.41-1.63-1.14-2.84-1.8-4.1-2.59-4.96-3.67-10.15-2.11-15.65,1.93-6.82,7.45-10.56,14.28-9.3,2.39.44,4.58,1.93,6.85,2.99,3.2,1.48,6.29,3.27,9.6,4.4,1.77.6,3.91.11,5.88.11ZM263.13,97.83c-1.8-.38-3.38-1.01-4.97-1-3.87.02-7.77.15-11.62.56-4.88.53-9-.69-12.52-4.16-1.55-1.52-3.25-3.03-5.15-4.01-1.94-1-4.2-1.81-6.35-1.87-4.33-.13-6.39,3.72-4.4,7.58.69,1.35,1.61,1.93,3.13,1.51,3.02-.83,5.83-.14,8.47,1.34,1.9,1.07,3.72,2.3,5.58,3.43.7.42,1.41,1.02,2.16,1.11,4.8.6,9.63,1.53,14.36-.37,4.04-1.62,8.15-2.16,12.45-1.21.54.12,1.52-.25,1.82-.7,2.65-4.08.86-10.84-3.41-13.17-4.51-2.46-5.43-5.06-4.09-10.01.51-1.89.26-3.99.21-5.99-.01-.4-.68-1.08-1.1-1.13-1.37-.14-2.77-.05-3.64-.05-.37,4.21-.61,7.92-1.04,11.6-.4,3.45.66,6.16,3.48,8.2,1.33.96,2.64,1.95,3.87,3.02,1.51,1.32,2.75,2.85,2.75,5.31ZM52.44,173.49c1.09,1.87,2.67,2.9,4.56,2.97,4.29.17,8.58.09,12.87.08,1.89,0,3.16-1,4.11-2.59,2.48-4.17,5.02-8.3,7.55-12.44,2.86-4.68,9.3-4.69,12.23-.04,1.27,2.02,2.57,4.03,3.92,6,1.66,2.43,4.54,3.24,7.58,2.14-.27-.4-.52-.8-.79-1.18-5.21-7.07-9.9-14.42-12.57-22.89-.2-.65-.52-1.27-.85-1.86-1.42-2.54-4.86-2.57-6.35-.04-.55.94-1.04,1.94-1.39,2.97-2.63,7.72-7.23,14.37-11.37,21.28-1.66,2.78-3.66,4.01-6.95,3.71-4.22-.38-8.46-.23-12.54,1.89ZM256.6,136.8c-1.58-2-3.58-3.02-6.03-3.09-2.39-.07-4.79-.13-7.17.02-2.55.16-4.26-.82-5.57-2.99-4.27-7.07-8.94-13.93-11.53-21.89-.27-.84-.69-1.64-1.08-2.44-.71-1.48-1.6-2.69-3.52-2.64-1.9.05-3.12,1.05-3.72,2.71-2.45,6.78-5.62,13.19-9.64,19.18-.31.46-.4,1.4-.13,1.84.74,1.19,1.72,2.23,2.76,3.52,1.33-2.22,2.59-4.16,3.67-6.2,1.48-2.78,3.41-4.7,6.82-4.73,3.5-.04,5.46,1.91,7.02,4.75,2.2,4.01,4.59,7.92,6.84,11.91.77,1.37,1.77,2.11,3.39,2.21,6.02.38,12,.55,17.88-2.18ZM98.8,130.79c.67-.81,1.06-1.28,1.44-1.76,2.02-2.59,1.86-2.5.34-5.32-2.5-4.61-4.79-9.33-7.12-14.02-.61-1.22-1.02-2.53-1.57-3.78-.64-1.46-1.57-2.5-3.37-2.53-1.83-.02-2.95.84-3.62,2.46-.1.25-.24.49-.33.75-2.94,8-7.17,15.3-11.68,22.5-1.83,2.92-3.84,4.23-7.26,3.96-2.43-.19-4.92,0-7.35.32-1.82.24-3.57.96-4.2,3.04,4.46,2.1,8.73,2.56,16.72,2,1.74-.12,2.88-.77,3.76-2.31,2.47-4.33,5.15-8.54,7.6-12.88,2.78-4.93,10.33-4.39,12.32.08,1.13,2.52,2.75,4.83,4.3,7.51ZM199.58,221.39c5.99,2.1,8.37,6.93,9.77,12.27.68,2.57.68,5.42.47,8.11-.33,4.35-2.34,8.13-5.1,11.43-3.18,3.8-8.43,4.84-13.5,3.19-2.14-.7-4.48-1.2-6.7-1.14-2.3.07-4.02,2.11-4.38,4.26-.33,2.02.39,3.64,2.1,4.75,1.99,1.29,4.1,1.28,5.94-.11,1.39-1.05,2.79-1.22,4.4-1.11,3.99.28,7.74-.6,11.21-2.59,14.62-8.4,16.04-30.97,2.59-41.26-1.16-.89-2.48-1.58-3.81-2.41-1.06,1.62-1.94,2.98-3,4.6ZM146.01,164.42c-1.38-2.24-2.92-4.35-4.05-6.66-1.88-3.86-3.5-7.85-5.21-11.79-.72-1.67-1.7-2.93-3.76-2.93-2.06,0-3.15,1.23-3.74,2.94-2.8,8.17-7.48,15.28-12.14,22.45-1.63,2.51-3.49,3.61-6.35,3.41-2.66-.19-5.32-.24-7.98-.44-1.32-.1-2.27-.01-2.31,1.66-.02.64-.36,1.28-.58,2.01,5.64,2.21,11.4,2.3,17.21,1.73.7-.07,1.5-.9,1.93-1.58,2.57-4.11,5.04-8.28,7.54-12.43,2.96-4.94,9.68-4.89,12.57.1,1.05,1.82,2.13,3.61,3.26,5.52,1.32-1.45,2.45-2.7,3.61-3.97ZM209.04,172.35c-3.93,0-7.68-.1-11.41.04-2.11.08-3.43-.74-4.53-2.46-4.82-7.53-9.93-14.9-12.75-23.53-.17-.52-.43-1-.69-1.48-.73-1.34-1.87-1.88-3.39-1.83-1.98.07-2.8,1.41-3.51,2.97-2.14,4.72-4.1,9.53-6.53,14.09-2.16,4.06-2.4,3.93.83,7.32.04.04.12.06.44.22.98-1.65,1.92-3.37,2.98-5.01,2.98-4.63,9.38-4.53,12.2.15,2.58,4.27,5.12,8.56,7.82,12.75.56.86,1.71,1.89,2.6,1.89,4.35.03,8.71-.17,13.05-.49,1.73-.13,3.73-.47,2.77-3.2-.16-.46.09-1.07.13-1.44ZM228.45,112.23c.26.05.53.11.79.16.21-.16.44-.31.64-.48,3.85-3.23,5.91-3.03,9.06.87.17.21.33.43.51.64,2.6,3.16,4.96,3.3,7.97.49.5-.47.96-.97,1.45-1.44,2.77-2.65,5.13-2.57,7.72.27.46.5.9,1.03,1.31,1.58,1.96,2.63,4.29,4.72,7.49,5.78,2.68.89,4.23,2.94,4.93,5.6,1.14,4.33.38,8.37-1.91,12.2-1.12,1.87-2.22,3.77-3.04,5.78-.45,1.12-.31,2.48-.43,3.73.19.03.38.05.57.08,2.62-3.98,5.42-7.86,7.79-11.98,1.16-2.01,1.84-4.43,2.19-6.75.8-5.23-1.5-10.04-5.95-12.22-4.3-2.1-7.96-4.87-11.33-8.27-3.75-3.79-8.35-4.65-13.39-2.46-.57.25-1.48.24-2.03-.04-5.76-2.93-10.3-1.82-13.9,3.64-.48.72-.31,1.87-.44,2.83ZM257,271.87c.25-.03.5-.05.75-.08.46-1.4.85-2.82,1.39-4.19,1.78-4.51,1.49-8.71-1.27-12.85-3.95-5.93-7.24-12.22-9.28-19.1-.1-.33-.18-.74-.41-.92-1.08-.83-2.18-2.17-3.32-2.22-1.14-.05-2.7.97-3.42,1.99-1.07,1.53-1.69,3.42-2.29,5.23-1.54,4.68-4.21,8.53-8.07,11.6-1.65,1.32-3.24,2.75-4.64,4.33-.55.63-.51,1.78-.73,2.7.99.16,2.14.72,2.93.39,1.55-.63,2.98-1.65,4.32-2.69,2.05-1.59,3.9-3.44,5.97-4.99,3.69-2.77,8.62-2.09,11.56,1.44,3.33,4,5.51,8.39,5.34,13.81-.06,1.84.74,3.7,1.15,5.55ZM54.09,39.64l-.66.1c-2.82,5.45-4.93,10.8-.72,16.78,3.78,5.37,6.81,11.2,8.63,17.58.24.84.69,1.64,1.18,2.38,1.51,2.28,4.72,2.25,6.13-.1.66-1.1,1.14-2.33,1.6-3.54,2.07-5.44,5.02-10.29,9.3-14.3,1.54-1.45,3.03-2.98,4.35-4.62.44-.54.66-1.96.33-2.26-.54-.49-1.84-.8-2.42-.48-1.77.99-3.41,2.25-4.99,3.53-2.02,1.63-3.85,3.49-5.9,5.07-3.15,2.43-8.25,1.89-10.78-1.15-3.3-3.97-5.82-8.2-5.14-13.77.21-1.68-.58-3.48-.92-5.23ZM256.2,39.49c-.3,2.52-.82,4.57-.74,6.58.19,4.4-1.19,8.13-3.85,11.57-3.61,4.66-7.8,5.81-13.29,3.39-4.5-1.98-9-3.96-13.5-5.92-.4-.18-.86-.24-1.46-.4-.04,2.16,1.07,3.61,2.46,4.62,2.53,1.83,5.32,3.3,7.87,5.11,1.33.95,2.68,2.13,3.47,3.53,1.44,2.55,2.44,5.33,3.66,8,.76,1.65,1.67,3.19,3.84,3.18,2.23-.01,3.36-1.47,3.92-3.32,2.2-7.34,6.05-13.85,9.92-20.38,2.65-4.47,1.71-11.34-2.3-15.97ZM52.46,271.69c.33.03.66.07,1,.1.35-1.8,1.07-3.61.98-5.39-.23-5.02,1.53-9.19,4.59-13.02,2.78-3.49,6.33-4.82,10.68-3.64,1.37.37,2.68,1.01,4,1.57,4.02,1.71,8.03,3.45,12.06,5.16.46.19.97.26,1.72.46-.41-2.57-1.93-4.05-3.67-5.22-2.26-1.52-4.63-2.9-7.03-4.2-1.9-1.03-3.19-2.49-4.07-4.43-1.35-2.99-2.68-5.99-4.22-8.88-1.31-2.45-4.55-2.5-6.07-.17-.62.96-.93,2.11-1.38,3.18-1.56,3.7-2.96,7.49-4.73,11.09-1.35,2.75-3.16,5.27-4.76,7.9-1.57,2.58-2.03,5.4-1.35,8.3.57,2.44,1.49,4.8,2.26,7.19ZM249.45,279.81c-4.2,1.22-5.65,5-3.83,8.71,1.46,2.97,1.01,3.97-2.31,4.76-3.87.93-7.72.56-11.58-.29-1.62-.36-3.3-1.62-4.94.1-.16.17-.8-.02-1.16-.16-1.14-.44-2.33-.84-3.38-1.45-7.12-4.12-8.94-13.53-4.14-21.23.37-.59.74-1.16,1.43-2.24-2.91.87-5.2,1.49-7.44,2.26-.47.16-.93.78-1.12,1.28-4.39,12.16,2.98,25.09,15.78,27.11,4.74.75,9.66.56,14.49.45,2.27-.05,4.52-.94,6.78-1.46,1.11-.26,1.49-.96,1.46-2.1-.07-2.73-.05-5.47-.05-8.2,0-2.43,0-4.87,0-7.56ZM60.92,280.36c0,4.76.1,9.53-.05,14.28-.07,2.06.76,2.94,2.6,3.44,8.08,2.2,16.19,1.92,24.01-.64,9.46-3.1,14.62-13.2,12.33-22.9-.98-4.18-4.2-6.38-8.65-5.89.73,1.4,1.54,2.75,2.17,4.17,3.69,8.38-.21,17.37-8.69,20.04-.53.17-1.45.31-1.66.04-.94-1.15-1.9-.68-2.97-.37-1.44.42-2.9.84-4.38,1.05-3.49.49-6.96.4-10.29-.94-1.49-.6-2.27-1.45-1.15-3.13.63-.95,1.16-2.04,1.42-3.15.71-3.13-1.42-6.01-4.7-6.01ZM218.86,43.13c-1.02-2.39-2.07-4.39-2.74-6.52-2.4-7.65,1.3-15.11,8.77-17.9.55-.2,1.53-.48,1.7-.25,1.27,1.63,2.6.64,3.88.22,3.69-1.21,7.43-1.74,11.3-1.07,4.77.82,5.38,1.87,3.36,6.23-1.54,3.33.95,7.66,4.29,7.09,0-3.67,0-7.4,0-11.14,0-6.57.03-6.78-6.54-7.47-3.89-.41-7.88.06-11.82,0-14.97-.19-24.83,13.34-19.9,27.43.19.56.71,1.22,1.23,1.4,2.04.73,4.14,1.28,6.45,1.97ZM285.27,261.5c.34.41.81.88,1.18,1.43,1.82,2.71,3.99,5.27,5.33,8.2,5.18,11.29-2.26,23.22-14.05,22.46-2.88-.18-5.68-1.7-8.52-2.59-.61-.19-1.43-.62-1.83-.39-1.43.83-2.72,1.9-4.48,3.19,2.19,1.28,3.88,2.42,5.69,3.31,12.62,6.2,27.37-.75,29.96-14.09,1.97-10.13-3.14-17.85-8.37-25.37-1.72,1.34-3.25,2.53-4.92,3.84ZM90.55,43.31c2.64-.77,4.69-1.27,6.66-2.01.7-.26,1.46-1,1.73-1.71,4.25-11-.94-22.34-12.28-25.96-6.05-1.94-12.46-2.04-18.81-1.43-1.54.15-3.03.77-4.56,1.13-1.64.39-2.27,1.32-2.22,3.06.11,4.23,0,8.47.01,12.71,0,.59.1,1.18.16,1.75,4.13-.2,5.88-4.52,3.56-8.33-1.51-2.48-1.13-3.52,1.7-4.42,3.62-1.15,7.27-.82,10.95-.23,2.09.34,4.14,2.06,6.38.37.14-.11.52.09.78.16,5.52,1.43,9.87,6.82,10.16,12.56.23,4.44-1.34,8.29-4.22,12.34ZM47.3,293.76c-.73-.54-1.36-.94-1.89-1.43-1.74-1.58-3.27-1.67-5.55-.5-5.93,3.05-12.01,2.86-17.3-1.48-5.35-4.39-6.32-10.31-4.49-16.75,1.14-4.02,3.48-7.39,6.28-10.45.53-.58,1.04-1.17,1.43-1.61-1.76-1.29-3.32-2.43-5.02-3.68-3.6,5.08-7.48,10.17-8.69,16.6-.99,5.25-.32,10.39,2.43,15.06,6.5,11.05,22.44,13.21,32.81,4.22ZM47.1,17.42c-.27-.31-.46-.61-.72-.8-7.14-5.16-14.84-6.66-22.97-2.83-7.98,3.76-11.6,10.47-11.6,19.18,0,8.04,4.56,14.12,8.87,20.29.05.07.25.02-.05,0,1.74-1.34,3.21-2.48,4.86-3.75-.31-.37-.83-.89-1.24-1.49-1.72-2.54-3.7-4.95-5.05-7.68-3.27-6.63-2.21-13.81,2.4-18.48,4.65-4.71,11.64-6.06,17.96-2.77,2.88,1.5,4.74,1.1,6.74-.96.23-.24.49-.45.8-.72ZM263.42,17.43c3.19,3.25,3.74,3.36,7.47,1.59,10.94-5.18,22.68,2.1,22.33,13.88-.16,5.48-2.83,9.89-6.23,13.95-.76.91-1.54,1.82-2.19,2.58,1.72,1.22,3.25,2.3,4.93,3.5,3.78-5.16,7.79-10.35,8.82-17.12,1.42-9.34-2.71-17.7-10.77-21.78-7.77-3.93-18.44-2.47-24.36,3.41ZM169.46,231.25c.7-1.75,1.37-3.02,1.7-4.37.2-.81.18-1.98-.28-2.58-5.24-6.82-9.52-14.15-12.33-22.31-.54-1.57-1.69-2.48-3.38-2.51-1.75-.03-2.99.78-3.59,2.48-2.9,8.2-7.41,15.49-12.59,22.42-.4.54-.74,1.42-.59,2.01.37,1.49,1.04,2.9,1.68,4.57.47-.52.76-.79.99-1.1,2.71-3.77,5.36-7.59,8.12-11.32,2.89-3.9,8.73-3.83,11.61.08.65.88,1.21,1.82,1.83,2.72,2.19,3.18,4.38,6.36,6.82,9.91ZM140.59,80.16c-2.67,4.38-2.66,4.68-.06,8.34.47.67.9,1.37,1.39,2.03,4.22,5.78,7.2,12.21,9.92,18.79.94,2.27,3.37,3.07,5.21,1.75.82-.59,1.48-1.64,1.82-2.62,2.81-8.02,7.17-15.16,12.17-21.96.37-.51.57-1.42.4-2.01-.41-1.42-1.1-2.77-1.78-4.42-.56.73-.98,1.24-1.36,1.78-2.34,3.36-4.65,6.75-7.02,10.09-3.35,4.72-9.12,4.68-12.46-.07-1.49-2.12-2.92-4.29-4.41-6.42-1.2-1.72-2.45-3.4-3.82-5.29ZM189.38,178.12c-.16.16-.33.32-.49.47,1.15,1.67,2.33,3.32,3.43,5.03,1.8,2.78,3.49,5.67,3.01,9.14-1.04,7.37-2.23,14.71-3.38,22.06-.17,1.1-.47,2.18-.81,3.68,5.34-3.66,6.97-8.94,8.3-14.84,2,4.03,1.86,8.32,4.62,11.66.23-.48.34-.65.39-.84.12-.46.21-.93.31-1.4,1.17-5.58,1.1-11.21-.23-16.68-1.45-5.95.24-10.89,3.63-15.56.83-1.14,1.71-2.24,2.56-3.36-5.26,1.02-8.22,4.92-11.31,8.88-2.73-3.72-5.86-6.65-10.03-8.24ZM118.65,218.14c-.3-1.31-.67-2.61-.88-3.94-.98-6.21-1.7-12.46-2.94-18.62-.87-4.34-.15-8.11,2.29-11.67.89-1.3,1.8-2.58,2.67-3.89.39-.59.69-1.23,1.03-1.85-4.67,1.29-7.87,4.3-10.52,8.22-3.03-4.31-6.22-7.94-11.28-9.25.34.78.82,1.42,1.32,2.04,4.35,5.33,7,11.1,4.74,18.16-.16.52-.19,1.08-.28,1.61-.91,5.44-.66,10.82.93,16.6,2.75-3.64,2.78-7.89,4.45-11.59,1.52,5.5,3.36,10.71,8.46,14.17ZM191,92.36c.39,1.82.74,3.05.92,4.31.86,6.02,1.29,12.13,2.64,18.03,1.15,5.01.01,9.14-2.67,13.17-.97,1.45-1.91,2.93-2.86,4.39,4.79-.94,7.58-4.37,10.38-7.76,6.99,7.65,8.5,8.83,11.2,8.61-.47-.59-.9-1.11-1.32-1.63-4.15-5.19-6.5-10.75-4.77-17.66.82-3.26.85-6.78.84-10.18,0-2.64-.62-5.28-.96-7.93-.22,0-.43,0-.65,0-2.55,3.36-2.49,7.73-4.23,11.56-1.42-5.62-2.91-11.11-8.53-14.91ZM118.67,92.12c-5.03,4.03-7.17,9.25-8.4,15.05-1.89-3.77-1.51-8.27-4.53-11.89-1.77,6.66-1.84,12.83-.48,19,.9,4.07.94,8.02-1.34,11.69-1.22,1.97-2.54,3.88-3.82,5.82-.3.46-.6.92-1.16,1.76,5.23-1.77,8.44-5.23,11.25-9.16,5.35,5.96,7.45,7.6,10.71,8.25-.45-.82-.76-1.45-1.14-2.04-1.08-1.66-2.25-3.27-3.26-4.97-1.92-3.23-2.5-6.59-1.74-10.41,1.49-7.49,2.57-15.06,3.91-23.12ZM239.73,169.94c-.56-.96-.9-1.6-1.3-2.22-4.7-7.23-9.26-14.53-11.99-22.8-.17-.52-.32-1.17-.71-1.46-.97-.73-2-1.64-3.12-1.84-2.14-.38-3.23,1.14-3.79,2.98-2.36,7.76-6.57,14.54-11.12,21.14-1.03,1.5-2.06,3-3.34,4.87,1.55-.1,2.69-.33,3.8-.21,1.84.21,2.88-.61,3.78-2.1,1.38-2.28,2.97-4.43,4.42-6.66,3.31-5.1,9.27-5.08,12.52.08,1.53,2.43,3,4.89,4.58,7.29.33.51.98,1.1,1.51,1.13,1.47.08,2.95-.11,4.76-.21ZM161.48,245.7c.7-.38,1.32-.76,1.98-1.08,3.19-1.54,6.29-3.33,9.61-4.55,5.21-1.92,8.42-.43,10.88,4.5,1.28,2.56,2.54,5.14,3.95,7.64,1.29,2.29,5.23,3.8,7.24,3.25-4.02-8.09-8.12-16.24-12.11-24.44-1.04-2.14-1.58-4.55-2.76-6.59-.57-.98-2.03-1.71-3.22-1.99-1.46-.35-2.59.64-3.18,2.03-.67,1.57-1.42,3.12-1.89,4.75-1.37,4.8-4.05,8.43-8.73,10.44-.62.27-1.22.66-1.69,1.14-.33.33-.62.9-.59,1.34.06,1.13.31,2.24.52,3.57ZM178.05,173.3c-2.04-.73-2.49.16-2.88,1.69-1.21,4.82-2.7,9.57-3.91,14.39-1.2,4.75-4.07,7.93-8.31,10.3-3.66,2.04-3.2,1.44-1.52,5.28.05.1.21.15.45.32,3.17-1.72,6.38-3.49,9.62-5.21,3.13-1.65,6.37-2.02,9.64-.47,1.6.76,3.09,1.73,4.64,2.6,1.94,1.1,3.89,2.19,5.88,3.31,1.35-4.22,1.36-4.42-2.06-6.47-2.81-1.69-4.75-3.93-5.93-7.02-2.32-6.11-5.32-12-5.62-18.7ZM150.38,201.23c-2.01-1.24-3.86-2.5-5.82-3.58-2.57-1.41-4.38-3.33-5.32-6.16-1.9-5.69-3.94-11.33-5.91-17-.32-.93-.41-2.12-2.04-1.59-.08.87-.18,1.74-.24,2.61-.38,5.45-3.17,10.12-4.82,15.16-1.12,3.44-3.19,5.91-6.23,7.79-3.14,1.94-3.27,2.65-1.77,6.54,2.64-1.6,5.3-3.1,7.84-4.77,3.9-2.57,7.89-2.84,12.02-.73,2.92,1.49,5.78,3.09,8.67,4.63.63.34,1.26.66,1.99,1.04.59-1.43,1.09-2.61,1.64-3.94ZM118.3,104.74c-1.38,4.26-1.22,4.43,2.18,6.59,1.74,1.11,3.89,2.34,4.67,4.06,2.92,6.44,5.98,12.9,6.57,20.14.05.57.39,1.11.59,1.66.21,0,.41-.02.62-.03.42-1.26.83-2.53,1.25-3.79,1.86-5.63,3.61-11.3,5.68-16.85.54-1.46,1.92-2.76,3.21-3.74,1.73-1.31,3.78-2.17,5.62-3.34.44-.28.94-1.08.84-1.51-.26-1.08-.85-2.08-1.35-3.22-3.22,1.57-6.22,3.03-9.21,4.5-4.38,2.15-8.67,1.96-12.93-.4-2.5-1.39-5.05-2.67-7.73-4.08ZM71.03,178.82c5.35,8.07,10.31,16.53,13.85,25.76.54,1.42,1.75,2,3.29,1.97,1.65-.04,2.69-.88,3.28-2.34,2.72-6.72,5.65-13.33,9.79-19.34.28-.41.4-1.26.16-1.64-.78-1.3-1.76-2.48-2.83-3.95-1.61,2.76-3,5.18-4.42,7.59-2.93,4.95-9.18,4.97-12.18.03-1.92-3.15-3.77-6.34-5.67-9.51-.37-.62-.8-1.2-1.06-1.58-1.42,1.02-2.65,1.9-4.2,3.01ZM294.35,151.32c.31-.39.52-.58.63-.81,5.43-11.3,5.47-22.52-1.28-33.22-5.66-8.98-16.9-11.21-25.98-5.67-.54.33-1,.79-1.69,1.33,2.9,1.53,5.05,3.06,8.56,1.81,5.84-2.09,11.84.57,14.93,5.99,4.64,8.13,4.9,16.6,1.48,25.27-.26.67-.33,1.78.05,2.26.87,1.1,2.07,1.95,3.3,3.04ZM177.38,290.08c-.34.16-.59.26-.82.39-7.34,4.33-13.56,3.8-20.08-1.82-1.07-.92-1.71-.86-2.71.1-3.95,3.82-8.7,5.41-14.09,4.2-2.48-.56-4.83-1.75-7.37-2.7-1.08,1.21-2.29,2.55-3.64,4.07,6.18,4.18,12.59,5.88,19.77,4.07,3.43-.86,10.03-.84,13.39-.04.33.08.66.16,1,.23,6.73,1.33,12.8-.2,18.58-4.12-1.44-1.57-2.72-2.96-4.02-4.38ZM155.32,23.54c6.95-6.94,14.55-7.64,22.69-2.52,1.35-1.46,2.58-2.78,3.82-4.11-.25-.28-.36-.45-.51-.58-.21-.18-.42-.35-.66-.49-7.5-4.45-15.27-5.26-23.25-1.43-1.52.73-2.67.74-4.18.03-1.89-.89-3.94-1.58-5.99-1.99-6.6-1.33-12.49.43-18.06,4.37,1.37,1.51,2.59,2.86,3.84,4.24,8.04-5.25,15.38-4.29,22.3,2.48ZM109.88,267.93c-1.13-.42-2.25-.88-3.39-1.24-1.95-.61-3.92-1.19-5.9-1.71-4.14-1.08-6.95-3.55-8.46-7.59-.64-1.72-1.52-3.36-2.45-4.95-.91-1.54-2.3-2.06-3.94-1.66,1.12,1.88,2.22,3.5,3.05,5.24.29.62.18,1.82-.26,2.26-.36.37-1.51.19-2.22-.03-1.53-.48-3-1.15-4.59-1.78-.52,1.15-1,1.98-1.28,2.88-1.51,4.72-4.98,7.17-9.55,8.36-1.26.33-2.52.63-3.79.9-6.08,1.3-5.14,1.71-5.62,6.03-.07.66.41,1.97.55,1.96,1-.09,2.23-.18,2.89-.8.52-.49.45-1.74.42-2.64-.03-.68-.41-1.35-.68-2.14.44,0,.65-.05.82,0,5.91,1.88,11.16.28,16.11-3,2.72-1.8,5.78-2.12,8.87-1.47,2.6.54,5.13,1.4,7.68,2.18,3.91,1.2,7.76,1.2,11.76-.81ZM187.71,131.22c.91-1.22,1.58-2.23,2.37-3.14.77-.88.67-1.63.05-2.54-3.97-5.92-7.26-12.18-9.57-18.95-.61-1.79-1.67-3.14-3.81-3.13-2.23.02-3.25,1.46-3.9,3.31-2.25,6.33-4.98,12.41-8.99,17.85-.31.43-.41,1.35-.16,1.79.71,1.26,1.65,2.39,2.68,3.8,1.55-2.56,2.85-4.79,4.23-6.98,3.06-4.83,9.26-4.79,12.28.06,1.57,2.54,3.11,5.1,4.83,7.91ZM55.33,19.91c-.98,5.02-2.71,9.89-1.43,15.12,1.24,5.05,3.04,9.79,6.41,13.94.31-2.62.64-5.23.25-7.73-1.36-8.77-1.1-17.58-1.09-26.39,0-.65-.07-1.31-.12-2.22-.86.3-1.56.41-2.09.75-4.75,3.07-9.56,6.06-14.16,9.34-2.24,1.59-2.59,4.23-1.48,6.43.92,1.81,2.9,2.78,4.98,2.45,2.43-.39,4.12-2.21,4.37-4.97.27-2.96,1.99-4.95,4.36-6.72ZM58.94,298.29c.56-12.16,1.1-24.07,1.65-35.97-.23-.12-.47-.25-.7-.37-.19.37-.34.76-.57,1.1-5.14,7.59-7.59,15.67-4.59,24.78.35,1.07.48,2.2.71,3.31-2.67-1.75-4.19-3.94-4.57-6.9-.35-2.67-2.11-4.45-4.38-4.76-2.09-.29-4.02.71-4.94,2.54-1.06,2.12-.64,4.82,1.42,6.5,4.83,3.93,10.09,7.2,15.96,9.78ZM251.46,298.32c1.52-.76,2.97-1.35,4.28-2.17,3.88-2.43,7.77-4.85,11.52-7.45,2.3-1.59,2.86-4.01,1.9-6.34-.79-1.95-2.8-3.14-4.93-2.93-2.35.23-4.01,1.88-4.59,4.56-.12.53-.17,1.09-.34,1.6-.71,2.24-1.94,4.09-4.24,5.27,1.05-5.02,2.65-9.87,1.49-15.07-1.12-5.04-2.78-9.73-6.73-13.48.54,11.88,1.08,23.75,1.63,36.01ZM254.66,20.23c.32-.05.64-.09.96-.14.58.63,1.38,1.17,1.71,1.92.88,1.96,1.6,4,2.31,6.04.7,2.03,2.41,3.46,4.51,3.62,2.11.16,3.73-.66,4.73-2.56,1.01-1.92.77-4.05-.72-5.71-.58-.66-1.27-1.25-1.99-1.75-2.58-1.8-5.13-3.64-7.8-5.28-2.24-1.37-4.64-2.47-6.95-3.67-.59,12.28-1.16,24.19-1.74,36.11.21.07.43.13.64.2.95-1.53,1.99-3.02,2.84-4.61,4.1-7.73,4.95-15.76,1.49-24.15ZM63.39,41.33c-.01.22-.02.44-.03.67,1.29.24,2.58.46,3.87.73,4.73.98,9.42,2,12.15,6.69.22.37,1.4.44,2.02.26,1.67-.48,3.01-.47,4.12,1.16,1.51,2.22-.21,3.38-1.37,4.73-1.61,1.88-1.21,3.81,1.04,4.88,1.8.86,3.8.19,4.83-1.81,1.07-2.06,1.98-4.2,2.92-6.33,1.15-2.6,3.04-4.33,5.77-5.14,2.23-.66,4.47-1.28,6.68-1.98,1.58-.5,3.14-1.11,4.7-1.67-.03-.2-.06-.4-.09-.6-3.12-1.26-6.37-1.64-9.69-.88-2.39.55-4.73,1.36-7.08,2.06-4.4,1.3-8.53,1.07-12.62-1.36-2.37-1.41-5.07-2.41-7.75-3.12-3.35-.88-6.54,0-9.46,1.7ZM230.15,259.94c-.82.25-1.39.46-1.98.59-1.54.34-2.87,0-3.75-1.4-.89-1.41-.57-2.75.42-3.97.38-.48.83-.91,1.3-1.3.91-.78.73-1.49-.02-2.25-1.62-1.64-4.54-1.23-5.77.96-.9,1.6-1.63,3.31-2.32,5.02-1.58,3.92-4.43,6.3-8.49,7.33-2.38.6-4.76,1.24-7.12,1.93-.82.24-1.58.69-2.82,1.25,3.38,1.36,6.27,1.92,9.21,1.28,3.06-.67,6.05-1.66,9.07-2.52,4.07-1.15,7.9-.82,11.63,1.42,2.2,1.32,4.64,2.35,7.09,3.12,3.6,1.13,7.06.32,10.95-1.75-6.97-1.86-14.39-1.86-17.39-9.71ZM209.4,219.88c4.71,4.64,6.72,10.34,8.18,16.3.15.59.4,1.17.66,1.72.92,1.95,1.48,4.26,4.32,4.28,2.91.02,3.49-2.3,4.2-4.32,2.62-7.41,6.6-14.09,10.94-20.58.36-.54.68-1.11.88-1.45-1.47-.97-2.77-1.83-4.25-2.81-1.92,3.09-3.94,6.24-5.86,9.45-1.52,2.53-3.69,3.74-6.62,3.69-2.9-.05-4.8-1.51-6.18-4-1.5-2.71-3.31-3.35-6.28-2.27ZM246.76,41.91c-3.49-2.56-7.19-3.23-11.08-1.85-2.3.82-4.53,1.92-6.67,3.11-2.88,1.59-5.89,2.24-9.09,1.6-2.4-.48-4.73-1.36-7.13-1.83-2.53-.49-5.1-.92-7.66-.97-1.63-.03-3.27.68-4.91,1.06.02.23.04.45.05.68.88.32,1.74.69,2.63.95,2.43.71,4.85,1.42,7.31,2.03,3.67.91,6.14,3.07,7.5,6.6.74,1.91,1.56,3.79,2.53,5.59.88,1.64,2.35,2.22,4.05,1.88-.89-1.92-1.96-3.55-2.38-5.34-.51-2.21.57-2.91,2.68-2.07,1.19.48,2.35,1.03,3.68,1.61.46-1.01.95-1.84,1.21-2.74,1.47-4.95,5.18-7.34,9.81-8.66,1.44-.41,2.94-.61,4.41-.94,1.02-.22,2.03-.48,3.05-.73ZM46.69,191.91c-4.62-1.8-6.55-4.87-6.79-8.79-.14-2.39.38-4.87.89-7.25.53-2.46,2.13-3.94,4.81-3.79,5.04.3,9.72-1.01,14.31-2.92,1.93-.8,3.95-.96,5.92.2,1.65.98,2.9.43,3.99-1.12,1.88-2.68,1.94-2.63-.09-5.04-.18-.21-.36-.42-.53-.62-4.5-5.38-6.12-5.43-10.54.15-3.46,4.36-7.53,7.41-13.26,8.01-2.76.29-5.15,1.41-6.99,3.78-4.85,6.28-4.26,16.7,1.8,23.47,2.04-1.91,4.07-3.82,6.47-6.07ZM20.38,111.12c-3.19-5.17-4.2-10.55-3.13-16.3,1.35-7.27,5.41-11.76,11.69-12.49,2.44-.29,4.97.24,7.8.42.55-1.11,1.29-2.58,2.08-4.17-4.18-1.95-8.23-2.43-12.4-1.24-7.24,2.06-11.79,6.98-14.06,13.98-2.73,8.44-.87,16.24,3.77,23.76,1.51-1.41,2.84-2.65,4.24-3.96ZM267.31,183.63c.94.84,1.82,1.57,2.63,2.36.88.85,1.55.67,2.41-.14,7.42-7,8.16-19.23,1.61-27.44-5.87-7.36-19.1-9.15-27.31-3.5.82.32,1.46.72,2.14.83,3.7.57,7.39,1.31,11.11,1.53,7.61.44,12.54,5.17,12.97,12.82.3,5.31-1.57,9.74-5.57,13.55ZM263.19,191.59c-.67,2.8-1.71,5.34-1.7,7.87,0,1.31,1.87,2.62,2.93,3.9.7.84,1.5,1.58,2.2,2.43,2.31,2.8,3.48,6.07,3.26,9.67-.29,4.67-1.8,8.6-6.79,10.37-3.03,1.08-4.2,4.34-2.88,7.05,1.2,2.45,4.37,3.47,6.84,1.99,1-.6,1.92-1.59,2.47-2.62,1.53-2.89,3.03-5.82,4.21-8.86,2.31-5.94,1.66-11.66-1.99-16.94-1.2-1.74-2.76-3.25-3.81-5.06-.77-1.34-1.44-3.03-1.35-4.51.19-3.27.4-3.25-3.39-5.26ZM175.16,278.38c.05.74.04,1.61.19,2.45,1.29,6.99,5.2,12.1,11.41,15.41,5.87,3.12,12.2,3.85,18.72,3.06,3.85-.46,7.6-1.33,11.17-3.15-1-1.02-1.96-1.8-2.67-2.77-.92-1.26-1.85-1.44-3.32-.93-4.33,1.49-8.81,1.89-13.35,1.27-7.34-1-13.41-3.83-16.02-11.46-1.41-4.12-1.4-4.13-5.78-4.12-.05,0-.11.07-.36.24ZM260.66,108.28c-.07-.15-.04,0,.05.09,4.46,4.68,3.39,4.28,7.26.3,10.23-10.53,7.36-21.12.51-31.61-1.25-1.92-3.9-2.35-5.92-1.45-2,.89-3.26,3.18-2.83,5.41.46,2.41,2.16,3.62,4.35,4.45,1.01.38,2.08,1.04,2.74,1.88,3.05,3.88,3.34,9.15.42,13.39-1.83,2.65-4.24,4.9-6.58,7.54ZM216.93,15.18c-.87-.41-1.46-.72-2.07-.96-6.54-2.57-13.3-3.18-20.14-1.77-9.8,2.01-16.46,7.62-18.97,17.58-.23.93-.18,1.94-.26,2.97,1.97-.1,3.59-.19,5.25-.27.11-.33.23-.57.27-.83,1.34-7.44,5.97-11.74,13.08-13.63,5.77-1.53,11.5-1.2,17.19.53.62.19,1.57.26,2.01-.09,1.22-.95,2.25-2.15,3.64-3.53ZM93.52,15.09c1.35,1.4,2.18,2.13,2.84,2.99.89,1.17,1.79,1.25,3.16.76,4.45-1.6,9.08-1.94,13.75-1.28,8.39,1.2,14.79,4.81,16.54,13.94.08.44.7,1.04,1.14,1.11,1.39.23,2.81.23,4.38.34-.63-8.34-4.61-14.27-11.71-18-6.21-3.26-12.95-3.87-19.77-2.75-3.37.56-6.62,1.82-10.34,2.88ZM93.45,296c1.07.5,1.83.92,2.63,1.22,6.42,2.42,13.01,2.95,19.72,1.54,8.21-1.72,14.45-6,17.62-14,.79-2,1.01-4.24,1.55-6.63-1.3.15-1.99.36-2.64.28-2.21-.3-3.07.71-3.52,2.81-1.26,5.93-5.27,9.34-10.84,11.17-6.17,2.03-12.34,1.92-18.53.11-.71-.21-1.75-.39-2.24-.04-1.29.94-2.37,2.19-3.75,3.53ZM48.22,201.35c-2.63.96-4.86,1.75-7.08,2.58-.49.18-1.05.43-1.35.82-3.19,4.23-5.22,8.86-4.37,14.29.79,5,2.91,9.53,5.49,13.83,1.44,2.4,3.81,3.28,6.14,2.62,1.99-.57,3.36-2.42,3.42-4.62.06-2.36-1.57-4.33-4.1-5.29-.97-.37-1.98-.97-2.66-1.73-4.05-4.53-3.75-11.09.77-15.26,1.83-1.69,3.97-3.05,6.12-4.67-.88-.95-1.74-1.88-2.38-2.58ZM215.97,147.99c.55-1.47.84-2.61,1.38-3.62.75-1.41.25-2.37-.66-3.47-6.02-7.27-13.79-9.68-22.89-8.24-1.11.18-2.42,1.02-3.05,1.95-2.41,3.56-4.59,7.27-6.84,10.94-1.58,2.57-1.27,4.75,1.02,7.17,2.81-4.2,5.54-8.45,8.49-12.54.69-.96,2.1-1.73,3.3-1.93,5.89-1.03,10.9.79,14.98,5.17,1.34,1.43,2.67,2.86,4.27,4.58ZM51.01,109.1c-1.83-1.37-3.64-2.75-5.48-4.1-7.41-5.46-6.47-16.27,1.73-19.97,2.13-.96,3.34-2.86,3.19-5.02-.14-2.06-1.52-3.84-3.43-4.43-2.14-.66-4.65,0-5.71,2.11-2.14,4.25-4.56,8.51-5.73,13.06-2.47,9.61,5.59,19.31,15.43,18.35ZM94.15,147.27c1.64-1.83,3.01-3.53,4.56-5.04,3.75-3.66,8.23-5.39,13.47-4.35,1.21.24,2.61.98,3.33,1.93,2.41,3.22,4.55,6.65,6.81,9.99.71,1.05,1.46,2.06,2.44,3.44.52-1.35.76-2.36,1.28-3.2,1.01-1.65.64-2.99-.4-4.48-1.67-2.41-3.47-4.81-4.67-7.46-1.91-4.21-4.95-5.72-9.45-5.96-8.13-.44-14.01,3.2-18.86,9.19-.33.4-.54,1.18-.39,1.63.49,1.41,1.18,2.74,1.88,4.3ZM286.39,224.29c.07.12.14.32.27.46,7.93,8.95,9.02,18.91,4.41,29.73-.18.41-.39,1.02-.22,1.33.87,1.57,1.86,3.07,2.87,4.68,8.63-9.91,6.8-31.46-3.05-40.17-1.38,1.28-2.75,2.55-4.27,3.97ZM79.97,197.11c-.56.64-.98,1.17-1.46,1.65-3.12,3.07-5.24,2.96-7.99-.42-.17-.21-.34-.43-.51-.64-3.03-3.74-5.24-3.86-8.61-.45-3.75,3.8-5.23,3.82-8.97.14-.09-.08-.25-.09-.58-.21-.79.87-1.63,1.79-2.47,2.72.34.46.52.76.75,1,.47.5.94,1,1.44,1.45,3.88,3.48,8.11,4.93,13.14,2.46.54-.26,1.53.05,2.16.38,2.41,1.3,5.01,2.02,7.44.72,2.11-1.13,3.85-2.95,5.7-4.52,1.45-1.24,1.48-2.63-.04-4.29ZM15.9,226.22c.74-1,1.38-2.03,2.19-2.92,1.05-1.14,1.09-2.14.54-3.65-3.51-9.72-1.84-18.5,5.21-26.16.39-.42.75-.87.99-1.15-1.52-1.39-2.9-2.65-4.3-3.93-9.84,8.48-12.52,29.12-4.63,37.81ZM16.92,260.55c2.44-2.37,3.14-4.46,1.75-8.04-3.36-8.61-1.78-16.75,4.6-23.72.39-.43.75-.88,1-1.16-1.58-1.42-3.02-2.72-4.47-4.02-9.49,7.73-11.26,29.2-2.88,36.94ZM293.32,50.67c-2.95,2.64-3.26,3.88-1.79,7.24,3.53,8.09,1.67,17.67-4.62,23.8-.51.49-.97,1.03-1.28,1.36,1.64,1.43,3.08,2.69,4.52,3.95,10.09-9.6,11.8-28.72,3.17-36.36ZM34.41,201.59c.04.19.09.38.13.58,3.65,1.01,7.26.83,10.58-1.14,4.28-2.54,7.36-6.27,9.65-10.64.88-1.67.94-3.48-.28-5.04-1.43-1.82-2.93-3.61-4.55-5.26-1.51-1.53-3.75-1.7-5.47-.68-1.71,1.03-2.51,3.05-2.01,5.17.51,2.16,1.96,3.32,4.05,3.88,2.47.67,2.77,1.41,1.41,3.62-2.53,4.11-6.09,6.95-10.65,8.54-.95.33-1.91.65-2.86.97ZM153.31,118.3c-2.61,2.88-5.23,5.64-7.7,8.52-5.13,5.96-4.78,12.97.71,18.8,2.18,2.32,4.11,4.88,6.17,7.32.11.13.32.18.72.4.22-1.1.5-2.07.58-3.06.31-3.74-1.11-6.71-3.84-9.29-3.39-3.21-3.24-7.4.11-10.62.54-.52,1.13-.99,1.65-1.54,2.28-2.4,3.07-8.14,1.59-10.54ZM153.73,193.35c.93-4.61.25-8.36-2.84-11.55-5.11-5.29-4.42-9.58,2.07-13.19.36-.2.82-.34,1.03-.65.85-1.27,1.85-2.52,2.36-3.93.45-1.24-.11-2.18-1.74-1.58-.83.3-1.7.52-2.54.78-10.69,3.33-13.38,14.82-5.35,22.61,2.05,1.98,3.85,4.22,5.77,6.33.3.33.65.63,1.25,1.19ZM156.94,192.84c2.87-3.43,5.75-6.51,8.21-9.9,4.04-5.56,3.34-11.92-1.37-16.99-2.08-2.24-3.94-4.68-5.91-7.02-.29-.34-.59-.67-.88-1-.17.07-.35.13-.52.2.33,4.02-.49,8.19,3.07,11.59,3.61,3.44,3.58,7.04.36,10.85-.53.63-1.12,1.21-1.58,1.88-2.16,3.17-2.76,6.56-1.38,10.39ZM16.43,191.11c1.03-1.34,2.08-2.44,2.8-3.73.38-.68.37-1.72.2-2.53-.63-2.92-1.68-5.76-2.05-8.7-.68-5.36.7-10.39,3.47-15.04-1.46-1.33-2.79-2.55-4.13-3.77-6.53,7.88-6.7,25.34-.27,33.77ZM157.41,118.83c-.16.32-.52.82-.69,1.37-1.2,3.92-.95,7.38,2.33,10.47,3.86,3.64,3.66,7.21.23,11.05-1.37,1.53-2.46,3.46-3.14,5.39-.68,1.92-.63,4.07.35,5.75,2.62-2.62,5.11-5.09,7.59-7.59,3.6-3.63,4.38-8.3,1.81-12.74-2.68-4.63-5.62-9.11-8.48-13.7ZM228.83,186.84c1.53-2.14,2.94-3.82,4.02-5.7,1.84-3.19,4.4-4.42,8.09-4.16,4.66.33,9.12-.77,13.1-3.32,1.55-.99,2.95-2.23,4.42-3.36-.1-.18-.21-.36-.31-.54-1.13.18-2.25.43-3.39.52-6.26.48-12.53.86-18.79,1.43-1.25.11-2.79.57-3.57,1.44-1.91,2.12-3.48,4.55-5.11,6.92-.34.5-.56,1.33-.39,1.87.47,1.55,1.17,3.02,1.92,4.91ZM16.81,50.7c-6.73,6.1-7.25,25.18-.79,31.44.97-.83,1.89-1.75,2.93-2.49.99-.7,1-1.28.49-2.37-2.97-6.31-3.29-12.77-.66-19.28,1.26-3.12.84-4.88-1.97-7.31ZM49.99,137.65c-.08.27-.17.54-.25.8,4.69,2.15,7.71,5.99,10.55,10.03.47.66,1.03,1.28,1.64,1.81,1.85,1.62,4.29,1.59,5.81-.32,2.64-3.32,5.39-6.46,9.54-8.28-.83-1.19-1.51-2.16-1.94-2.77-1.74.46-3.08.86-4.44,1.16-1.19.26-2.53.14-3.6.63-2.56,1.17-4.91.66-7.29-.38-1.5-.65-2.98-1.42-4.55-1.83-1.78-.46-3.64-.58-5.47-.85ZM290.28,194.62c.08.31.09.52.18.7,3.8,7.16,3.94,14.46.87,21.89-.15.35-.3.9-.14,1.15,1.03,1.54,2.15,3.01,3.31,4.61,6.78-9.94,5.05-25.96-.37-31.82-1.25,1.13-2.5,2.25-3.86,3.48ZM293.95,84.56c-1.03,1.38-2.11,2.69-3.02,4.1-.26.41-.25,1.22-.03,1.69,3.15,6.64,2.67,13.09-.77,19.46-.21.39-.31,1.19-.07,1.42,1.17,1.18,2.46,2.24,3.72,3.36,7-9.61,5.83-22.94.18-30.03ZM237.19,144.31c1.25,1.48,2.57,2.93,3.77,4.49,2.52,3.3,5.75,3.48,8.58.35,1.23-1.36,2.34-2.84,3.51-4.26,2.3-2.76,5.24-4.28,8.84-4.5.35-.02.7-.12,1.47-.26-2.71-1.8-5.31-1.75-7.82-1.19-2.58.57-5.03,1.7-7.59,2.35-1.25.32-2.74.46-3.95.09-3.92-1.19-4.77-.92-6.82,2.93ZM240.51,178.44c-1.3.18-2.28.21-3.18.47-2.18.64-2.58,2.18-1.15,3.86,1.11,1.3,2.09,2.7,3.15,4.04,2.32,2.96,4.39,3.13,7.29.72,2.15-1.78,4.42-3.42,6.55-5.22.81-.69,1.38-1.67,2.06-2.51-.95-.39-1.89-.82-2.86-1.16-.37-.13-.81-.05-1.22-.09-3.66-.38-7.32,2.16-10.65-.11ZM261.87,260.25c-.11,1.59-.31,2.88-.24,4.16.03.55.52,1.43.97,1.56,7.1,2.03,14.25,3.23,21.52.83.92-.3,1.79-.78,2.88-1.27-1.05-1.19-1.77-2.21-2.7-2.97-.53-.43-1.5-.71-2.14-.55-4.48,1.12-8.94.86-13.38-.06-2.25-.47-4.48-1.09-6.91-1.7ZM23.99,45.71c.48.57.91,1.01,1.26,1.5,1.22,1.75,2.65,2.14,4.88,1.74,2.91-.52,5.99-.47,8.95-.21,3.17.28,6.29,1.09,9.56,1.69.26-1.7.51-3.35.76-4.96-8.08-2.74-20.16-3.74-25.4.24ZM24.16,265.89c.69.29,1.35.63,2.04.87,7.34,2.48,14.58,1.36,21.76-.76.37-.11.85-.74.83-1.11-.07-1.53-.31-3.05-.5-4.71-.9.27-1.61.49-2.32.71-5.03,1.52-10.12,2.36-15.37,1.48-3.2-.54-4.66.22-6.44,3.53ZM261.56,50.5c.51-.08.84-.12,1.16-.19,6.26-1.52,12.53-2.77,19-1.17.44.11,1.13-.09,1.47-.4,1.08-1.01,2.05-2.14,3.08-3.25-5.33-3.71-18.12-2.96-25.31.36.19,1.46.38,2.93.6,4.65ZM253.77,196.58c-3.35,2.31-5.64.63-7.95-1.09-1.59-1.18-3.54-1.47-4.9-.11-1.54,1.55-2.93,3.5-3.62,5.54-.33.99,1.07,2.58,1.71,3.89.74,1.5,1.68,1.37,2.97.56.89-.56,2.04-.97,3.08-.99,4.08-.07,7.77-3.02,8.71-7.79ZM212.35,88.22c.1.12.19.24.29.36.84-.4,1.68-.82,2.53-1.2,6-2.65,11.66-2.43,16.81,2.04,1.75,1.52,3.55,2.99,5.37,4.43.64.51,1.42.84,1.94,1.14-.92-6.33-5.15-10.44-9.5-14.52-4.22,4.89-9,4.66-12.93-.51-1.58,2.89-3.04,5.58-4.51,8.26ZM258.65,118.18c-.98,1.51-2.17,3.06-3.04,4.77-.33.66-.26,1.88.15,2.5,1.32,1.96,2.69,3.96,4.4,5.55,2.05,1.9,5.28,1.38,6.92-.72,1.49-1.9,1.17-4.93-.92-6.61-2.3-1.85-4.77-3.5-7.52-5.5ZM199.62,209.49c-3.56,8.13-8.48,13.94-17.72,14.13.62,3.71,1.25,4.17,4.64,3.56,6.86-1.22,11.49-5.37,14.8-11.23.23-.41.32-1.07.18-1.51-.51-1.54-1.15-3.03-1.9-4.96ZM110.21,209.32c-.68,1.85-1.29,3.29-1.74,4.78-.15.52-.05,1.23.2,1.72,3.17,6.21,8.04,10.22,15.04,11.38,3.13.52,3.8-.09,4.08-3.58-9.25-.25-13.99-6.25-17.58-14.3ZM181.76,87.36c4.12.4,8.15,1.07,10.97,4.12,2.66,2.88,4.82,6.23,7.11,9.25.33-.86.95-2.04,1.19-3.29.19-.97.26-2.22-.19-3.03-3.15-5.67-7.84-9.34-14.33-10.51-3.4-.61-3.84-.31-4.76,3.46ZM128.13,87.45c-.76-3.85-1.32-4.26-4.9-3.61-5.22.95-9.18,3.82-12.57,7.84-2.67,3.17-2.47,6.17-.72,9.06,2.29-3.06,4.48-6.44,7.12-9.39,2.86-3.19,6.96-3.77,11.07-3.9ZM70.8,93.94c3.21-2,6.42-3.82,9.44-5.91,4.52-3.14,9.38-3.27,14.48-2.11.41.09.82.16,1.52.29-.99-2.25-1.84-4.19-2.73-6.21-6.17,5.04-7.52,5.07-12.97.44-3.94,3.93-8.23,7.6-9.73,13.5ZM276.31,239.53c-.2-.3-.39-.6-.59-.9-7.22,3.48-14.88,4.41-23.11,3.9.66,1.42,1.15,2.25,1.43,3.14.51,1.67,1.64,2.11,3.25,2.11,4.86,0,9.56-.75,13.65-3.5,1.97-1.32,3.59-3.15,5.37-4.75ZM57.57,67.87c-.86-1.72-1.41-3.04-2.16-4.23-.26-.42-.97-.75-1.5-.78-7.03-.43-13.28,1.31-18.1,6.78-.63.71-1.11,1.55-1.66,2.32.11.18.23.37.34.55,7.1-3.81,14.74-4.88,23.08-4.63ZM276.33,72.14c-.74-1.03-1.08-1.61-1.51-2.1-4.19-4.79-9.65-6.7-15.84-6.86-3.67-.1-4.86.98-5.56,4.81,3.79.31,7.63.34,11.36,1.01,3.71.66,7.31,1.96,11.56,3.15ZM34.82,238.59c-.14.2-.27.4-.41.59.66.84,1.25,1.74,1.97,2.53,4.78,5.22,11.11,6.24,17.72,6.42.34,0,.87-.22,1.02-.5.72-1.33,1.34-2.71,2.17-4.44-8.11.03-15.49-1.36-22.48-4.61ZM36.45,269.21c-2.92-.03-5.23,2.36-5.23,5.4,0,2.68,2.4,5.14,5.05,5.2,3.04.07,5.59-2.37,5.58-5.32,0-2.91-2.4-5.25-5.4-5.28ZM79.89,35.17c-5.15-2.17-12.38-2.52-17.18-.81-.48.17-1.19.75-1.16,1.1.1,1.52.43,3.02.73,4.86,5.85-3.66,11.46-2.5,17.1-.33.19-1.76.35-3.23.52-4.81ZM36.56,42c3.01.03,5.34-2.28,5.31-5.27-.03-2.94-2.37-5.22-5.39-5.26-2.77-.03-5.17,2.37-5.21,5.21-.04,2.96,2.28,5.29,5.29,5.32ZM273.86,269.16c-2.91.05-5.23,2.52-5.16,5.47.07,2.87,2.44,5.15,5.31,5.09,2.84-.06,5.19-2.44,5.18-5.26,0-2.98-2.39-5.35-5.32-5.29ZM244.85,95.79c3.01-.03,5.4-2.44,5.32-5.34-.08-2.92-2.55-5.22-5.54-5.16-2.89.05-5.09,2.37-5.06,5.34.03,2.86,2.41,5.19,5.28,5.16ZM278.97,36.81c.04-2.89-2.22-5.23-5.1-5.31-3.06-.08-5.4,2.17-5.39,5.18.01,3.05,2.24,5.28,5.32,5.3,2.91.03,5.14-2.2,5.18-5.18ZM244.52,214.73c-2.9.04-5.12,2.36-5.09,5.3.03,2.98,2.42,5.32,5.38,5.27,2.88-.05,5.12-2.38,5.1-5.3-.03-2.97-2.42-5.31-5.39-5.27ZM283.49,51.27c-2.97-.04-5.33,2.19-5.33,5.03,0,2.94,2.23,5.28,5.09,5.33,3.09.05,5.33-1.98,5.42-4.93.1-2.99-2.2-5.4-5.18-5.44ZM199.73,254.14c2.87.01,5.29-2.33,5.3-5.13,0-2.95-2.2-5.24-5.1-5.3-3.02-.06-5.39,2.23-5.41,5.21-.01,2.84,2.35,5.21,5.21,5.23ZM110.12,253.83c2.83-.02,5.13-2.45,5.05-5.32-.08-2.87-2.4-5.11-5.3-5.12-2.84,0-5.16,2.32-5.19,5.22-.03,2.85,2.46,5.24,5.43,5.22ZM65.23,225.31c2.9-.03,5.28-2.36,5.27-5.16,0-2.98-2.38-5.29-5.39-5.24-2.85.04-5.23,2.46-5.18,5.26.05,2.82,2.48,5.18,5.3,5.15ZM91.42,38.19c.04-2.93-2.36-5.37-5.29-5.39-2.82-.02-5.2,2.34-5.25,5.21-.05,2.88,2.24,5.19,5.17,5.23,2.9.04,5.33-2.25,5.37-5.05ZM160.27,274.31c.03-2.8-2.34-5.12-5.24-5.14-2.92-.02-5.21,2.22-5.24,5.12-.04,2.86,2.26,5.22,5.12,5.28,2.91.06,5.34-2.32,5.37-5.26ZM137.8,204.73c-.05-2.87-2.37-5.1-5.3-5.08-2.83.01-5.14,2.38-5.14,5.26,0,2.85,2.34,5.19,5.2,5.19,2.95,0,5.3-2.4,5.25-5.37ZM127.49,103.74c-.02,2.88,2.29,5.25,5.16,5.3,2.87.05,5.19-2.27,5.2-5.21,0-2.93-2.24-5.24-5.14-5.28-2.86-.04-5.2,2.28-5.22,5.19ZM125.06,265.7c2.9.03,5.43-2.44,5.43-5.28,0-2.85-2.33-5.16-5.22-5.2-3.02-.04-5.23,2.21-5.25,5.32-.01,2.75,2.31,5.12,5.04,5.15ZM32.48,56.54c.03-2.89-2.34-5.18-5.41-5.23-2.82-.05-4.99,2.12-5.04,5.05-.06,3.04,2.03,5.27,4.98,5.32,3.02.06,5.44-2.22,5.47-5.14ZM110.3,233.87c2.77-.01,5.22-2.49,5.2-5.25-.02-2.77-2.5-5.28-5.2-5.26-2.91.02-5.34,2.5-5.27,5.38.06,2.87,2.4,5.14,5.27,5.13ZM190.13,50.85c.02-2.85-2.34-5.25-5.16-5.24-2.87,0-5.28,2.48-5.28,5.4,0,2.72,2.31,5.03,5.1,5.1,2.98.08,5.32-2.23,5.34-5.26ZM283.34,178.05c-3.02.02-5.26,2.33-5.21,5.37.05,3,2.22,5.07,5.26,5.03,2.95-.04,5.14-2.28,5.11-5.24-.03-2.99-2.22-5.18-5.17-5.16ZM27.35,127.3c3.01.03,5.31-2.11,5.35-4.99.05-2.98-2.22-5.32-5.23-5.38-2.82-.06-5.16,2.13-5.23,4.89-.08,3.04,2.17,5.45,5.1,5.48ZM110.49,87.62c2.65.04,4.91-2.3,4.99-5.17.08-2.9-2.16-5.25-5.05-5.3-2.97-.05-5.36,2.29-5.38,5.24-.02,2.84,2.41,5.18,5.44,5.22ZM199.43,77.33c-2.89.02-5.11,2.3-5.1,5.26.01,2.83,2.44,5.26,5.2,5.19,2.9-.07,5.24-2.39,5.24-5.19,0-2.98-2.33-5.27-5.34-5.25ZM130.66,50.91c.02-2.82-2.37-5.22-5.22-5.25-2.9-.03-5.26,2.38-5.27,5.41-.01,2.77,2.27,4.98,5.15,4.98,2.84,0,5.32-2.38,5.34-5.14ZM283.09,164.11c2.93.05,5.27-2.18,5.33-5.07.06-2.94-2.17-5.31-5.03-5.35-2.98-.05-5.2,2.08-5.28,5.08-.09,3.05,2.01,5.29,4.99,5.34ZM65.9,131.22c2.83,0,5.37-2.38,5.41-5.07.04-2.93-2.33-5.28-5.33-5.29-2.85,0-5.22,2.31-5.25,5.15-.03,2.87,2.29,5.21,5.17,5.21ZM189.86,22.71c-2.76-.06-5.09,2.16-5.2,4.96-.12,2.96,2.05,5.35,4.92,5.43,2.98.08,5.41-2.23,5.44-5.17.03-2.87-2.22-5.15-5.16-5.22ZM70.36,90.48c-.02-2.99-2.36-5.23-5.42-5.18-2.85.04-5.07,2.39-5.04,5.35.02,2.79,2.3,5.05,5.09,5.07,3.04.02,5.39-2.26,5.38-5.23ZM204.74,228.79c-.05-2.9-2.54-5.29-5.45-5.24-2.81.05-5.09,2.5-5.02,5.39.07,2.84,2.5,5.18,5.32,5.13,2.83-.05,5.2-2.47,5.15-5.28ZM27.2,190.9c3.03-.03,5.22-2.21,5.18-5.17-.04-3.01-2.25-5.23-5.18-5.2-3.08.03-5.24,2.29-5.17,5.41.06,2.88,2.26,5,5.16,4.97ZM126.02,27.54c-.04-2.99-2.26-5.21-5.19-5.17-2.84.04-5.13,2.4-5.13,5.3,0,2.9,2.49,5.23,5.49,5.15,2.82-.08,4.88-2.32,4.84-5.28ZM31.63,90.19c.01-2.83-2.3-5.16-5.19-5.23-2.91-.07-5.26,2.34-5.24,5.35.02,2.86,2.18,5.04,5.03,5.09,3.01.05,5.39-2.24,5.4-5.2ZM226.93,202.48c-.02-2.84-2.25-5.09-5.07-5.11-2.93-.02-5.36,2.42-5.33,5.35.03,2.86,2.24,5.08,5.07,5.1,3.01.02,5.35-2.32,5.33-5.33ZM125.61,283.6c.03-2.96-2.02-5.17-4.86-5.23-3-.07-5.44,2.21-5.5,5.14-.07,2.94,2.28,5.22,5.37,5.21,2.81-.01,4.97-2.22,4.99-5.12ZM110.28,139.48c-3.02.03-5.27,2.22-5.26,5.12,0,2.92,2.49,5.34,5.4,5.28,2.85-.07,5.04-2.43,5-5.41-.04-2.87-2.26-5.02-5.14-4.99ZM181.95,126.45c.05-2.68-2.27-5.01-5.09-5.1-2.87-.1-5.2,2.02-5.3,4.81-.11,3,2.21,5.57,5.05,5.6,2.97.03,5.29-2.27,5.35-5.31ZM224.13,43.25c2.86-.04,5.07-2.25,5.09-5.06.01-2.94-2.37-5.28-5.36-5.28-2.87,0-5.11,2.36-5.04,5.31.06,2.92,2.34,5.08,5.32,5.03ZM71.49,54.33c-.04-2.94-2.34-5.12-5.29-5.03-2.97.09-5.18,2.5-5.08,5.53.09,2.78,2.39,4.88,5.29,4.82,2.85-.06,5.12-2.44,5.08-5.32ZM284.05,212.23c-2.83.06-5.07,2.47-4.98,5.38.09,2.98,2.33,5.11,5.29,5.03,2.96-.09,5.03-2.32,4.96-5.34-.07-2.97-2.31-5.13-5.26-5.07ZM228.63,77.47c.05-3.04-2.2-5.33-5.24-5.34-2.87,0-5.13,2.18-5.13,4.97,0,3.04,2.25,5.37,5.23,5.39,2.78.02,5.1-2.25,5.15-5.02ZM288.83,89.96c.05-2.85-2.27-5.13-5.23-5.14-3.01-.01-5.23,2.16-5.23,5.1,0,2.9,2.29,5.18,5.21,5.2,2.93.01,5.21-2.22,5.25-5.16ZM132.54,251.33c2.94-.01,5.26-2.38,5.27-5.38.01-2.64-2.43-4.96-5.23-4.95-2.93.01-5.26,2.3-5.24,5.12.03,2.9,2.34,5.22,5.19,5.2ZM85.27,20.75c-2.81-.05-5.18,2.18-5.24,4.92-.06,2.91,2.37,5.42,5.25,5.43,2.86,0,5.29-2.38,5.27-5.17-.02-2.81-2.39-5.13-5.29-5.18ZM193.9,144.77c-.04,2.9,2.22,5.33,5.04,5.39,2.82.06,5.41-2.49,5.39-5.31-.02-2.86-2.2-5.03-5.07-5.06-3.05-.03-5.32,2.09-5.36,4.99ZM31.59,221.02c.06-2.92-2.13-5.25-5.03-5.36-3-.11-5.29,2.02-5.33,4.95-.04,3.03,2.22,5.38,5.2,5.41,2.78.02,5.11-2.23,5.16-5ZM283.78,259.74c2.84-.04,5.06-2.27,5.05-5.06-.01-3.03-2.31-5.24-5.37-5.18-2.91.06-5.07,2.32-5.05,5.3.02,2.86,2.32,4.98,5.36,4.94ZM182.39,65.1c-.05-2.99-2.29-5.21-5.2-5.15-2.93.06-5.19,2.33-5.19,5.23,0,2.82,2.43,5.11,5.34,5.05,2.8-.06,5.09-2.38,5.05-5.12ZM176.87,210.59c2.88-.04,5.22-2.38,5.21-5.22,0-2.74-2.52-5.23-5.26-5.22-2.89.01-5.17,2.34-5.13,5.23.04,2.94,2.33,5.24,5.17,5.2ZM93.57,126.17c-.02-2.77-2.32-4.96-5.18-4.93-2.84.03-5.15,2.38-5.15,5.24,0,2.81,2.46,5.27,5.19,5.2,2.91-.07,5.16-2.48,5.13-5.51ZM230.11,285.56c.05-2.9-2.17-5.24-5.07-5.33-2.89-.09-5.23,2.16-5.27,5.07-.05,2.94,2.12,5.21,5.05,5.3,2.91.09,5.24-2.13,5.29-5.05ZM90.35,285.43c.01-3.02-2.13-5.23-5.07-5.23-2.93,0-5.26,2.24-5.3,5.09-.04,2.85,2.26,5.2,5.14,5.25,2.9.05,5.21-2.21,5.23-5.12ZM219.77,25.92c-.01,2.93,2.24,5.22,5.17,5.24,2.78.03,5.24-2.41,5.28-5.21.04-2.94-2.22-5.2-5.17-5.18-2.95.03-5.27,2.29-5.28,5.14ZM205.04,62.75c0-2.81-2.42-5.24-5.23-5.27-2.74-.03-5.12,2.3-5.17,5.06-.05,3.06,2.23,5.33,5.3,5.29,2.88-.04,5.1-2.25,5.1-5.07ZM32.46,254.72c-.04-2.93-2.5-5.32-5.41-5.27-2.86.04-4.94,2.23-4.92,5.17.02,2.93,2.31,5.18,5.23,5.14,2.93-.05,5.14-2.23,5.1-5.04ZM47.12,139.71c-2.81-.05-5.11,2.14-5.2,4.96-.1,2.88,2.17,5.34,5,5.41,2.89.07,5.25-2.2,5.3-5.09.05-2.93-2.17-5.22-5.1-5.28ZM110.19,67.65c2.92-.04,5.15-2.37,5.07-5.31-.08-2.87-2.45-5.05-5.41-4.98-2.81.07-4.96,2.21-4.95,4.94,0,3.03,2.33,5.38,5.3,5.34ZM154.91,227.76c2.8.04,5.27-2.32,5.35-5.13.08-2.72-2.43-5.18-5.27-5.18s-5.16,2.23-5.2,4.99c-.04,2.87,2.28,5.28,5.11,5.32ZM154.94,93.57c2.88.03,5.21-2.25,5.25-5.15.04-2.85-2.31-5.25-5.16-5.27-2.9-.02-5.23,2.26-5.26,5.15-.03,2.86,2.3,5.23,5.17,5.27ZM65.47,178.84c-2.82,0-5.16,2.22-5.2,4.95-.04,3.05,2.22,5.4,5.19,5.4,2.81,0,5.24-2.41,5.25-5.19,0-2.82-2.36-5.15-5.24-5.16ZM248.85,55.64c.05-2.84-2.11-5.12-4.93-5.21-3.12-.1-5.41,2.03-5.45,5.08-.04,2.83,2.31,5.13,5.25,5.16,2.73.03,5.08-2.28,5.13-5.04ZM92.01,77.1c.03-2.9-2.25-5.24-5.12-5.26-2.89-.01-5.17,2.24-5.23,5.17-.06,2.94,2.17,5.21,5.12,5.21,2.95,0,5.2-2.21,5.23-5.12ZM243.95,121.57c-2.9-.03-5.23,2.25-5.26,5.15-.03,2.91,2.22,5.12,5.22,5.13,2.82.01,5.12-2.22,5.17-5.01.05-2.9-2.23-5.23-5.14-5.27ZM216.43,126.64c-.03,3.01,2.27,5.45,5.16,5.48,2.83.03,5.19-2.31,5.22-5.18.03-2.81-2.35-5.2-5.19-5.22-2.87-.02-5.17,2.15-5.19,4.91ZM137.95,65.27c0-3.08-2.23-5.34-5.27-5.34-2.8,0-5.05,2.24-5.1,5.08-.05,2.86,2.29,5.22,5.17,5.22,2.86,0,5.19-2.23,5.2-4.96ZM227.45,219.36c-.02-2.89-2.3-5.15-5.21-5.16-2.83-.01-5.16,2.32-5.2,5.21-.04,2.84,2.29,5.12,5.23,5.12,2.91,0,5.2-2.27,5.18-5.17ZM149.78,66.89c.05,2.93,2.42,5.27,5.23,5.16,2.81-.1,5.05-2.56,4.97-5.46-.08-2.8-2.37-5.02-5.16-5.01-2.91.01-5.08,2.31-5.03,5.3ZM229.3,273.32c.03-2.9-2.24-5.29-5.07-5.35-2.84-.06-5.18,2.26-5.22,5.16-.04,2.8,2.18,5.12,4.95,5.2,2.94.07,5.31-2.15,5.34-5.01ZM189.66,278.42c-2.83-.15-5.24,2.1-5.38,5.02-.13,2.81,2.01,5.19,4.8,5.36,2.89.17,5.35-2.03,5.47-4.89.12-2.91-2.04-5.33-4.9-5.49ZM160.25,36.98c-.05-2.99-2.47-5.37-5.38-5.28-2.72.08-4.95,2.47-4.94,5.28.02,2.92,2.33,5.17,5.27,5.1,2.89-.07,5.09-2.3,5.05-5.1ZM263.43,159.46c-3.03,0-5.27,2.2-5.24,5.12.03,2.82,2.29,5.11,5.06,5.15,2.91.04,5.28-2.23,5.33-5.1.05-2.97-2.14-5.18-5.15-5.17ZM159.91,244.3c0-2.91-2.29-5.21-5.15-5.2-2.91.01-5.03,2.23-5.03,5.27,0,2.81,2.23,5.09,5.01,5.13,2.84.04,5.18-2.31,5.17-5.2ZM227.77,164.67c.03-2.84-2.15-5.07-5.02-5.12-2.87-.05-5.35,2.3-5.35,5.08,0,2.9,2.3,5.25,5.16,5.27,2.84.02,5.17-2.32,5.21-5.22ZM87.72,224.47c2.92-.03,5.12-2.31,5.07-5.26-.05-2.82-2.28-5.03-5.09-5.03-2.84,0-5.22,2.35-5.24,5.18-.02,2.81,2.38,5.15,5.26,5.12ZM52.2,128.13c0-2.82-2.39-5.13-5.26-5.1-2.78.03-5.09,2.34-5.06,5.06.02,2.88,2.35,5.25,5.16,5.24,2.85,0,5.18-2.35,5.17-5.2ZM86.06,278.29c3.01,0,5.32-2.19,5.35-5.05.02-2.78-2.38-5.17-5.24-5.2-2.98-.03-5.15,2.16-5.12,5.18.02,2.93,2.15,5.07,5.02,5.06ZM110.55,169.97c2.71-.05,5.08-2.43,5.07-5.13,0-2.87-2.37-5.26-5.17-5.21-2.97.05-5.23,2.45-5.14,5.45.09,2.78,2.38,4.93,5.24,4.88ZM199.28,170.32c2.81-.04,5.1-2.48,5.02-5.36-.08-2.81-2.35-4.97-5.18-4.96-2.92.01-5.18,2.29-5.15,5.2.03,2.77,2.51,5.16,5.31,5.13ZM66.57,261.17c2.91-.03,5.22-2.4,5.14-5.26-.08-2.66-2.54-5.01-5.26-5.02-2.8-.02-5.05,2.27-5.05,5.11,0,3,2.21,5.21,5.17,5.18ZM137.89,165.82c0-2.79-2.29-5.08-5.09-5.07-2.87,0-5.26,2.24-5.27,4.92-.01,2.88,2.29,5.27,5.14,5.34,2.88.06,5.22-2.26,5.23-5.18ZM282.63,127.37c3.02,0,5.25-2.12,5.3-5.05.05-2.82-2.28-5.16-5.17-5.2-2.97-.05-5.1,2.11-5.11,5.17,0,2.89,2.13,5.07,4.98,5.08ZM159.76,135.63c-.01-2.9-2.27-5.11-5.22-5.1-2.71,0-5.07,2.38-5.07,5.09,0,2.85,2.34,5.21,5.17,5.23,2.88.01,5.14-2.28,5.13-5.21ZM32.78,149.72c-.05-3.01-2.42-5.24-5.47-5.14-2.86.09-4.97,2.33-4.91,5.22.06,2.93,2.39,5.14,5.33,5.04,2.88-.09,5.09-2.33,5.05-5.12ZM92.79,164.61c-.01-2.72-2.23-4.96-4.93-4.98-2.89-.02-5.36,2.32-5.37,5.07,0,2.88,2.31,5.18,5.21,5.19,2.86,0,5.1-2.32,5.08-5.28ZM181.78,165.79c-.02-2.66-2.5-5-5.25-4.94-2.81.06-5.06,2.33-5.05,5.12.01,2.84,2.24,5.16,4.98,5.17,2.94,0,5.33-2.4,5.31-5.34ZM88.06,188.85c2.73,0,4.98-2.38,4.93-5.19-.06-2.87-2.24-5.1-5.02-5.13-2.83-.03-5.14,2.3-5.17,5.2-.03,2.78,2.38,5.12,5.27,5.11ZM177.19,241.09c-2.92.03-5.2,2.2-5.18,4.94.02,2.93,2.29,5.25,5.15,5.26,2.94,0,5.14-2.22,5.14-5.21,0-2.8-2.27-5.02-5.12-4.99ZM249.18,256.08c.01-2.87-2.27-5.03-5.32-5.02-2.79,0-4.92,2.1-4.96,4.9-.05,2.9,2.21,5.23,5.11,5.28,2.93.05,5.15-2.17,5.16-5.16ZM154.52,180.71c2.91.04,5.26-2.21,5.3-5.08.04-2.79-2.17-5.03-5.03-5.11-2.94-.08-5.21,2.1-5.26,5.05-.05,2.77,2.2,5.1,4.99,5.14ZM288.09,79.11c-4.51-2.71-8.66-3.13-13.01-2.13-4.11.95-4.12,1.01-2.27,4.65.21.42.46.82.73,1.3,3.17-.93,6.3-1.39,9.49-.34.41.13,1.08-.14,1.47-.43,1.13-.86,2.18-1.83,3.59-3.05ZM22.43,231.78c3.74,2.03,7.33,2.53,11.07,2.09,5.01-.59,5.55-1.72,2.98-6.05-.06-.1-.21-.16-.32-.24-2.96.4-5.92.38-8.87.42-.56,0-1.26.12-1.64.46-1.06.94-1.99,2.03-3.21,3.32ZM272.63,229.76c5.42,1.74,10.42,1.48,15.66-1.04-1.14-1.29-2.01-2.42-3.04-3.37-.44-.4-1.24-.57-1.87-.57-2.5.02-4.99.13-7.48.28-.51.03-1.25.23-1.45.59-.67,1.23-1.16,2.58-1.81,4.11ZM22.61,197.02c5.26,2.51,10.1,2.95,15.31,1.01-.56-1.27-1.01-2.18-1.36-3.13-.5-1.36-1.23-1.73-2.79-1.51-1.91.27-3.91-.13-5.87-.18-.69-.02-1.59-.09-2.03.29-1.11.95-2.02,2.14-3.26,3.52ZM233.94,39.17c5.12-2.08,9.58-1.25,14.06,1.03.33-1.62.71-2.8.74-4,.02-.58-.5-1.56-.99-1.72-3.68-1.23-7.46-1.66-11.27-.73-.65.16-1.39.84-1.65,1.47-.44,1.03-.52,2.2-.89,3.95ZM233.59,137.33c-1.19,1.91-2.41,3.85-3.61,5.81-1.77,2.88-1.58,4.84.85,7.76,2.25-3.44,4.48-6.84,6.55-10.01-1.35-1.26-2.5-2.34-3.79-3.55ZM248.18,169.43c-2.2-3.42-4.07-6.4-6.04-9.32-.36-.53-1.25-1.14-1.71-1.02-.52.14-1.07,1.01-1.21,1.65-.73,3.28.81,5.97,2.53,8.56.18.27.71.43,1.08.42,1.62-.04,3.23-.17,5.36-.29ZM74.83,244.13c2.3-2.15,4.3-3.97,6.22-5.86.32-.32.57-1.06.43-1.44-.56-1.54-1.3-3.01-1.96-4.5-2.3,2.16-4.36,4.04-6.33,6-.33.33-.54,1.12-.38,1.54.46,1.26,1.13,2.44,2.02,4.27ZM48.55,168.37c4.37-.63,5.43-1.89,4.75-5.53-.74-3.94-1.57-4.4-6-3.39.41,2.94.83,5.87,1.26,8.92ZM191.99,105.77c-1.77.3-3.24.48-4.69.8-4.82,1.07-4.97,1.38-2.95,5.75.05.1.21.16.28.21,2.58-.62,5.13-1.24,7.81-1.88-.15-1.56-.28-3.03-.46-4.88ZM263.94,150.08c-.62-2.03-1.37-4.18-1.91-6.39-.4-1.62-1.17-1.98-2.62-1.31-.68.31-1.47.45-2.05.88-.37.27-.71.99-.62,1.43.98,5.17,1.53,5.61,6.74,5.75.05,0,.11-.08.46-.35ZM102.87,202.61c.24-2.14.42-3.72.61-5.38-2.51-.21-4.79-.4-7.23-.61-.43,1.01-.86,2.07-1.34,3.11-.49,1.07-.17,1.71.98,1.89,2.25.34,4.5.64,6.98.99ZM71.45,111.52c2.98.19,5.82.39,8.65.53.31.01.79-.29.92-.58.49-1.08.88-2.2,1.41-3.58-2.85,0-5.33-.06-7.81.02-3.06.1-3.22.32-3.17,3.62ZM215.28,109.42c-2.69-.45-5-.88-7.33-1.16-.37-.04-1.1.53-1.18.92-.27,1.3-.32,2.65-.46,4.06,2.47.33,4.73.63,7.09.95.57-1.45,1.11-2.82,1.88-4.77ZM78.88,153.44c.76-1.72,1.35-3,1.9-4.29.47-1.13-1.5-5.5-2.65-5.88-.28-.09-.68-.01-.95.13-.85.42-1.77.79-2.45,1.42-.38.36-.63,1.37-.4,1.76,1.33,2.19,2.82,4.29,4.55,6.85ZM94.62,108.67c.59,1.7.94,2.93,1.46,4.08.17.38.79.75,1.22.77,1.96.08,3.92.04,6.04.04-.14-1.66-.21-3.07-.42-4.46-.05-.33-.62-.83-.94-.82-2.34.06-4.69.23-7.36.38ZM118.04,83.63c2.14-.43,4.15-.72,6.08-1.3.54-.16,1.29-1.32,1.14-1.76-.78-2.33-1.81-4.58-2.9-7.21-1.57,3.73-2.91,6.92-4.32,10.27ZM121.96,237.02c.18.06.35.12.53.18.87-2.04,1.88-4.03,2.54-6.13.19-.6-.48-1.99-1.06-2.21-1.88-.7-3.89-1.03-6.05-1.55,1.4,3.37,2.72,6.54,4.04,9.71ZM191.83,227.43c-2.66.62-5.08,1.19-7.89,1.85,1.23,2.83,2.36,5.43,3.65,8.4,1.53-3.71,2.85-6.9,4.24-10.25ZM183.89,82.05c2.94.58,5.44,1.08,7.87,1.56-1.36-3.22-2.7-6.4-4.22-10-1.27,2.93-2.42,5.57-3.66,8.43ZM255.79,133.67c2.52-2.67,2.31-3.73-1.42-6.61-1.32,1.57-2.65,3.15-3.99,4.73,1.98.68,3.69,1.28,5.41,1.87ZM52.17,176.22c-.28,1.34-1,2.67-.6,3.41.69,1.31,2.06,2.26,3.26,3.47,1.03-1.63,2-3.15,3.07-4.85-1.04-.31-1.88-.53-2.7-.82-.82-.29-1.62-.64-3.03-1.21ZM53.7,126.31c-.28,1.44-.51,2.56-.72,3.68-.24,1.3,1.08,3.05,2.19,2.78,1.54-.38,3.04-.94,4.86-1.51-2.22-1.73-4.19-3.28-6.32-4.94ZM255.39,90.37c-1.34,1.64-2.51,3.06-3.67,4.48,2.85-.16,5.62,1.21,8.67-.45-1.84-1.49-3.3-2.66-5-4.03ZM255.59,220.36c1.3-.96,2.41-1.72,3.44-2.58.38-.31.89-1.02.76-1.26-.24-.46-.87-1.01-1.34-1.01-2.05,0-4.1.18-6.61.32,1.4,1.69,2.5,3.03,3.74,4.53ZM54.25,220.4c1.08-1.62,1.96-2.94,3.01-4.51-2.17-.16-3.92-.34-5.67-.38-.46-.01-1.15.31-1.33.68-.15.31.15,1.04.48,1.35,1.04.96,2.18,1.8,3.5,2.86ZM248.14,270.56c-1.24.79-2.38,1.15-2.84,1.92-.45.76-.62,2.38-.16,2.83.71.69,2.07.8,3.18.9.18.02.72-1.33.67-2.02-.08-1.11-.5-2.2-.86-3.62ZM49.94,94.27c.07.24.14.47.21.71h7.36c-1.3-1.59-2.27-2.77-3.38-4.13-1.52,1.24-2.86,2.33-4.19,3.42ZM257.79,178.31c-2.3-4.3-3.21-4.39-5.98-1.07,1.88.34,3.67.66,5.98,1.07Z"/>
</svg>