<?xml version="1.0" encoding="utf-8"?>
<!-- Generator: Adobe Illustrator 28.1.0, SVG Export Plug-In . SVG Version: 6.00 Build 0)  -->
<svg version="1.1" id="Layer_1" xmlns="http://www.w3.org/2000/svg" xmlns:xlink="http://www.w3.org/1999/xlink" x="0px" y="0px"
	 viewBox="0 0 595.3 841.9" style="enable-background:new 0 0 595.3 841.9;" xml:space="preserve">
<style type="text/css">
	.st0{fill:#FFFFFF;}
	.st1{fill:#B8C7A8;}
</style>
<g>
	<rect x="44.3" y="184.6" class="st0" width="500" height="500"/>
	<path class="st1" d="M545.7,684.6c-166.9,0-333.3,0-500,0c0-166.7,0-333.1,0-499.8c1.1-0.1,2-0.1,3-0.1c164.4,0,328.9,0,493.3-0.1
		c2.9,0,3.7,0.6,3.7,3.6c-0.1,163.3,0,326.7,0,490C545.7,680.3,545.7,682.3,545.7,684.6z M218.2,533.1c-0.6,0.3-1.2,0.4-1.6,0.7
		c-9.9,5.2-15.7,13.7-18.1,24.3c-3.7,16-0.2,30.1,12.3,41.3c5.6,5.1,12.6,7.5,20.1,8.2c1.8,0.2,4.2,0.9,4.9-2.3
		c0.8-3.5,1.9-7,3.4-10.2c3-6.5,6.5-12.7,9.7-19.1c2.6-5.2,6.3-7.4,12-6.6c2.6,0.3,5.2,1.1,7.6,2.1c5.1,2.2,10.1,4.7,15.3,7.2
		c0.4-2.2,0.8-4.4,1.3-7.3c-11.9-3.7-16.6-13.3-19.8-24.2c-0.8-2.8-2.2-5.3-5.8-5.3c-3.5,0-5.2,2.2-6.1,5
		c-4.6,14.1-12.5,26.6-19.2,39.7c-1.6,3.1-3.3,6.2-5.3,9.1c-0.7,0.9-2.6,1.8-3.7,1.5c-4.5-1-8.4-3.1-11.4-6.7
		c-13.7-16.1-8.1-44.7,9.3-50.3C221.4,537.8,219.8,535.5,218.2,533.1z M305.8,290.4c-1.7,7.1-1.8,7.4,4.3,10.4
		c5.6,2.7,8.9,6.8,10.9,12.5c0.8,2.3,1.8,4.5,2.8,6.7c1.4,3.2,2.2,7,6.8,6.9c4.6,0,5.5-3.8,6.7-7c5.6-15.1,13.8-28.9,21.6-43
		c0.6-1.1,1.1-2.3,2-3c1-0.8,2.7-1.7,3.6-1.4c3.6,1.6,7.6,3,10.2,5.7c15.5,16,9.4,44.4-7.6,51.2c1.3,2.3,2.7,4.5,4,6.7
		c4.5-1.1,8.2-3.5,11.5-7.5c5.8-7,8.9-15.1,9.8-24.1c2.3-21.7-12.5-40.2-34-42.6c-1.5-0.2-3,0.2-3.7,0.3c-0.9,3.8-1.2,7.1-2.6,10
		c-3.5,7.2-7.5,14.2-11.3,21.2c-3,5.6-7.4,7.9-13.7,6.3c-3.6-0.9-7.1-2.4-10.5-3.9C313,294.2,309.4,292.2,305.8,290.4z M237,261.9
		c-12-0.5-21.8,2.9-29.4,11.2c-11,12.1-13.2,26.3-8.1,41.5c3.2,9.6,8.7,17.6,18.9,21.4c1.7-2.6,3.1-4.8,4.1-6.5
		c-3.2-2.6-6.6-4.5-8.9-7.4c-5.6-7-8.5-15.2-7.4-24.3c1.3-10.7,5-20.1,16-24.6c5.4-2.2,5.5-2.2,8.4,2.8c8.4,14.9,16.9,29.8,22.9,46
		c1,2.8,2.6,4.8,5.9,4.8c3.3,0,4.8-2,6-4.8c1.6-4.1,3-8.3,5.2-12.1c1.6-2.8,4.1-5.4,6.6-7.5c2.4-2,5.3-3.3,8-4.9
		c-0.5-2.5-0.9-4.6-1.4-7.1c-1.6,0.9-2.9,1.6-4.3,2.3c-5.1,2.3-10.1,4.9-15.4,6.6c-7.2,2.3-11.7,0.1-15.2-6.6
		c-3-5.8-5.9-11.8-9.1-17.5C237.3,271.3,235.3,267.5,237,261.9z M454.2,572.4c1.5,0,3.7,0.1,5.9-0.1c0.7-0.1,1.8-1.1,1.8-1.7
		c0.1-3.5,0.6-7.1-0.2-10.4c-2-8.5-0.6-12,7.1-16.1c1.7-0.9,3.5-2.1,4.5-3.6c3.2-4.8,3.7-10.2,2.2-15.8c-0.6-2.2-1.7-3-4-2.4
		c-5.8,1.4-11.6,1.5-17.2-0.6c-6.5-2.5-13.2-3.2-20-2.7c-2.6,0.2-4.2-0.7-5.6-2.9c-8.1-12.2-15.9-24.5-20.4-38.6
		c-0.9-2.7-2.5-4.6-5.7-4.6c-3.3-0.1-5.1,1.7-6.2,4.5c-1.3,3.4-2.8,6.7-3.9,10.2c-1.9,5.7-5.3,9.9-10.6,12.8c-4.8,2.7-5,3.8-3,9.6
		c1.1-0.5,2.2-0.9,3.2-1.5c4.2-2.4,8.3-5,12.6-7.2c7.7-4,14-2.2,18.5,5.2c3.7,6.1,7.5,12.1,11.1,18.3c1.5,2.6,3.3,3.6,6.4,3.5
		c12.5-0.2,25.1-0.1,37.8-0.1c0.1,2.9-1.7,5.3-4.1,7.3c-2.2,1.9-4.5,3.5-6.7,5.3c-3.8,3-5.5,6.9-5,11.8
		C453.2,559,453.6,565.3,454.2,572.4z M207.9,536.7c-3.3-2.6-4.9-2.6-7.4,0.5c-1.4,1.7-2.7,3.5-3.9,5.3c-5.3,7.9-15.4,7.5-20.2-0.8
		c-3.7-6.5-7.5-12.9-11.5-19.2c-0.8-1.4-2.5-3.1-3.8-3.2c-7.8-0.4-15.8-1.6-23.5,1.5c-5.7,2.3-11.7,2.9-17.8,2
		c-2.5-0.4-3.6,0.6-4.4,2.8c-2.8,7.9,0,15.6,7.3,19.9c6.5,3.8,7.7,7.8,5.6,14.9c-1,3.3-0.8,6.9-0.9,10.4c0,0.7,1.1,2.1,1.8,2.1
		c2.3,0.3,4.7,0.1,6.5,0.1c0.3-5.3-0.1-10.2,1-14.8c2-8.3-0.3-14.2-7.1-19.1c-3.1-2.2-5.5-5.6-8-8.6c-0.7-0.8-0.7-2.1-1.2-3.8
		c9.2,3.2,17.8,2.2,26.5,1.4c2.5-0.2,5-0.1,7.6-0.2c2.3-0.1,3.9,0.8,5.2,2.7c7,10.7,14.1,21.2,18.6,33.3c1,2.6,2,5.2,3.4,7.5
		c2.3,3.7,7.5,3.5,9.5-0.4c1.4-2.7,2.7-5.6,3.4-8.5c2.1-9.5,5.7-18.2,13-25C207.9,537.2,207.9,536.9,207.9,536.7z M472.9,427.4
		c1.7,0.8,3.2,1.1,4.4,2c2.6,2,4.8,1.6,7.7,0.1c8.6-4.5,20.2-1.7,26.1,6.1c9.8,12.8,9,37.5-1.5,49.7c-2.8,3.3-6.5,5.3-10.7,5.9
		c-9,1.4-16.4-1.8-22.8-7.9c-3-2.8-5.6-5.9-8.7-8.5c-3.6-3.1-8.5-2.1-10.7,1.8c-2,3.5-0.8,5.7,2.9,6.7c2.7,0.7,5.3,2,7.6,3.5
		c3.2,2.2,6,5.1,9.2,7.5c14.6,10.9,34.3,6.9,43.7-8.7c6.5-10.8,7.8-22.5,6.3-34.7c-1.6-13.2-7.5-23.8-19.9-29.9
		C495.3,415.9,480.3,418.6,472.9,427.4z M121.4,341.6c-0.3-0.3-0.7-0.7-1-1c1.9-2.5,3.6-5.1,5.7-7.3c2.1-2.2,4.7-3.9,7.1-5.9
		c2.9-2.5,4.6-5.7,4.4-9.5c-0.4-7.1-1.1-14.3-1.8-21.9c-1,0-2.7,0.2-4.3,0c-2.6-0.3-3.8,0.8-3.8,3.2c0.1,3.2-0.1,6.6,0.8,9.7
		c2.2,7.4,1.1,11-5.5,14.9c-7.7,4.6-10.5,11.8-8,20.4c0.7,2.4,1.8,2.9,4.2,2.7c4.7-0.4,9.4-0.4,14.1-0.1c3.5,0.2,6,2.3,7.5,5.7
		c1.5,3.4,3.1,6.8,4.8,10.1c1.3,2.7,2.9,5,6.4,4.8c3.3-0.2,4.6-2.5,5.7-5.2c1.5-3.8,3.1-7.5,4.5-11.3c1.7-4.7,4.7-8.6,9-11
		c6.3-3.5,12.9-6.5,19.3-9.8c2.2-1.1,4.3-2.5,6.5-3.8c-0.1-0.4-0.3-0.8-0.4-1.2c-1.2-0.2-2.4-0.6-3.6-0.6
		c-10.8-0.1-19.9,4.2-28,10.8c-6.5,5.3-13.6,6.7-21.9,5.5c-5.4-0.8-10.9-0.4-16.4-0.3C124.9,340.5,123.2,341.2,121.4,341.6z
		 M148.9,434.4c0-0.3-0.1-0.7-0.1-1c-0.7-0.3-1.3-0.7-2-0.8c-6.8-1.2-13.6-2.7-20.4-3.3c-10.3-1-16.7-5.9-19.3-15.9
		c-2.7-10.5-0.3-20,5.3-29c1.7-2.8,4.5-4.1,7.7-4.5c4.3-0.5,7.9,0.9,11.1,3.8c3,2.7,6.3,5.1,9.9,8c0.2-3.4,0.4-5.7,0.4-8.1
		c0-0.7-0.3-1.6-0.8-2c-5.3-4.1-8.1-9.7-10.4-15.8c-0.3-0.8-1.1-1.9-1.8-2c-4.7-1-9.4-1.8-13.6-2.6c-4.1,7.9-8.4,15.6-12.1,23.7
		c-2.2,4.7-4.4,9.7-5.1,14.8c-2.9,20.3,9.5,41.4,35.1,38.2C138.1,437.2,143.5,435.6,148.9,434.4z M216.1,609.7
		c3.7,2.1,7.3,3.9,10.6,6.1c4.4,2.9,8.4,6.5,13,8.9c4.4,2.3,9.3,4.5,14.1,4.9c13.2,1.2,24.1-6.7,28.7-19.6c0.6-1.8,1.2-3.5,1.8-5.3
		c0.4,0.1,0.8,0.2,1.1,0.3c-0.3,1.6-0.3,3.3-0.8,4.9c-2.8,8.9-8.3,15.6-16.7,19.8c-1.1,0.5-2.3,1.5-2.6,2.5c-0.9,2.7-1.5,5.5-2,8.3
		c-0.5,3.6,2.8,7.6,6.5,8.2c0.2-2.7,0.5-5.4,0.7-8.2c0.3-4.5,2.6-7.8,6.3-10.2c4.2-2.7,7.3-5.9,9-10.4c2-5.3,3.7-10.8,4.9-16.4
		c1-4.4-0.2-8.7-3.7-12c-1.5-1.4-2.8-3.3-3.5-5.2c-2.1-5.9-8.6-11.1-15.5-11.6c1,1.7,2,3.3,2.9,4.9c4,6.9,5.9,14.2,5,22.1
		c-1.4,13.2-11.9,21.4-24.7,18.8c-3.5-0.7-6.8-3-10.1-4.5c-5.1-2.3-10-4.9-15.2-6.8C222.9,608,219.4,608,216.1,609.7z M107.9,370.6
		c0.5-1.3,1-2.3,1.5-3.4c1.8-4.5,1.8-4.5-2.8-6.2c-12.7-4.5-27.7,0.7-35,13.3c-11.2,19.2-10.5,38.8,0.3,58
		c4.9,8.7,13.2,13.4,23.1,14.6c8.7,1.1,16.3-1.7,23.7-7c-2.8-1.4-5.1-2.6-7.5-3.6c-1.2-0.4-2.7-0.7-3.8-0.3
		c-12.1,5-24.1,0.9-29.7-10.9c-6.4-13.7-6.8-27.9-1.1-41.9C82,369.5,93.7,364.9,107.9,370.6z M217,260.3c3.4,1.3,7.5,1.2,11.2-0.5
		c5.2-2.3,10.3-4.8,15.1-7.9c13.8-9.1,31-1.1,32.8,15.3c0.9,8.1-1,15.5-5,22.4c-0.9,1.6-1.9,3.2-2.8,4.9c0.2,0.2,0.4,0.4,0.6,0.6
		c2.4-1.2,4.8-2.6,7.4-3.5c4.5-1.6,6.7-5,7.6-9.5c0.2-1.1,0.7-2.5,1.5-3.1c6.7-4.7,6.8-11,4.5-17.9c-1.7-5.2-3.8-10.4-5-15.7
		c-0.6-2.4-1.4-3.5-3.6-4.4c-7.3-2.9-11.3-8.1-10.6-16.3c0.1-1.6-0.1-3.2-0.2-4.9c-5.4,2.1-7.3,5.3-6.3,10.3c0.3,1.7,1,3.4,1.1,5.1
		c0.2,2.5,1.5,3.8,3.7,4.8c8.8,4.2,14.1,11.4,16.5,20.7c0.3,1.1,0,2.3,0,3.5c-0.3,0-0.6,0.1-0.9,0.1c-0.5-1.6-1-3.2-1.6-4.8
		c-6.4-18.7-26.4-25.8-43-15.1C232.1,249.6,224.5,255.1,217,260.3z M321.2,574.9c-0.2-0.2-0.4-0.4-0.5-0.5c-2.2,1-4.3,2.2-6.5,3
		c-4.4,1.6-6.9,4.6-7.9,9.2c-0.4,1.7-1.8,3.4-3.2,4.7c-2.6,2.4-4.1,5.3-4,8.7c0.1,2.8,0.5,5.7,1.2,8.4c1.4,5.1,3.4,10,4.7,15.1
		c0.6,2.2,1.2,3.6,3.5,4.4c7.5,2.7,11.6,8,11,16.3c-0.1,1.5,0.2,3.1,0.4,4.8c5.9-2.6,7.3-5.3,5.9-10.7c-0.3-1.4-0.9-2.8-0.9-4.2
		c-0.1-2.6-1.4-3.8-3.6-4.9c-8.9-4.3-14.2-11.5-16.7-20.9c-0.3-1.1-0.2-2.4-0.3-3.6c0.3-0.1,0.7-0.1,1-0.2c0.7,2,1.3,4,2,5.9
		c6,17.1,25,24.6,40.2,15.5c8.7-5.2,16.9-11.1,25.7-17.1c-3.3,0-6.5-0.4-9.6,0.1c-6.1,0.9-11.3,3.9-16.3,7.4
		c-14.1,10-30.8,2.9-33.5-14.2c-1.2-7.5,0.4-14.6,3.9-21.3C318.9,578.9,320.1,577,321.2,574.9z M373.6,260.9c0-0.5,0.1-1,0.1-1.5
		c-7.1-1.5-12.2-6.3-17.7-10.4c-1.7-1.3-3.3-2.5-5.1-3.7c-17.2-11.6-38.3-4-44.2,15.9c-0.3,1.1-0.8,2.1-1.2,3.1
		c-0.3-0.1-0.6-0.1-0.9-0.2c0-1.1-0.2-2.2,0-3.2c2.5-9.7,8.3-16.8,17.4-21.1c1.2-0.5,2.5-1.6,2.9-2.7c0.9-2.6,1.3-5.3,1.7-8
		c0.5-3.4-3-7.6-6.7-7.9c-0.2,2.6-0.4,5.2-0.6,7.8c-0.3,4.4-2.4,7.6-6.2,9.9c-2.7,1.6-8.2,7.7-9.2,10.6c-1.8,5.2-3.7,10.4-4.9,15.7
		c-1.1,4.6-0.2,8.9,3.7,12.3c1.4,1.3,2.3,3.2,3.2,5c1.2,2.3,1.4,5.6,3.2,7c3.5,2.6,7.8,4.2,11.7,6.2c-0.7-2.6-1.8-4.6-2.9-6.6
		c-4.2-8-5.9-16.3-3.4-25.2c3.1-11,12-17,23-15c3.8,0.7,7.4,3.1,11,4.8c5.1,2.4,10.1,5.3,15.4,7.1
		C367,261.7,370.5,260.9,373.6,260.9z M468.8,341.8c-2.9-0.6-5.4-1.6-8-1.6c-6.2,0-12.5,0.2-18.7,0.9c-7.8,0.9-14.5-1.1-20.1-6.7
		c-2.5-2.4-5.2-4.9-8.3-6.4c-3.1-1.6-6.8-2.9-10.2-3c-7-0.2-10.3,6-7.1,12.2c1.1,2.2,2.6,3.1,5,2.4c4.9-1.3,9.4-0.2,13.6,2.2
		c3.1,1.7,6,3.7,9,5.5c1.1,0.7,2.3,1.6,3.5,1.8c7.7,1,15.5,2.5,23.1-0.6c6.5-2.6,13.1-3.5,20-1.9c0.9,0.2,2.4-0.4,2.9-1.1
		c4.3-6.6,1.4-17.4-5.5-21.2c-7.3-4-8.7-8.1-6.6-16.1c0.8-3,0.4-6.4,0.3-9.6c0-0.6-1.1-1.7-1.8-1.8c-2.2-0.2-4.5-0.1-5.8-0.1
		c-0.6,6.8-1,12.7-1.7,18.7c-0.6,5.5,1.1,9.9,5.6,13.2c2.1,1.5,4.2,3.1,6.2,4.9C466.8,335.4,468.8,337.9,468.8,341.8z M130,463.5
		c1.7,3,4.3,4.7,7.3,4.8c6.9,0.3,13.8,0.1,20.7,0.1c3,0,5.1-1.6,6.6-4.2c4-6.7,8.1-13.3,12.1-20c4.6-7.5,15-7.5,19.7-0.1
		c2,3.2,4.1,6.5,6.3,9.7c2.7,3.9,7.3,5.2,12.2,3.4c-0.4-0.7-0.8-1.3-1.3-1.9c-8.4-11.4-15.9-23.2-20.2-36.8c-0.3-1-0.8-2-1.4-3
		c-2.3-4.1-7.8-4.1-10.2-0.1c-0.9,1.5-1.7,3.1-2.2,4.8c-4.2,12.4-11.6,23.1-18.3,34.2c-2.7,4.5-5.9,6.4-11.2,6
		C143.4,459.8,136.6,460.1,130,463.5z M458.3,404.5c-2.5-3.2-5.8-4.9-9.7-5c-3.8-0.1-7.7-0.2-11.5,0c-4.1,0.3-6.9-1.3-9-4.8
		c-6.9-11.4-14.4-22.4-18.5-35.2c-0.4-1.4-1.1-2.6-1.7-3.9c-1.1-2.4-2.6-4.3-5.7-4.2c-3.1,0.1-5,1.7-6,4.4
		c-3.9,10.9-9,21.2-15.5,30.8c-0.5,0.7-0.6,2.3-0.2,3c1.2,1.9,2.8,3.6,4.4,5.7c2.1-3.6,4.2-6.7,5.9-10c2.4-4.5,5.5-7.6,11-7.6
		c5.6-0.1,8.8,3.1,11.3,7.6c3.5,6.5,7.4,12.7,11,19.1c1.2,2.2,2.8,3.4,5.4,3.6C439.2,408.6,448.8,408.9,458.3,404.5z M204.6,394.8
		c1.1-1.3,1.7-2.1,2.3-2.8c3.3-4.2,3-4,0.5-8.5c-4-7.4-7.7-15-11.4-22.5c-1-2-1.6-4.1-2.5-6.1c-1-2.3-2.5-4-5.4-4.1
		c-2.9,0-4.7,1.4-5.8,4c-0.2,0.4-0.4,0.8-0.5,1.2c-4.7,12.9-11.5,24.6-18.8,36.2c-2.9,4.7-6.2,6.8-11.7,6.4c-3.9-0.3-7.9,0-11.8,0.5
		c-2.9,0.4-5.7,1.5-6.7,4.9c7.2,3.4,14,4.1,26.9,3.2c2.8-0.2,4.6-1.2,6-3.7c4-7,8.3-13.7,12.2-20.7c4.5-7.9,16.6-7.1,19.8,0.1
		C199.5,386.8,202.1,390.5,204.6,394.8z M366.6,540.5c9.6,3.4,13.5,11.1,15.7,19.7c1.1,4.1,1.1,8.7,0.8,13c-0.5,7-3.8,13.1-8.2,18.4
		c-5.1,6.1-13.6,7.8-21.7,5.1c-3.4-1.1-7.2-1.9-10.8-1.8c-3.7,0.1-6.5,3.4-7,6.9c-0.5,3.2,0.6,5.8,3.4,7.6c3.2,2.1,6.6,2.1,9.6-0.2
		c2.2-1.7,4.5-2,7.1-1.8c6.4,0.4,12.4-1,18-4.2c23.5-13.5,25.8-49.8,4.2-66.3c-1.9-1.4-4-2.5-6.1-3.9
		C369.7,535.7,368.3,537.9,366.6,540.5z M280.5,448.9c-2.2-3.6-4.7-7-6.5-10.7c-3-6.2-5.6-12.6-8.4-19c-1.2-2.7-2.7-4.7-6-4.7
		c-3.3,0-5.1,2-6,4.7c-4.5,13.1-12,24.6-19.5,36.1c-2.6,4-5.6,5.8-10.2,5.5c-4.3-0.3-8.6-0.4-12.8-0.7c-2.1-0.2-3.7,0-3.7,2.7
		c0,1-0.6,2.1-0.9,3.2c9.1,3.6,18.3,3.7,27.7,2.8c1.1-0.1,2.4-1.4,3.1-2.5c4.1-6.6,8.1-13.3,12.1-20c4.8-7.9,15.6-7.9,20.2,0.2
		c1.7,2.9,3.4,5.8,5.2,8.9C276.8,453,278.6,451,280.5,448.9z M381.8,461.7c-6.3,0-12.3-0.2-18.3,0.1c-3.4,0.1-5.5-1.2-7.3-4
		c-7.8-12.1-16-24-20.5-37.8c-0.3-0.8-0.7-1.6-1.1-2.4c-1.2-2.2-3-3-5.4-2.9c-3.2,0.1-4.5,2.3-5.6,4.8c-3.4,7.6-6.6,15.3-10.5,22.7
		c-3.5,6.5-3.9,6.3,1.3,11.8c0.1,0.1,0.2,0.1,0.7,0.4c1.6-2.7,3.1-5.4,4.8-8.1c4.8-7.4,15.1-7.3,19.6,0.2
		c4.1,6.9,8.2,13.8,12.6,20.5c0.9,1.4,2.8,3,4.2,3c7,0,14-0.3,21-0.8c2.8-0.2,6-0.8,4.4-5.2C381.3,463.2,381.7,462.2,381.8,461.7z
		 M413,365c0.4,0.1,0.8,0.2,1.3,0.3c0.3-0.3,0.7-0.5,1-0.8c6.2-5.2,9.5-4.9,14.6,1.4c0.3,0.3,0.5,0.7,0.8,1c4.2,5.1,8,5.3,12.8,0.8
		c0.8-0.8,1.5-1.6,2.3-2.3c4.5-4.3,8.2-4.1,12.4,0.4c0.7,0.8,1.4,1.7,2.1,2.5c3.1,4.2,6.9,7.6,12,9.3c4.3,1.4,6.8,4.7,7.9,9
		c1.8,7,0.6,13.5-3.1,19.6c-1.8,3-3.6,6.1-4.9,9.3c-0.7,1.8-0.5,4-0.7,6c0.3,0,0.6,0.1,0.9,0.1c4.2-6.4,8.7-12.6,12.5-19.3
		c1.9-3.2,3-7.1,3.5-10.9c1.3-8.4-2.4-16.1-9.6-19.6c-6.9-3.4-12.8-7.8-18.2-13.3c-6-6.1-13.4-7.5-21.5-4c-0.9,0.4-2.4,0.4-3.3-0.1
		c-9.3-4.7-16.6-2.9-22.4,5.9C413,361.6,413.2,363.5,413,365z M458.9,621.7c0.4,0,0.8-0.1,1.2-0.1c0.7-2.2,1.4-4.5,2.2-6.7
		c2.9-7.3,2.4-14-2-20.7c-6.3-9.5-11.6-19.6-14.9-30.7c-0.2-0.5-0.3-1.2-0.7-1.5c-1.7-1.3-3.5-3.5-5.3-3.6c-1.8-0.1-4.3,1.6-5.5,3.2
		c-1.7,2.5-2.7,5.5-3.7,8.4c-2.5,7.5-6.8,13.7-13,18.7c-2.7,2.1-5.2,4.4-7.5,7c-0.9,1-0.8,2.9-1.2,4.3c1.6,0.3,3.4,1.2,4.7,0.6
		c2.5-1,4.8-2.7,6.9-4.3c3.3-2.6,6.3-5.5,9.6-8c5.9-4.4,13.9-3.4,18.6,2.3c5.4,6.4,8.9,13.5,8.6,22.2
		C457,615.7,458.3,618.7,458.9,621.7z M132.7,248.3c-0.4,0.1-0.7,0.1-1.1,0.2c-4.5,8.8-7.9,17.4-1.2,27c6.1,8.6,10.9,18,13.9,28.3
		c0.4,1.3,1.1,2.6,1.9,3.8c2.4,3.7,7.6,3.6,9.9-0.2c1.1-1.8,1.8-3.7,2.6-5.7c3.3-8.8,8.1-16.5,14.9-23c2.5-2.3,4.9-4.8,7-7.4
		c0.7-0.9,1.1-3.1,0.5-3.6c-0.9-0.8-3-1.3-3.9-0.8c-2.8,1.6-5.5,3.6-8,5.7c-3.2,2.6-6.2,5.6-9.5,8.2c-5.1,3.9-13.3,3-17.3-1.9
		c-5.3-6.4-9.4-13.2-8.3-22.1C134.5,254,133.2,251.1,132.7,248.3z M457.6,248.1c-0.5,4.1-1.3,7.3-1.2,10.6
		c0.3,7.1-1.9,13.1-6.2,18.6c-5.8,7.5-12.5,9.3-21.4,5.5c-7.2-3.2-14.5-6.4-21.7-9.5c-0.6-0.3-1.4-0.4-2.3-0.6
		c-0.1,3.5,1.7,5.8,4,7.4c4.1,2.9,8.6,5.3,12.7,8.2c2.1,1.5,4.3,3.4,5.6,5.7c2.3,4.1,3.9,8.6,5.9,12.9c1.2,2.7,2.7,5.1,6.2,5.1
		c3.6,0,5.4-2.4,6.3-5.3c3.5-11.8,9.7-22.3,15.9-32.8C465.6,266.5,464.1,255.5,457.6,248.1z M130.1,621.4c0.5,0.1,1.1,0.1,1.6,0.2
		c0.6-2.9,1.7-5.8,1.6-8.7c-0.4-8.1,2.5-14.8,7.4-20.9c4.5-5.6,10.2-7.8,17.2-5.9c2.2,0.6,4.3,1.6,6.4,2.5
		c6.5,2.8,12.9,5.5,19.4,8.3c0.7,0.3,1.6,0.4,2.8,0.7c-0.7-4.1-3.1-6.5-5.9-8.4c-3.6-2.5-7.4-4.7-11.3-6.8c-3.1-1.7-5.1-4-6.5-7.1
		c-2.2-4.8-4.3-9.6-6.8-14.3c-2.1-3.9-7.3-4-9.8-0.3c-1,1.5-1.5,3.4-2.2,5.1c-2.5,6-4.8,12-7.6,17.8c-2.2,4.4-5.1,8.5-7.6,12.7
		c-2.5,4.1-3.3,8.7-2.2,13.3C127.4,613.7,128.8,617.5,130.1,621.4z M446.8,634.4c-6.7,2-9.1,8-6.2,14c2.3,4.8,1.6,6.4-3.7,7.7
		c-6.2,1.5-12.4,0.9-18.6-0.5c-2.6-0.6-5.3-2.6-7.9,0.2c-0.3,0.3-1.3,0-1.9-0.3c-1.8-0.7-3.7-1.3-5.4-2.3
		c-11.5-6.6-14.4-21.8-6.6-34.1c0.6-0.9,1.2-1.9,2.3-3.6c-4.7,1.4-8.4,2.4-12,3.6c-0.8,0.3-1.5,1.2-1.8,2.1
		c-7.1,19.6,4.8,40.3,25.4,43.6c7.6,1.2,15.5,0.9,23.3,0.7c3.6-0.1,7.3-1.5,10.9-2.3c1.8-0.4,2.4-1.5,2.4-3.4
		c-0.1-4.4-0.1-8.8-0.1-13.2C446.8,642.7,446.8,638.8,446.8,634.4z M143.7,635.3c0,7.7,0.2,15.3-0.1,23c-0.1,3.3,1.2,4.7,4.2,5.5
		c13,3.5,26,3.1,38.6-1c15.2-5,23.5-21.2,19.8-36.8c-1.6-6.7-6.7-10.3-13.9-9.5c1.2,2.3,2.5,4.4,3.5,6.7c5.9,13.5-0.3,27.9-14,32.2
		c-0.8,0.3-2.3,0.5-2.7,0.1c-1.5-1.9-3.1-1.1-4.8-0.6c-2.3,0.7-4.7,1.4-7,1.7c-5.6,0.8-11.2,0.6-16.5-1.5c-2.4-1-3.7-2.3-1.9-5
		c1-1.5,1.9-3.3,2.3-5.1C152.4,639.9,148.9,635.3,143.7,635.3z M397.6,253.9c-1.6-3.8-3.3-7.1-4.4-10.5
		c-3.9-12.3,2.1-24.3,14.1-28.8c0.9-0.3,2.5-0.8,2.7-0.4c2,2.6,4.2,1,6.2,0.4c5.9-1.9,11.9-2.8,18.2-1.7c7.7,1.3,8.7,3,5.4,10
		c-2.5,5.3,1.5,12.3,6.9,11.4c0-5.9,0-11.9,0-17.9c0-10.6,0.1-10.9-10.5-12c-6.3-0.7-12.7,0.1-19,0c-24.1-0.3-39.9,21.5-32,44.1
		c0.3,0.9,1.1,2,2,2.3C390.5,251.9,393.9,252.8,397.6,253.9z M504.4,605c0.5,0.7,1.3,1.4,1.9,2.3c2.9,4.4,6.4,8.5,8.6,13.2
		c8.3,18.2-3.6,37.3-22.6,36.1c-4.6-0.3-9.1-2.7-13.7-4.2c-1-0.3-2.3-1-2.9-0.6c-2.3,1.3-4.4,3.1-7.2,5.1c3.5,2.1,6.2,3.9,9.1,5.3
		c20.3,10,44-1.2,48.2-22.7c3.2-16.3-5-28.7-13.4-40.8C509.5,601,507,602.9,504.4,605z M191.3,254.2c4.2-1.2,7.5-2,10.7-3.2
		c1.1-0.4,2.3-1.6,2.8-2.7c6.8-17.7-1.5-35.9-19.7-41.7c-9.7-3.1-20-3.3-30.2-2.3c-2.5,0.2-4.9,1.2-7.3,1.8
		c-2.6,0.6-3.6,2.1-3.6,4.9c0.2,6.8,0,13.6,0,20.4c0,0.9,0.2,1.9,0.2,2.8c6.6-0.3,9.4-7.3,5.7-13.4c-2.4-4-1.8-5.7,2.7-7.1
		c5.8-1.9,11.7-1.3,17.6-0.4c3.4,0.5,6.7,3.3,10.3,0.6c0.2-0.2,0.8,0.2,1.3,0.3c8.9,2.3,15.9,11,16.3,20.2
		C198.4,241.5,195.9,247.7,191.3,254.2z M121.8,656.8c-1.2-0.9-2.2-1.5-3-2.3c-2.8-2.5-5.3-2.7-8.9-0.8c-9.5,4.9-19.3,4.6-27.8-2.4
		c-8.6-7.1-10.2-16.6-7.2-26.9c1.8-6.5,5.6-11.9,10.1-16.8c0.8-0.9,1.7-1.9,2.3-2.6c-2.8-2.1-5.3-3.9-8.1-5.9
		c-5.8,8.2-12,16.3-14,26.7c-1.6,8.4-0.5,16.7,3.9,24.2C79.5,667.8,105.1,671.3,121.8,656.8z M121.5,212.6c-0.4-0.5-0.7-1-1.2-1.3
		c-11.5-8.3-23.9-10.7-36.9-4.5c-12.8,6-18.6,16.8-18.6,30.8c0,12.9,7.3,22.7,14.3,32.6c0.1,0.1,0.4,0-0.1,0c2.8-2.2,5.2-4,7.8-6
		c-0.5-0.6-1.3-1.4-2-2.4c-2.8-4.1-6-8-8.1-12.3c-5.3-10.7-3.5-22.2,3.9-29.7c7.5-7.6,18.7-9.7,28.9-4.4c4.6,2.4,7.6,1.8,10.8-1.6
		C120.5,213.3,121,213,121.5,212.6z M469.2,212.6c5.1,5.2,6,5.4,12,2.6c17.6-8.3,36.5,3.4,35.9,22.3c-0.3,8.8-4.6,15.9-10,22.4
		c-1.2,1.5-2.5,2.9-3.5,4.1c2.8,2,5.2,3.7,7.9,5.6c6.1-8.3,12.5-16.6,14.2-27.5c2.3-15-4.4-28.5-17.3-35
		C495.9,200.8,478.8,203.1,469.2,212.6z M318.2,556.4c1.1-2.8,2.2-4.8,2.7-7c0.3-1.3,0.3-3.2-0.5-4.2c-8.4-11-15.3-22.7-19.8-35.9
		c-0.9-2.5-2.7-4-5.4-4c-2.8,0-4.8,1.3-5.8,4c-4.7,13.2-11.9,24.9-20.2,36c-0.6,0.9-1.2,2.3-0.9,3.2c0.6,2.4,1.7,4.7,2.7,7.4
		c0.8-0.8,1.2-1.3,1.6-1.8c4.4-6.1,8.6-12.2,13.1-18.2c4.6-6.3,14-6.2,18.7,0.1c1,1.4,2,2.9,2.9,4.4
		C310.7,545.5,314.2,550.6,318.2,556.4z M271.8,313.4c-4.3,7-4.3,7.5-0.1,13.4c0.8,1.1,1.5,2.2,2.2,3.3c6.8,9.3,11.6,19.6,15.9,30.2
		c1.5,3.7,5.4,4.9,8.4,2.8c1.3-0.9,2.4-2.6,2.9-4.2c4.5-12.9,11.5-24.4,19.6-35.3c0.6-0.8,0.9-2.3,0.6-3.2c-0.7-2.3-1.8-4.5-2.9-7.1
		c-0.9,1.2-1.6,2-2.2,2.9c-3.8,5.4-7.5,10.9-11.3,16.2c-5.4,7.6-14.7,7.5-20-0.1c-2.4-3.4-4.7-6.9-7.1-10.3
		C276,319.2,273.9,316.5,271.8,313.4z M350.2,470.9c-0.3,0.3-0.5,0.5-0.8,0.8c1.8,2.7,3.7,5.3,5.5,8.1c2.9,4.5,5.6,9.1,4.8,14.7
		c-1.7,11.8-3.6,23.6-5.4,35.5c-0.3,1.8-0.8,3.5-1.3,5.9c8.6-5.9,11.2-14.4,13.4-23.9c3.2,6.5,3,13.4,7.4,18.7
		c0.4-0.8,0.5-1.1,0.6-1.4c0.2-0.7,0.3-1.5,0.5-2.2c1.9-9,1.8-18-0.4-26.8c-2.3-9.6,0.4-17.5,5.8-25c1.3-1.8,2.7-3.6,4.1-5.4
		c-8.5,1.6-13.2,7.9-18.2,14.3C361.9,478.2,356.9,473.5,350.2,470.9z M236.5,535.3c-0.5-2.1-1.1-4.2-1.4-6.3
		c-1.6-10-2.7-20-4.7-29.9c-1.4-7-0.2-13,3.7-18.8c1.4-2.1,2.9-4.1,4.3-6.3c0.6-0.9,1.1-2,1.7-3c-7.5,2.1-12.6,6.9-16.9,13.2
		c-4.9-6.9-10-12.8-18.1-14.9c0.5,1.3,1.3,2.3,2.1,3.3c7,8.6,11.2,17.8,7.6,29.2c-0.3,0.8-0.3,1.7-0.4,2.6
		c-1.5,8.8-1.1,17.4,1.5,26.7c4.4-5.8,4.5-12.7,7.2-18.6C225.3,521.3,228.3,529.7,236.5,535.3z M352.8,333.1
		c0.6,2.9,1.2,4.9,1.5,6.9c1.4,9.7,2.1,19.5,4.2,29c1.8,8.1,0,14.7-4.3,21.2c-1.6,2.3-3.1,4.7-4.6,7.1c7.7-1.5,12.2-7,16.7-12.5
		c11.2,12.3,13.7,14.2,18,13.8c-0.8-0.9-1.4-1.8-2.1-2.6c-6.7-8.3-10.5-17.3-7.7-28.4c1.3-5.2,1.4-10.9,1.4-16.4
		c0-4.2-1-8.5-1.5-12.7c-0.3,0-0.7,0-1,0c-4.1,5.4-4,12.4-6.8,18.6C364.2,348,361.8,339.2,352.8,333.1z M236.5,332.7
		c-8.1,6.5-11.5,14.9-13.5,24.2c-3-6.1-2.4-13.3-7.3-19.1c-2.8,10.7-3,20.6-0.8,30.6c1.4,6.5,1.5,12.9-2.2,18.8
		c-2,3.2-4.1,6.2-6.1,9.4c-0.5,0.7-1,1.5-1.9,2.8c8.4-2.8,13.6-8.4,18.1-14.7c8.6,9.6,12,12.2,17.2,13.3c-0.7-1.3-1.2-2.3-1.8-3.3
		c-1.7-2.7-3.6-5.2-5.2-8c-3.1-5.2-4-10.6-2.8-16.7C232.6,357.8,234.4,345.6,236.5,332.7z M431.1,457.8c-0.9-1.5-1.4-2.6-2.1-3.6
		c-7.6-11.6-14.9-23.4-19.3-36.7c-0.3-0.8-0.5-1.9-1.1-2.3c-1.6-1.2-3.2-2.6-5-3c-3.4-0.6-5.2,1.8-6.1,4.8
		c-3.8,12.5-10.6,23.4-17.9,34c-1.7,2.4-3.3,4.8-5.4,7.8c2.5-0.2,4.3-0.5,6.1-0.3c3,0.3,4.6-1,6.1-3.4c2.2-3.7,4.8-7.1,7.1-10.7
		c5.3-8.2,14.9-8.2,20.1,0.1c2.5,3.9,4.8,7.9,7.4,11.7c0.5,0.8,1.6,1.8,2.4,1.8C425.8,458.2,428.2,457.9,431.1,457.8z M305.3,579.6
		c1.1-0.6,2.1-1.2,3.2-1.7c5.1-2.5,10.1-5.4,15.4-7.3c8.4-3.1,13.5-0.7,17.5,7.2c2.1,4.1,4.1,8.3,6.3,12.3c2.1,3.7,8.4,6.1,11.6,5.2
		c-6.5-13-13-26.1-19.5-39.3c-1.7-3.4-2.5-7.3-4.4-10.6c-0.9-1.6-3.3-2.7-5.2-3.2c-2.4-0.6-4.2,1-5.1,3.3c-1.1,2.5-2.3,5-3,7.6
		c-2.2,7.7-6.5,13.6-14,16.8c-1,0.4-2,1.1-2.7,1.8c-0.5,0.5-1,1.4-1,2.2C304.6,575.6,305,577.4,305.3,579.6z M332,463.2
		c-3.3-1.2-4,0.3-4.6,2.7c-2,7.7-4.3,15.4-6.3,23.1c-1.9,7.6-6.5,12.7-13.4,16.6c-5.9,3.3-5.1,2.3-2.4,8.5c0.1,0.2,0.3,0.2,0.7,0.5
		c5.1-2.8,10.3-5.6,15.5-8.4c5-2.7,10.2-3.3,15.5-0.8c2.6,1.2,5,2.8,7.5,4.2c3.1,1.8,6.2,3.5,9.4,5.3c2.2-6.8,2.2-7.1-3.3-10.4
		c-4.5-2.7-7.6-6.3-9.5-11.3C337.3,483.4,332.5,474,332,463.2z M287.5,508.1c-3.2-2-6.2-4-9.4-5.8c-4.1-2.3-7-5.4-8.6-9.9
		c-3-9.1-6.3-18.2-9.5-27.3c-0.5-1.5-0.7-3.4-3.3-2.6c-0.1,1.4-0.3,2.8-0.4,4.2c-0.6,8.8-5.1,16.3-7.8,24.4
		c-1.8,5.5-5.1,9.5-10,12.5c-5,3.1-5.3,4.3-2.8,10.5c4.2-2.6,8.5-5,12.6-7.7c6.3-4.1,12.7-4.6,19.3-1.2c4.7,2.4,9.3,5,13.9,7.5
		c1,0.5,2,1.1,3.2,1.7C285.8,512.1,286.6,510.2,287.5,508.1z M235.9,353c-2.2,6.8-2,7.1,3.5,10.6c2.8,1.8,6.3,3.8,7.5,6.5
		c4.7,10.4,9.6,20.7,10.6,32.4c0.1,0.9,0.6,1.8,1,2.7c0.3,0,0.7,0,1,0c0.7-2,1.3-4.1,2-6.1c3-9,5.8-18.2,9.1-27.1
		c0.9-2.3,3.1-4.4,5.2-6c2.8-2.1,6.1-3.5,9-5.4c0.7-0.5,1.5-1.7,1.3-2.4c-0.4-1.7-1.4-3.3-2.2-5.2c-5.2,2.5-10,4.9-14.8,7.2
		c-7,3.5-13.9,3.2-20.8-0.6C244.3,357.3,240.2,355.2,235.9,353z M159.9,472.1c8.6,13,16.6,26.6,22.3,41.4c0.9,2.3,2.8,3.2,5.3,3.2
		c2.7-0.1,4.3-1.4,5.3-3.8c4.4-10.8,9.1-21.4,15.7-31.1c0.5-0.7,0.6-2,0.3-2.6c-1.3-2.1-2.8-4-4.6-6.3c-2.6,4.4-4.8,8.3-7.1,12.2
		c-4.7,8-14.8,8-19.6,0.1c-3.1-5.1-6.1-10.2-9.1-15.3c-0.6-1-1.3-1.9-1.7-2.5C164.4,468.9,162.4,470.3,159.9,472.1z M519,427.8
		c0.5-0.6,0.8-0.9,1-1.3c8.7-18.2,8.8-36.2-2.1-53.4c-9.1-14.4-27.2-18-41.8-9.1c-0.9,0.5-1.6,1.3-2.7,2.1c4.7,2.5,8.1,4.9,13.8,2.9
		c9.4-3.4,19,0.9,24,9.6c7.5,13.1,7.9,26.7,2.4,40.6c-0.4,1.1-0.5,2.9,0.1,3.6C515,424.7,517,426.1,519,427.8z M330.9,650.9
		c-0.5,0.3-1,0.4-1.3,0.6c-11.8,7-21.8,6.1-32.3-2.9c-1.7-1.5-2.8-1.4-4.4,0.2c-6.3,6.1-14,8.7-22.7,6.8c-4-0.9-7.8-2.8-11.9-4.3
		c-1.7,1.9-3.7,4.1-5.9,6.5c9.9,6.7,20.2,9.5,31.8,6.5c5.5-1.4,16.1-1.3,21.5-0.1c0.5,0.1,1.1,0.3,1.6,0.4
		c10.8,2.1,20.6-0.3,29.9-6.6C335,655.4,333,653.2,330.9,650.9z M295.4,222.4c11.2-11.2,23.4-12.3,36.5-4.1c2.2-2.3,4.2-4.5,6.1-6.6
		c-0.4-0.5-0.6-0.7-0.8-0.9c-0.3-0.3-0.7-0.6-1.1-0.8c-12.1-7.2-24.5-8.4-37.4-2.3c-2.4,1.2-4.3,1.2-6.7,0c-3-1.4-6.3-2.5-9.6-3.2
		c-10.6-2.1-20.1,0.7-29,7c2.2,2.4,4.2,4.6,6.2,6.8C272.5,210,284.3,211.5,295.4,222.4z M222.4,615.3c-1.8-0.7-3.6-1.4-5.5-2
		c-3.1-1-6.3-1.9-9.5-2.7c-6.7-1.7-11.2-5.7-13.6-12.2c-1-2.8-2.4-5.4-3.9-8c-1.5-2.5-3.7-3.3-6.3-2.7c1.8,3,3.6,5.6,4.9,8.4
		c0.5,1,0.3,2.9-0.4,3.6c-0.6,0.6-2.4,0.3-3.6,0c-2.5-0.8-4.8-1.8-7.4-2.9c-0.8,1.8-1.6,3.2-2.1,4.6c-2.4,7.6-8,11.5-15.4,13.4
		c-2,0.5-4,1-6.1,1.4c-9.8,2.1-8.3,2.7-9,9.7c-0.1,1.1,0.7,3.2,0.9,3.2c1.6-0.2,3.6-0.3,4.6-1.3c0.8-0.8,0.7-2.8,0.7-4.2
		c0-1.1-0.7-2.2-1.1-3.4c0.7,0,1-0.1,1.3,0c9.5,3,17.9,0.4,25.9-4.8c4.4-2.9,9.3-3.4,14.3-2.4c4.2,0.9,8.3,2.2,12.3,3.5
		C209.8,618.5,216,618.5,222.4,615.3z M347.5,395.5c1.5-2,2.5-3.6,3.8-5c1.2-1.4,1.1-2.6,0.1-4.1c-6.4-9.5-11.7-19.6-15.4-30.5
		c-1-2.9-2.7-5.1-6.1-5c-3.6,0-5.2,2.3-6.3,5.3c-3.6,10.2-8,19.9-14.5,28.7c-0.5,0.7-0.7,2.2-0.3,2.9c1.1,2,2.7,3.8,4.3,6.1
		c2.5-4.1,4.6-7.7,6.8-11.2c4.9-7.8,14.9-7.7,19.7,0.1C342.3,386.9,344.8,391,347.5,395.5z M134.7,216.6c-1.6,8.1-4.4,15.9-2.3,24.3
		c2,8.1,4.9,15.7,10.3,22.4c0.5-4.2,1-8.4,0.4-12.4c-2.2-14.1-1.8-28.3-1.8-42.4c0-1.1-0.1-2.1-0.2-3.6c-1.4,0.5-2.5,0.7-3.4,1.2
		c-7.6,4.9-15.4,9.7-22.8,15c-3.6,2.6-4.2,6.8-2.4,10.3c1.5,2.9,4.7,4.5,8,3.9c3.9-0.6,6.6-3.5,7-8
		C128.1,222.6,130.9,219.4,134.7,216.6z M140.5,664.1c0.9-19.6,1.8-38.7,2.7-57.8c-0.4-0.2-0.8-0.4-1.1-0.6
		c-0.3,0.6-0.5,1.2-0.9,1.8c-8.3,12.2-12.2,25.2-7.4,39.8c0.6,1.7,0.8,3.5,1.1,5.3c-4.3-2.8-6.7-6.3-7.4-11.1
		c-0.6-4.3-3.4-7.1-7-7.6c-3.4-0.5-6.5,1.1-7.9,4.1c-1.7,3.4-1,7.8,2.3,10.5C122.6,654.7,131,660,140.5,664.1z M450,664.2
		c2.4-1.2,4.8-2.2,6.9-3.5c6.2-3.9,12.5-7.8,18.5-12c3.7-2.6,4.6-6.4,3.1-10.2c-1.3-3.1-4.5-5-7.9-4.7c-3.8,0.4-6.4,3-7.4,7.3
		c-0.2,0.9-0.3,1.7-0.5,2.6c-1.1,3.6-3.1,6.6-6.8,8.5c1.7-8.1,4.3-15.9,2.4-24.2c-1.8-8.1-4.5-15.6-10.8-21.7
		C448.2,625.4,449.1,644.5,450,664.2z M455.2,217.1c0.5-0.1,1-0.1,1.5-0.2c0.9,1,2.2,1.9,2.7,3.1c1.4,3.2,2.6,6.4,3.7,9.7
		c1.1,3.3,3.9,5.6,7.3,5.8c3.4,0.3,6-1.1,7.6-4.1c1.6-3.1,1.2-6.5-1.2-9.2c-0.9-1.1-2-2-3.2-2.8c-4.1-2.9-8.2-5.9-12.5-8.5
		c-3.6-2.2-7.5-4-11.2-5.9c-1,19.7-1.9,38.9-2.8,58c0.3,0.1,0.7,0.2,1,0.3c1.5-2.5,3.2-4.9,4.6-7.4
		C459.3,243.5,460.7,230.6,455.2,217.1z M147.6,251c0,0.4,0,0.7-0.1,1.1c2.1,0.4,4.2,0.7,6.2,1.2c7.6,1.6,15.1,3.2,19.5,10.8
		c0.3,0.6,2.3,0.7,3.3,0.4c2.7-0.8,4.8-0.7,6.6,1.9c2.4,3.6-0.3,5.4-2.2,7.6c-2.6,3-1.9,6.1,1.7,7.8c2.9,1.4,6.1,0.3,7.8-2.9
		c1.7-3.3,3.2-6.8,4.7-10.2c1.8-4.2,4.9-7,9.3-8.3c3.6-1.1,7.2-2.1,10.7-3.2c2.5-0.8,5-1.8,7.6-2.7c0-0.3-0.1-0.6-0.1-1
		c-5-2-10.2-2.6-15.6-1.4c-3.8,0.9-7.6,2.2-11.4,3.3c-7.1,2.1-13.7,1.7-20.3-2.2c-3.8-2.3-8.2-3.9-12.5-5
		C157.5,246.9,152.3,248.3,147.6,251z M415.7,602.5c-1.3,0.4-2.2,0.7-3.2,0.9c-2.5,0.5-4.6,0-6-2.3c-1.4-2.3-0.9-4.4,0.7-6.4
		c0.6-0.8,1.3-1.5,2.1-2.1c1.5-1.2,1.2-2.4,0-3.6c-2.6-2.6-7.3-2-9.3,1.5c-1.5,2.6-2.6,5.3-3.7,8.1c-2.5,6.3-7.1,10.1-13.6,11.8
		c-3.8,1-7.7,2-11.4,3.1c-1.3,0.4-2.5,1.1-4.5,2c5.4,2.2,10.1,3.1,14.8,2.1c4.9-1.1,9.7-2.7,14.6-4c6.6-1.9,12.7-1.3,18.7,2.3
		c3.5,2.1,7.5,3.8,11.4,5c5.8,1.8,11.3,0.5,17.6-2.8C432.5,615.1,420.6,615.1,415.7,602.5z M382.4,538.1
		c7.6,7.5,10.8,16.6,13.2,26.2c0.2,1,0.6,1.9,1.1,2.8c1.5,3.1,2.4,6.8,6.9,6.9c4.7,0,5.6-3.7,6.8-6.9c4.2-11.9,10.6-22.7,17.6-33.1
		c0.6-0.9,1.1-1.8,1.4-2.3c-2.4-1.6-4.5-2.9-6.8-4.5c-3.1,5-6.3,10-9.4,15.2c-2.4,4.1-5.9,6-10.6,5.9c-4.7-0.1-7.7-2.4-9.9-6.4
		C390.1,537.4,387.2,536.3,382.4,538.1z M442.4,251.9c-5.6-4.1-11.6-5.2-17.8-3c-3.7,1.3-7.3,3.1-10.7,5c-4.6,2.6-9.5,3.6-14.6,2.6
		c-3.9-0.8-7.6-2.2-11.5-2.9c-4.1-0.8-8.2-1.5-12.3-1.6c-2.6,0-5.3,1.1-7.9,1.7c0,0.4,0.1,0.7,0.1,1.1c1.4,0.5,2.8,1.1,4.2,1.5
		c3.9,1.1,7.8,2.3,11.7,3.3c5.9,1.5,9.9,4.9,12.1,10.6c1.2,3.1,2.5,6.1,4.1,9c1.4,2.6,3.8,3.6,6.5,3c-1.4-3.1-3.2-5.7-3.8-8.6
		c-0.8-3.6,0.9-4.7,4.3-3.3c1.9,0.8,3.8,1.7,5.9,2.6c0.7-1.6,1.5-3,2-4.4c2.4-8,8.3-11.8,15.8-13.9c2.3-0.7,4.7-1,7.1-1.5
		C439.2,252.8,440.8,252.3,442.4,251.9z M120.8,493.1c-7.4-2.9-10.5-7.8-10.9-14.1c-0.2-3.8,0.6-7.8,1.4-11.7
		c0.8-3.9,3.4-6.3,7.7-6.1c8.1,0.5,15.6-1.6,23-4.7c3.1-1.3,6.3-1.6,9.5,0.3c2.6,1.6,4.7,0.7,6.4-1.8c3-4.3,3.1-4.2-0.1-8.1
		c-0.3-0.3-0.6-0.7-0.9-1c-7.2-8.6-9.8-8.7-17,0.2c-5.6,7-12.1,11.9-21.3,12.9c-4.4,0.5-8.3,2.3-11.2,6.1
		c-7.8,10.1-6.9,26.9,2.9,37.7C113.7,499.8,116.9,496.7,120.8,493.1z M78.5,363.2c-5.1-8.3-6.7-17-5-26.2
		c2.2-11.7,8.7-18.9,18.8-20.1c3.9-0.5,8,0.4,12.5,0.7c0.9-1.8,2.1-4.1,3.3-6.7c-6.7-3.1-13.2-3.9-19.9-2
		c-11.6,3.3-19,11.2-22.6,22.5c-4.4,13.6-1.4,26.1,6.1,38.2C74.1,367.3,76.2,365.3,78.5,363.2z M475.5,479.8
		c1.5,1.3,2.9,2.5,4.2,3.8c1.4,1.4,2.5,1.1,3.9-0.2c11.9-11.3,13.1-30.9,2.6-44.1c-9.4-11.8-30.7-14.7-43.9-5.6
		c1.3,0.5,2.3,1.2,3.4,1.3c5.9,0.9,11.9,2.1,17.9,2.5c12.2,0.7,20.2,8.3,20.9,20.6C484.9,466.5,481.9,473.7,475.5,479.8z
		 M468.9,492.6c-1.1,4.5-2.8,8.6-2.7,12.6c0,2.1,3,4.2,4.7,6.3c1.1,1.3,2.4,2.5,3.5,3.9c3.7,4.5,5.6,9.8,5.2,15.5
		c-0.5,7.5-2.9,13.8-10.9,16.7c-4.9,1.7-6.8,7-4.6,11.3c1.9,3.9,7,5.6,11,3.2c1.6-1,3.1-2.6,4-4.2c2.5-4.6,4.9-9.4,6.8-14.2
		c3.7-9.6,2.7-18.8-3.2-27.2c-1.9-2.8-4.4-5.2-6.1-8.1c-1.2-2.2-2.3-4.9-2.2-7.3C474.6,495.8,474.9,495.8,468.9,492.6z M327.3,632.1
		c0.1,1.2,0.1,2.6,0.3,3.9c2.1,11.2,8.4,19.5,18.3,24.8c9.4,5,19.6,6.2,30.1,4.9c6.2-0.7,12.2-2.1,18-5.1c-1.6-1.6-3.2-2.9-4.3-4.5
		c-1.5-2-3-2.3-5.3-1.5c-7,2.4-14.2,3-21.5,2c-11.8-1.6-21.6-6.2-25.8-18.4c-2.3-6.6-2.2-6.6-9.3-6.6
		C327.8,631.7,327.7,631.9,327.3,632.1z M464.8,358.7c-0.1-0.2-0.1,0,0.1,0.2c7.2,7.5,5.5,6.9,11.7,0.5c16.4-16.9,11.8-34,0.8-50.8
		c-2-3.1-6.3-3.8-9.5-2.3c-3.2,1.4-5.2,5.1-4.6,8.7c0.7,3.9,3.5,5.8,7,7.2c1.6,0.6,3.3,1.7,4.4,3c4.9,6.2,5.4,14.7,0.7,21.5
		C472.4,350.8,468.5,354.4,464.8,358.7z M394.5,209c-1.4-0.7-2.3-1.2-3.3-1.5c-10.5-4.1-21.4-5.1-32.4-2.8
		c-15.8,3.2-26.5,12.2-30.5,28.3c-0.4,1.5-0.3,3.1-0.4,4.8c3.2-0.2,5.8-0.3,8.4-0.4c0.2-0.5,0.4-0.9,0.4-1.3
		c2.2-12,9.6-18.9,21-21.9c9.3-2.5,18.5-1.9,27.6,0.9c1,0.3,2.5,0.4,3.2-0.1C390.6,213.1,392.3,211.2,394.5,209z M196.1,208.8
		c2.2,2.3,3.5,3.4,4.6,4.8c1.4,1.9,2.9,2,5.1,1.2c7.2-2.6,14.6-3.1,22.1-2c13.5,1.9,23.8,7.7,26.6,22.4c0.1,0.7,1.1,1.7,1.8,1.8
		c2.2,0.4,4.5,0.4,7,0.5c-1-13.4-7.4-22.9-18.8-28.9c-10-5.2-20.8-6.2-31.8-4.4C207.3,205.1,202,207.1,196.1,208.8z M196,660.4
		c1.7,0.8,2.9,1.5,4.2,2c10.3,3.9,20.9,4.7,31.7,2.5c13.2-2.8,23.2-9.7,28.3-22.5c1.3-3.2,1.6-6.8,2.5-10.7
		c-2.1,0.2-3.2,0.6-4.2,0.4c-3.6-0.5-4.9,1.1-5.7,4.5c-2,9.5-8.5,15-17.4,18c-9.9,3.3-19.8,3.1-29.8,0.2c-1.1-0.3-2.8-0.6-3.6-0.1
		C199.9,656.3,198.2,658.3,196,660.4z M123.3,508.3c-4.2,1.5-7.8,2.8-11.4,4.2c-0.8,0.3-1.7,0.7-2.2,1.3c-5.1,6.8-8.4,14.2-7,23
		c1.3,8,4.7,15.3,8.8,22.2c2.3,3.9,6.1,5.3,9.9,4.2c3.2-0.9,5.4-3.9,5.5-7.4c0.1-3.8-2.5-7-6.6-8.5c-1.6-0.6-3.2-1.6-4.3-2.8
		c-6.5-7.3-6-17.8,1.2-24.5c2.9-2.7,6.4-4.9,9.8-7.5C125.7,510.9,124.3,509.4,123.3,508.3z M392.9,422.5c0.9-2.4,1.4-4.2,2.2-5.8
		c1.2-2.3,0.4-3.8-1.1-5.6c-9.7-11.7-22.2-15.6-36.8-13.2c-1.8,0.3-3.9,1.6-4.9,3.1c-3.9,5.7-7.4,11.7-11,17.6
		c-2.5,4.1-2,7.6,1.6,11.5c4.5-6.8,8.9-13.6,13.7-20.2c1.1-1.5,3.4-2.8,5.3-3.1c9.5-1.7,17.5,1.3,24.1,8.3
		C388.2,417.4,390.4,419.7,392.9,422.5z M127.7,360c-2.9-2.2-5.9-4.4-8.8-6.6c-11.9-8.8-10.4-26.2,2.8-32.1c3.4-1.5,5.4-4.6,5.1-8.1
		c-0.2-3.3-2.4-6.2-5.5-7.1c-3.4-1.1-7.5,0-9.2,3.4c-3.4,6.8-7.3,13.7-9.2,21C98.9,345.9,111.9,361.5,127.7,360z M197.1,421.3
		c2.6-2.9,4.8-5.7,7.3-8.1c6-5.9,13.2-8.7,21.7-7c1.9,0.4,4.2,1.6,5.3,3.1c3.9,5.2,7.3,10.7,10.9,16.1c1.1,1.7,2.3,3.3,3.9,5.5
		c0.8-2.2,1.2-3.8,2.1-5.1c1.6-2.6,1-4.8-0.6-7.2c-2.7-3.9-5.6-7.7-7.5-12c-3.1-6.8-8-9.2-15.2-9.6c-13.1-0.7-22.5,5.2-30.3,14.8
		c-0.5,0.6-0.9,1.9-0.6,2.6C194.9,416.7,196,418.8,197.1,421.3z M506.2,545.2c0.1,0.2,0.2,0.5,0.4,0.7c12.8,14.4,14.5,30.4,7.1,47.8
		c-0.3,0.7-0.6,1.6-0.4,2.1c1.4,2.5,3,4.9,4.6,7.5c13.9-15.9,10.9-50.6-4.9-64.6C510.8,540.8,508.6,542.9,506.2,545.2z M174.3,501.5
		c-0.9,1-1.6,1.9-2.3,2.6c-5,4.9-8.4,4.8-12.8-0.7c-0.3-0.3-0.5-0.7-0.8-1c-4.9-6-8.4-6.2-13.8-0.7c-6,6.1-8.4,6.1-14.4,0.2
		c-0.1-0.1-0.4-0.1-0.9-0.3c-1.3,1.4-2.6,2.9-4,4.4c0.6,0.7,0.8,1.2,1.2,1.6c0.7,0.8,1.5,1.6,2.3,2.3c6.2,5.6,13,7.9,21.1,4
		c0.9-0.4,2.5,0.1,3.5,0.6c3.9,2.1,8.1,3.2,12,1.2c3.4-1.8,6.2-4.7,9.2-7.3C176.7,506.4,176.7,504.1,174.3,501.5z M71.3,548.3
		c1.2-1.6,2.2-3.3,3.5-4.7c1.7-1.8,1.7-3.4,0.9-5.9c-5.6-15.6-3-29.7,8.4-42.1c0.6-0.7,1.2-1.4,1.6-1.8c-2.4-2.2-4.7-4.3-6.9-6.3
		C62.9,501.1,58.6,534.3,71.3,548.3z M72.9,603.4c3.9-3.8,5.1-7.2,2.8-12.9c-5.4-13.8-2.9-26.9,7.4-38.1c0.6-0.7,1.2-1.4,1.6-1.9
		c-2.5-2.3-4.9-4.4-7.2-6.5C62.3,556.5,59.5,591,72.9,603.4z M517.3,266c-4.7,4.2-5.2,6.2-2.9,11.6c5.7,13,2.7,28.4-7.4,38.3
		c-0.8,0.8-1.6,1.7-2.1,2.2c2.6,2.3,4.9,4.3,7.3,6.4C528.4,309.1,531.2,278.3,517.3,266z M101.1,508.7c0.1,0.3,0.1,0.6,0.2,0.9
		c5.9,1.6,11.7,1.3,17-1.8c6.9-4.1,11.8-10.1,15.5-17.1c1.4-2.7,1.5-5.6-0.5-8.1c-2.3-2.9-4.7-5.8-7.3-8.5c-2.4-2.5-6-2.7-8.8-1.1
		c-2.8,1.7-4,4.9-3.2,8.3c0.8,3.5,3.1,5.3,6.5,6.2c4,1.1,4.5,2.3,2.3,5.8c-4.1,6.6-9.8,11.2-17.1,13.7
		C104.1,507.6,102.6,508.1,101.1,508.7z M292.2,374.8c-4.2,4.6-8.4,9.1-12.4,13.7c-8.3,9.6-7.7,20.8,1.1,30.2
		c3.5,3.7,6.6,7.8,9.9,11.8c0.2,0.2,0.5,0.3,1.2,0.6c0.3-1.8,0.8-3.3,0.9-4.9c0.5-6-1.8-10.8-6.2-14.9c-5.5-5.2-5.2-11.9,0.2-17.1
		c0.9-0.8,1.8-1.6,2.7-2.5C293.3,387.9,294.6,378.6,292.2,374.8z M292.9,495.4c1.5-7.4,0.4-13.4-4.6-18.6
		c-8.2-8.5-7.1-15.4,3.3-21.2c0.6-0.3,1.3-0.5,1.7-1c1.4-2,3-4.1,3.8-6.3c0.7-2-0.2-3.5-2.8-2.5c-1.3,0.5-2.7,0.8-4.1,1.3
		c-17.2,5.4-21.5,23.8-8.6,36.3c3.3,3.2,6.2,6.8,9.3,10.2C291.4,494,291.9,494.5,292.9,495.4z M298,494.6
		c4.6-5.5,9.2-10.5,13.2-15.9c6.5-8.9,5.4-19.2-2.2-27.3c-3.3-3.6-6.3-7.5-9.5-11.3c-0.5-0.5-0.9-1.1-1.4-1.6
		c-0.3,0.1-0.6,0.2-0.8,0.3c0.5,6.5-0.8,13.2,4.9,18.6c5.8,5.5,5.8,11.3,0.6,17.5c-0.8,1-1.8,1.9-2.5,3
		C296.8,483,295.8,488.4,298,494.6z M72.1,491.8c1.7-2.2,3.3-3.9,4.5-6c0.6-1.1,0.6-2.8,0.3-4.1c-1-4.7-2.7-9.3-3.3-14
		c-1.1-8.6,1.1-16.7,5.6-24.2c-2.3-2.1-4.5-4.1-6.6-6.1C62.1,450.2,61.8,478.3,72.1,491.8z M298.8,375.6c-0.3,0.5-0.8,1.3-1.1,2.2
		c-1.9,6.3-1.5,11.9,3.7,16.8c6.2,5.9,5.9,11.6,0.4,17.8c-2.2,2.5-3.9,5.6-5.1,8.7c-1.1,3.1-1,6.5,0.6,9.2
		c4.2-4.2,8.2-8.2,12.2-12.2c5.8-5.8,7-13.3,2.9-20.5C308.1,390.2,303.4,383,298.8,375.6z M413.6,485c2.5-3.4,4.7-6.1,6.5-9.2
		c3-5.1,7.1-7.1,13-6.7c7.5,0.5,14.7-1.2,21.1-5.3c2.5-1.6,4.7-3.6,7.1-5.4c-0.2-0.3-0.3-0.6-0.5-0.9c-1.8,0.3-3.6,0.7-5.5,0.8
		c-10.1,0.8-20.1,1.4-30.2,2.3c-2,0.2-4.5,0.9-5.7,2.3c-3.1,3.4-5.6,7.3-8.2,11.1c-0.5,0.8-0.9,2.1-0.6,3
		C411.3,479.6,412.4,481.9,413.6,485z M72.7,266.1c-10.8,9.8-11.7,40.5-1.3,50.5c1.6-1.3,3-2.8,4.7-4c1.6-1.1,1.6-2.1,0.8-3.8
		c-4.8-10.1-5.3-20.5-1.1-31C77.9,272.8,77.3,270,72.7,266.1z M126.1,405.9c-0.1,0.4-0.3,0.9-0.4,1.3c7.5,3.5,12.4,9.6,17,16.1
		c0.8,1.1,1.7,2.1,2.6,2.9c3,2.6,6.9,2.6,9.3-0.5c4.2-5.3,8.7-10.4,15.3-13.3c-1.3-1.9-2.4-3.5-3.1-4.5c-2.8,0.7-4.9,1.4-7.1,1.9
		c-1.9,0.4-4.1,0.2-5.8,1c-4.1,1.9-7.9,1.1-11.7-0.6c-2.4-1-4.8-2.3-7.3-2.9C132,406.5,129,406.3,126.1,405.9z M512.4,497.5
		c0.1,0.5,0.1,0.8,0.3,1.1c6.1,11.5,6.3,23.2,1.4,35.2c-0.2,0.6-0.5,1.4-0.2,1.8c1.7,2.5,3.5,4.8,5.3,7.4c10.9-16,8.1-41.7-0.6-51.2
		C516.6,493.7,514.6,495.5,512.4,497.5z M518.3,320.5c-1.7,2.2-3.4,4.3-4.8,6.6c-0.4,0.7-0.4,2-0.1,2.7c5.1,10.7,4.3,21.1-1.2,31.3
		c-0.3,0.6-0.5,1.9-0.1,2.3c1.9,1.9,4,3.6,6,5.4C529.3,353.3,527.4,331.9,518.3,320.5z M427.1,416.6c2,2.4,4.1,4.7,6.1,7.2
		c4.1,5.3,9.3,5.6,13.8,0.6c2-2.2,3.8-4.6,5.7-6.8c3.7-4.4,8.4-6.9,14.2-7.2c0.6,0,1.1-0.2,2.4-0.4c-4.4-2.9-8.5-2.8-12.6-1.9
		c-4.1,0.9-8.1,2.7-12.2,3.8c-2,0.5-4.4,0.7-6.3,0.1C431.7,410,430.3,410.4,427.1,416.6z M432.4,471.4c-2.1,0.3-3.7,0.3-5.1,0.8
		c-3.5,1-4.1,3.5-1.8,6.2c1.8,2.1,3.4,4.3,5.1,6.5c3.7,4.8,7.1,5,11.7,1.2c3.5-2.9,7.1-5.5,10.5-8.4c1.3-1.1,2.2-2.7,3.3-4
		c-1.5-0.6-3-1.3-4.6-1.9c-0.6-0.2-1.3-0.1-2-0.1C443.6,471,437.7,475.1,432.4,471.4z M466.7,603c-0.2,2.6-0.5,4.6-0.4,6.7
		c0,0.9,0.8,2.3,1.6,2.5c11.4,3.3,22.9,5.2,34.6,1.3c1.5-0.5,2.9-1.3,4.6-2c-1.7-1.9-2.8-3.6-4.3-4.8c-0.9-0.7-2.4-1.1-3.4-0.9
		c-7.2,1.8-14.4,1.4-21.5-0.1C474.2,604.9,470.7,603.9,466.7,603z M84.3,258.1c0.8,0.9,1.5,1.6,2,2.4c2,2.8,4.3,3.4,7.8,2.8
		c4.7-0.8,9.6-0.8,14.4-0.3c5.1,0.4,10.1,1.8,15.4,2.7c0.4-2.7,0.8-5.4,1.2-8C112.1,253.3,92.7,251.7,84.3,258.1z M84.6,612
		c1.1,0.5,2.2,1,3.3,1.4c11.8,4,23.4,2.2,35-1.2c0.6-0.2,1.4-1.2,1.3-1.8c-0.1-2.5-0.5-4.9-0.8-7.6c-1.4,0.4-2.6,0.8-3.7,1.1
		c-8.1,2.4-16.3,3.8-24.7,2.4C89.8,605.5,87.4,606.7,84.6,612z M466.2,265.7c0.8-0.1,1.4-0.2,1.9-0.3c10.1-2.4,20.2-4.4,30.5-1.9
		c0.7,0.2,1.8-0.1,2.4-0.6c1.7-1.6,3.3-3.4,5-5.2c-8.6-6-29.1-4.8-40.7,0.6C465.6,260.6,465.9,263,466.2,265.7z M453.7,500.6
		c-5.4,3.7-9.1,1-12.8-1.7c-2.6-1.9-5.7-2.4-7.9-0.2c-2.5,2.5-4.7,5.6-5.8,8.9c-0.5,1.6,1.7,4.2,2.8,6.2c1.2,2.4,2.7,2.2,4.8,0.9
		c1.4-0.9,3.3-1.6,4.9-1.6C446.3,513,452.2,508.3,453.7,500.6z M387.1,326.4c0.2,0.2,0.3,0.4,0.5,0.6c1.4-0.6,2.7-1.3,4.1-1.9
		c9.7-4.3,18.7-3.9,27,3.3c2.8,2.4,5.7,4.8,8.6,7.1c1,0.8,2.3,1.4,3.1,1.8c-1.5-10.2-8.3-16.8-15.3-23.4c-6.8,7.9-14.5,7.5-20.8-0.8
		C391.8,317.8,389.5,322.1,387.1,326.4z M461.6,374.6c-1.6,2.4-3.5,4.9-4.9,7.7c-0.5,1.1-0.4,3,0.2,4c2.1,3.1,4.3,6.4,7.1,8.9
		c3.3,3.1,8.5,2.2,11.1-1.2c2.4-3.1,1.9-7.9-1.5-10.6C470,380.4,466,377.8,461.6,374.6z M366.7,521.4c-5.7,13.1-13.6,22.4-28.5,22.7
		c1,6,2,6.7,7.5,5.7c11-2,18.5-8.6,23.8-18.1c0.4-0.7,0.5-1.7,0.3-2.4C368.9,526.9,367.9,524.5,366.7,521.4z M222.9,521.1
		c-1.1,3-2.1,5.3-2.8,7.7c-0.2,0.8-0.1,2,0.3,2.8c5.1,10,12.9,16.4,24.2,18.3c5,0.8,6.1-0.1,6.6-5.8
		C236.3,543.7,228.7,534,222.9,521.1z M337.9,325c6.6,0.6,13.1,1.7,17.6,6.6c4.3,4.6,7.7,10,11.4,14.9c0.5-1.4,1.5-3.3,1.9-5.3
		c0.3-1.6,0.4-3.6-0.3-4.9c-5.1-9.1-12.6-15-23-16.9C340.1,318.5,339.4,318.9,337.9,325z M251.7,325.2c-1.2-6.2-2.1-6.9-7.9-5.8
		c-8.4,1.5-14.8,6.1-20.2,12.6c-4.3,5.1-4,9.9-1.2,14.6c3.7-4.9,7.2-10.3,11.5-15.1C238.5,326.3,245.1,325.4,251.7,325.2z
		 M159.6,335.6c5.2-3.2,10.3-6.1,15.2-9.5c7.3-5,15.1-5.3,23.3-3.4c0.7,0.1,1.3,0.2,2.4,0.5c-1.6-3.6-3-6.7-4.4-10
		c-9.9,8.1-12.1,8.1-20.8,0.7C168.9,320.2,162,326.1,159.6,335.6z M489.9,569.7c-0.3-0.5-0.6-1-0.9-1.4c-11.6,5.6-23.9,7.1-37.2,6.3
		c1.1,2.3,1.9,3.6,2.3,5c0.8,2.7,2.6,3.4,5.2,3.4c7.8,0,15.4-1.2,21.9-5.6C484.5,575.2,487.1,572.2,489.9,569.7z M138.3,293.7
		c-1.4-2.8-2.3-4.9-3.5-6.8c-0.4-0.7-1.6-1.2-2.4-1.3c-11.3-0.7-21.3,2.1-29.1,10.9c-1,1.1-1.8,2.5-2.7,3.7c0.2,0.3,0.4,0.6,0.6,0.9
		C112.6,295,124.9,293.3,138.3,293.7z M490,300.5c-1.2-1.7-1.7-2.6-2.4-3.4c-6.7-7.7-15.5-10.8-25.5-11c-5.9-0.2-7.8,1.6-8.9,7.7
		c6.1,0.5,12.3,0.5,18.3,1.6C477.4,296.5,483.2,298.6,490,300.5z M101.7,568.2c-0.2,0.3-0.4,0.6-0.7,1c1.1,1.4,2,2.8,3.2,4.1
		c7.7,8.4,17.9,10,28.5,10.3c0.6,0,1.4-0.4,1.6-0.8c1.2-2.1,2.2-4.4,3.5-7.1C124.8,575.6,112.9,573.4,101.7,568.2z M104.3,617.4
		c-4.7,0-8.4,3.8-8.4,8.7c0,4.3,3.9,8.3,8.1,8.4c4.9,0.1,9-3.8,9-8.6C113,621.2,109.2,617.4,104.3,617.4z M174.2,241.1
		c-8.3-3.5-19.9-4.1-27.6-1.3c-0.8,0.3-1.9,1.2-1.9,1.8c0.2,2.4,0.7,4.8,1.2,7.8c9.4-5.9,18.4-4,27.5-0.5
		C173.6,246,173.9,243.6,174.2,241.1z M104.5,252.1c4.8,0,8.6-3.7,8.5-8.5c0-4.7-3.8-8.4-8.7-8.5c-4.5-0.1-8.3,3.8-8.4,8.4
		C95.9,248.3,99.7,252.1,104.5,252.1z M486,617.3c-4.7,0.1-8.4,4-8.3,8.8c0.1,4.6,3.9,8.3,8.5,8.2c4.6-0.1,8.3-3.9,8.3-8.5
		C494.6,621,490.7,617.2,486,617.3z M439.4,338.6c4.8-0.1,8.7-3.9,8.6-8.6c-0.1-4.7-4.1-8.4-8.9-8.3c-4.6,0.1-8.2,3.8-8.1,8.6
		C430.9,334.9,434.8,338.6,439.4,338.6z M494.2,243.7c0.1-4.6-3.6-8.4-8.2-8.5c-4.9-0.1-8.7,3.5-8.7,8.3c0,4.9,3.6,8.5,8.5,8.5
		C490.6,252.1,494.2,248.5,494.2,243.7z M438.8,529.8c-4.7,0.1-8.2,3.8-8.2,8.5c0.1,4.8,3.9,8.6,8.7,8.5c4.6-0.1,8.2-3.8,8.2-8.5
		C447.5,533.5,443.6,529.7,438.8,529.8z M501.5,267c-4.8-0.1-8.6,3.5-8.6,8.1c0,4.7,3.6,8.5,8.2,8.6c5,0.1,8.6-3.2,8.7-7.9
		C510,270.9,506.3,267.1,501.5,267z M366.8,593.1c4.6,0,8.5-3.8,8.5-8.3c0-4.7-3.5-8.4-8.2-8.5c-4.9-0.1-8.7,3.6-8.7,8.4
		C358.4,589.3,362.2,593.1,366.8,593.1z M222.8,592.7c4.5,0,8.3-3.9,8.1-8.6c-0.1-4.6-3.9-8.2-8.5-8.2c-4.6,0-8.3,3.7-8.3,8.4
		C214,588.8,218,592.7,222.8,592.7z M150.6,546.8c4.7-0.1,8.5-3.8,8.5-8.3c0-4.8-3.8-8.5-8.7-8.4c-4.6,0.1-8.4,4-8.3,8.5
		C142.2,543.1,146.1,546.9,150.6,546.8z M192.7,246c0.1-4.7-3.8-8.6-8.5-8.7c-4.5,0-8.4,3.8-8.4,8.4c-0.1,4.6,3.6,8.3,8.3,8.4
		C188.7,254.1,192.6,250.5,192.7,246z M303.4,625.6c0-4.5-3.8-8.2-8.4-8.3c-4.7,0-8.4,3.6-8.4,8.2c-0.1,4.6,3.6,8.4,8.2,8.5
		C299.4,634.1,303.3,630.3,303.4,625.6z M267.3,513.7c-0.1-4.6-3.8-8.2-8.5-8.2c-4.5,0-8.3,3.8-8.3,8.5c0,4.6,3.8,8.4,8.4,8.4
		C263.6,522.3,267.4,518.5,267.3,513.7z M250.7,351.3c0,4.6,3.7,8.4,8.3,8.5c4.6,0.1,8.3-3.6,8.4-8.4c0-4.7-3.6-8.4-8.3-8.5
		C254.5,342.9,250.7,346.7,250.7,351.3z M246.8,611.7c4.7,0,8.7-3.9,8.7-8.5c0-4.6-3.7-8.3-8.4-8.4c-4.9-0.1-8.4,3.6-8.4,8.6
		C238.6,607.9,242.4,611.7,246.8,611.7z M97.9,275.5c0.1-4.6-3.8-8.3-8.7-8.4c-4.5-0.1-8,3.4-8.1,8.1c-0.1,4.9,3.3,8.5,8,8.6
		C94,283.8,97.9,280.2,97.9,275.5z M223.1,560.6c4.4,0,8.4-4,8.4-8.4c0-4.4-4-8.5-8.4-8.5c-4.7,0-8.6,4-8.5,8.7
		C214.7,556.9,218.4,560.6,223.1,560.6z M351.4,266.3c0-4.6-3.8-8.4-8.3-8.4c-4.6,0-8.5,4-8.5,8.7c0,4.4,3.7,8.1,8.2,8.2
		C347.6,274.9,351.4,271.2,351.4,266.3z M501.3,470.8c-4.9,0-8.5,3.7-8.4,8.6c0.1,4.8,3.6,8.2,8.5,8.1c4.7-0.1,8.3-3.7,8.2-8.4
		C509.5,474.3,506,470.8,501.3,470.8z M89.7,389.2c4.8,0.1,8.5-3.4,8.6-8c0.1-4.8-3.6-8.6-8.4-8.6c-4.5-0.1-8.3,3.4-8.4,7.9
		C81.4,385.3,85,389.2,89.7,389.2z M223.4,325.4c4.3,0.1,7.9-3.7,8-8.3c0.1-4.7-3.5-8.4-8.1-8.5c-4.8-0.1-8.6,3.7-8.7,8.4
		C214.6,321.6,218.5,325.4,223.4,325.4z M366.3,308.9c-4.7,0-8.2,3.7-8.2,8.5c0,4.6,3.9,8.4,8.4,8.3c4.7-0.1,8.4-3.8,8.4-8.3
		C374.9,312.5,371.2,308.9,366.3,308.9z M255.8,266.4c0-4.5-3.8-8.4-8.4-8.4c-4.7,0-8.5,3.8-8.5,8.7c0,4.5,3.6,8,8.3,8
		C251.8,274.7,255.7,270.9,255.8,266.4z M500.8,448.4c4.7,0.1,8.5-3.5,8.6-8.2c0.1-4.7-3.5-8.5-8.1-8.6c-4.8-0.1-8.4,3.3-8.5,8.2
		C492.7,444.7,496.1,448.3,500.8,448.4z M151.7,395.5c4.6,0,8.6-3.8,8.7-8.1c0.1-4.7-3.7-8.5-8.6-8.5c-4.6,0-8.4,3.7-8.4,8.3
		C143.3,391.8,147,395.5,151.7,395.5z M351,221.1c-4.4-0.1-8.2,3.5-8.4,8c-0.2,4.8,3.3,8.6,7.9,8.7c4.8,0.1,8.7-3.6,8.7-8.3
		C359.3,224.8,355.7,221.2,351,221.1z M158.8,330c0-4.8-3.8-8.4-8.7-8.3c-4.6,0.1-8.1,3.9-8.1,8.6c0,4.5,3.7,8.1,8.2,8.2
		C155.1,338.5,158.9,334.8,158.8,330z M374.9,552.4c-0.1-4.7-4.1-8.5-8.8-8.4c-4.5,0.1-8.2,4-8.1,8.7c0.1,4.6,4,8.3,8.6,8.2
		C371.1,560.8,375,556.9,374.9,552.4z M89.5,491.5c4.9-0.1,8.4-3.6,8.3-8.3c-0.1-4.8-3.6-8.4-8.3-8.4c-4.9,0-8.4,3.7-8.3,8.7
		C81.3,488.1,84.8,491.5,89.5,491.5z M248.3,228.8c-0.1-4.8-3.6-8.4-8.3-8.3c-4.6,0.1-8.2,3.9-8.3,8.5c0,4.7,4,8.4,8.8,8.3
		C245.1,237.2,248.4,233.6,248.3,228.8z M96.6,329.6c0-4.6-3.7-8.3-8.3-8.4c-4.7-0.1-8.5,3.8-8.4,8.6c0,4.6,3.5,8.1,8.1,8.2
		C92.7,338,96.6,334.3,96.6,329.6z M410.6,510.1c0-4.6-3.6-8.2-8.1-8.2c-4.7,0-8.6,3.9-8.6,8.6c0.1,4.6,3.6,8.2,8.2,8.2
		C406.8,518.7,410.6,514.9,410.6,510.1z M247.7,640.5c0-4.8-3.2-8.3-7.8-8.4c-4.8-0.1-8.7,3.6-8.8,8.3c-0.1,4.7,3.7,8.4,8.6,8.4
		C244.2,648.7,247.6,645.2,247.7,640.5z M223,408.8c-4.9,0-8.5,3.6-8.5,8.2c0,4.7,4,8.6,8.7,8.5c4.6-0.1,8.1-3.9,8-8.7
		C231.2,412.2,227.7,408.8,223,408.8z M338.2,387.9c0.1-4.3-3.6-8.1-8.2-8.2c-4.6-0.2-8.4,3.2-8.5,7.7c-0.2,4.8,3.6,9,8.1,9
		C334.4,396.4,338.2,392.7,338.2,387.9z M406.1,254.1c4.6-0.1,8.2-3.6,8.2-8.1c0-4.7-3.8-8.5-8.6-8.5c-4.6,0-8.2,3.8-8.1,8.5
		C397.6,250.7,401.3,254.2,406.1,254.1z M160.7,271.9c-0.1-4.7-3.8-8.2-8.5-8.1c-4.8,0.1-8.3,4-8.2,8.9c0.1,4.5,3.8,7.8,8.5,7.7
		C157.1,280.3,160.7,276.5,160.7,271.9z M502.4,525.8c-4.6,0.1-8.2,4-8,8.6c0.1,4.8,3.8,8.2,8.5,8.1c4.8-0.1,8.1-3.7,8-8.6
		C510.7,529.1,507.1,525.7,502.4,525.8z M413.3,309.1c0.1-4.9-3.5-8.6-8.4-8.6c-4.6,0-8.2,3.5-8.3,8c0,4.9,3.6,8.6,8.4,8.7
		C409.5,317.2,413.2,313.6,413.3,309.1z M510.1,329.2c0.1-4.6-3.7-8.2-8.4-8.3c-4.8,0-8.4,3.5-8.4,8.2c0,4.7,3.7,8.3,8.4,8.4
		C506.3,337.5,510,333.9,510.1,329.2z M258.8,588.6c4.7,0,8.5-3.8,8.5-8.6c0-4.3-3.9-8-8.4-8c-4.7,0-8.5,3.7-8.4,8.2
		C250.5,584.9,254.2,588.6,258.8,588.6z M182.8,217.9c-4.5-0.1-8.3,3.5-8.4,7.9c-0.1,4.7,3.8,8.7,8.4,8.7c4.6,0,8.5-3.8,8.5-8.3
		C191.3,221.7,187.5,218,182.8,217.9z M357.5,417.3c-0.1,4.7,3.6,8.6,8.1,8.7c4.5,0.1,8.7-4,8.7-8.5c0-4.6-3.5-8.1-8.2-8.1
		C361.2,409.2,357.5,412.7,357.5,417.3z M96.5,539.9c0.1-4.7-3.4-8.4-8.1-8.6c-4.8-0.2-8.5,3.2-8.6,8c-0.1,4.9,3.6,8.6,8.4,8.7
		C92.7,548,96.4,544.4,96.5,539.9z M502,602.1c4.6-0.1,8.1-3.6,8.1-8.1c0-4.9-3.7-8.4-8.6-8.3c-4.7,0.1-8.1,3.7-8.1,8.5
		C493.4,598.8,497.1,602.2,502,602.1z M339,289.2c-0.1-4.8-3.7-8.4-8.4-8.3c-4.7,0.1-8.3,3.7-8.3,8.4c0,4.5,3.9,8.2,8.6,8.1
		C335.3,297.4,339,293.6,339,289.2z M330.1,523.1c4.6-0.1,8.4-3.8,8.4-8.4c0-4.4-4-8.4-8.5-8.4c-4.6,0-8.3,3.8-8.2,8.4
		C321.8,519.5,325.5,523.2,330.1,523.1z M196.2,387.4c0-4.4-3.7-8-8.3-7.9c-4.6,0-8.3,3.8-8.3,8.4c0,4.5,4,8.5,8.3,8.4
		C192.6,396.2,196.2,392.3,196.2,387.4z M415.7,643.7c0.1-4.7-3.5-8.4-8.1-8.6c-4.6-0.1-8.4,3.5-8.5,8.2c-0.1,4.7,3.4,8.4,8.1,8.5
		C411.9,651.9,415.6,648.4,415.7,643.7z M191,643.5c0-4.9-3.4-8.4-8.2-8.4c-4.7,0-8.5,3.6-8.5,8.2c-0.1,4.6,3.6,8.4,8.3,8.4
		C187.2,651.8,191,648.1,191,643.5z M399,226.2c0,4.7,3.6,8.4,8.3,8.4c4.5,0,8.4-3.9,8.5-8.4c0.1-4.7-3.6-8.4-8.3-8.3
		C402.8,218,399.1,221.6,399,226.2z M375.4,285.5c0-4.5-3.9-8.4-8.4-8.5c-4.4,0-8.2,3.7-8.3,8.1c-0.1,4.9,3.6,8.6,8.5,8.5
		C371.8,293.5,375.4,290,375.4,285.5z M97.9,594.1c-0.1-4.7-4-8.5-8.7-8.5c-4.6,0.1-7.9,3.6-7.9,8.3c0,4.7,3.7,8.3,8.4,8.3
		C94.4,602.1,98,598.6,97.9,594.1z M121.5,409.2c-4.5-0.1-8.2,3.4-8.4,8c-0.2,4.6,3.5,8.6,8,8.7c4.6,0.1,8.4-3.5,8.5-8.2
		C129.7,413,126.2,409.3,121.5,409.2z M222.9,293.3c4.7-0.1,8.3-3.8,8.1-8.5c-0.1-4.6-3.9-8.1-8.7-8c-4.5,0.1-8,3.6-8,7.9
		C214.4,289.6,218.1,293.4,222.9,293.3z M294.8,550.7c4.5,0.1,8.5-3.7,8.6-8.2c0.1-4.4-3.9-8.3-8.5-8.3c-4.6,0-8.3,3.6-8.4,8
		C286.5,546.8,290.2,550.7,294.8,550.7z M294.8,335c4.6,0.1,8.4-3.6,8.4-8.3c0.1-4.6-3.7-8.4-8.3-8.5c-4.7,0-8.4,3.6-8.5,8.3
		C286.5,331.1,290.2,334.9,294.8,335z M151,472.1c-4.5,0-8.3,3.6-8.4,8c-0.1,4.9,3.6,8.7,8.3,8.7c4.5,0,8.4-3.9,8.4-8.3
		C159.4,475.8,155.6,472.1,151,472.1z M445.8,274c0.1-4.6-3.4-8.2-7.9-8.4c-5-0.2-8.7,3.3-8.8,8.2c-0.1,4.5,3.7,8.2,8.4,8.3
		C441.9,282.2,445.7,278.5,445.8,274z M193.7,308.5c0-4.7-3.6-8.4-8.2-8.4c-4.6,0-8.3,3.6-8.4,8.3c-0.1,4.7,3.5,8.4,8.2,8.4
		C190,316.8,193.6,313.2,193.7,308.5z M437.9,380c-4.7-0.1-8.4,3.6-8.5,8.3c0,4.7,3.6,8.2,8.4,8.2c4.5,0,8.2-3.6,8.3-8.1
		C446.3,383.8,442.6,380.1,437.9,380z M393.7,388.2c0,4.8,3.7,8.8,8.3,8.8c4.5,0.1,8.3-3.7,8.4-8.3c0-4.5-3.8-8.4-8.3-8.4
		C397.4,380.2,393.7,383.7,393.7,388.2z M267.5,289.5c0-5-3.6-8.6-8.5-8.6c-4.5,0-8.1,3.6-8.2,8.2c-0.1,4.6,3.7,8.4,8.3,8.4
		C263.7,297.5,267.5,293.9,267.5,289.5z M411.4,537.2c0-4.6-3.7-8.3-8.4-8.3c-4.5,0-8.3,3.7-8.4,8.4c-0.1,4.6,3.7,8.2,8.4,8.2
		C407.8,545.5,411.4,541.9,411.4,537.2z M286.5,292.1c0.1,4.7,3.9,8.5,8.4,8.3c4.5-0.2,8.1-4.1,8-8.8c-0.1-4.5-3.8-8.1-8.3-8.1
		C289.9,283.6,286.4,287.3,286.5,292.1z M414.4,624c0-4.7-3.6-8.5-8.2-8.6c-4.6-0.1-8.3,3.6-8.4,8.3c-0.1,4.5,3.5,8.2,8,8.4
		C410.5,632.2,414.3,628.6,414.4,624z M350.6,632.2c-4.5-0.2-8.4,3.4-8.6,8.1c-0.2,4.5,3.2,8.3,7.7,8.6c4.6,0.3,8.6-3.3,8.8-7.9
		C358.7,636.3,355.2,632.4,350.6,632.2z M303.4,244c-0.1-4.8-4-8.6-8.7-8.5c-4.4,0.1-8,4-7.9,8.5c0,4.7,3.8,8.3,8.5,8.2
		C299.9,252.1,303.4,248.5,303.4,244z M469.2,440.9c-4.9,0-8.5,3.5-8.4,8.2c0.1,4.5,3.7,8.2,8.1,8.3c4.7,0.1,8.5-3.6,8.6-8.2
		C477.6,444.5,474.1,440.9,469.2,440.9z M302.8,577.3c0-4.7-3.7-8.4-8.3-8.4c-4.7,0-8.1,3.6-8.1,8.5c0,4.5,3.6,8.2,8.1,8.2
		C299.1,585.8,302.8,582,302.8,577.3z M411.9,449.3c0.1-4.6-3.5-8.1-8.1-8.2c-4.6-0.1-8.6,3.7-8.6,8.2c0,4.7,3.7,8.4,8.3,8.5
		C408.1,457.7,411.9,454,411.9,449.3z M186.7,545.4c4.7,0,8.2-3.7,8.2-8.5c-0.1-4.5-3.7-8.1-8.2-8.1c-4.6,0-8.4,3.8-8.4,8.3
		C178.3,541.7,182.1,545.5,186.7,545.4z M129.6,390.6c0-4.5-3.8-8.3-8.5-8.2c-4.5,0-8.2,3.8-8.1,8.1c0,4.6,3.8,8.4,8.3,8.4
		C125.9,398.9,129.6,395.1,129.6,390.6z M184.1,632c4.8,0,8.6-3.5,8.6-8.1c0-4.5-3.8-8.3-8.4-8.4c-4.8-0.1-8.3,3.5-8.2,8.3
		C176,628.5,179.5,632,184.1,632z M223.5,457.8c4.4-0.1,8.2-3.9,8.2-8.2c0-4.6-3.8-8.4-8.3-8.4c-4.8,0.1-8.4,3.9-8.3,8.8
		C215.2,454.5,218.9,457.9,223.5,457.8z M366.1,458.4c4.5-0.1,8.2-4,8.1-8.6c-0.1-4.5-3.8-8-8.3-8c-4.7,0-8.3,3.7-8.3,8.4
		C357.6,454.6,361.6,458.4,366.1,458.4z M152.7,604.5c4.7-0.1,8.4-3.9,8.3-8.5c-0.1-4.3-4.1-8-8.5-8.1c-4.5,0-8.1,3.6-8.1,8.2
		C144.4,601,148,604.5,152.7,604.5z M267.4,451.2c0-4.5-3.7-8.2-8.2-8.2c-4.6,0-8.5,3.6-8.5,7.9c0,4.6,3.7,8.5,8.3,8.6
		C263.6,459.6,267.4,455.9,267.4,451.2z M500.1,389.3c4.9,0,8.4-3.4,8.5-8.1c0.1-4.5-3.7-8.3-8.3-8.4c-4.8-0.1-8.2,3.4-8.2,8.3
		C492.1,385.8,495.5,389.3,500.1,389.3z M302.6,402.6c0-4.7-3.7-8.2-8.4-8.2c-4.4,0-8.1,3.8-8.1,8.2c0,4.6,3.8,8.4,8.3,8.4
		C299,411,302.6,407.3,302.6,402.6z M98.4,425.3c-0.1-4.8-3.9-8.4-8.8-8.3c-4.6,0.1-8,3.8-7.9,8.4c0.1,4.7,3.8,8.3,8.6,8.1
		C94.9,433.3,98.5,429.7,98.4,425.3z M194.9,449.2c0-4.4-3.6-8-7.9-8c-4.6,0-8.6,3.7-8.6,8.2c0,4.6,3.7,8.3,8.4,8.3
		C191.3,457.7,194.9,454,194.9,449.2z M338,451.1c0-4.3-4-8-8.4-7.9c-4.5,0.1-8.1,3.8-8.1,8.2c0,4.6,3.6,8.3,8,8.3
		C334.2,459.7,338,455.8,338,451.1z M187.3,488.2c4.4,0,8-3.8,7.9-8.3c-0.1-4.6-3.6-8.2-8.1-8.2c-4.5-0.1-8.3,3.7-8.3,8.4
		C178.8,484.4,182.7,488.2,187.3,488.2z M330.6,572.2c-4.7,0-8.4,3.5-8.3,7.9c0,4.7,3.7,8.4,8.3,8.5c4.7,0,8.3-3.6,8.3-8.4
		C338.8,575.7,335.2,572.1,330.6,572.2z M446.3,596.3c0-4.6-3.7-8.1-8.5-8.1c-4.5,0-7.9,3.4-8,7.9c-0.1,4.7,3.6,8.4,8.2,8.5
		C442.7,604.6,446.3,601.1,446.3,596.3z M294.1,475.1c4.7,0.1,8.5-3.6,8.5-8.2c0.1-4.5-3.5-8.1-8.1-8.2c-4.7-0.1-8.4,3.4-8.5,8.1
		C286,471.3,289.7,475,294.1,475.1z M508.9,311.7c-7.3-4.3-13.9-5-20.9-3.4c-6.6,1.5-6.6,1.6-3.6,7.5c0.3,0.7,0.7,1.3,1.2,2.1
		c5.1-1.5,10.1-2.2,15.3-0.6c0.7,0.2,1.7-0.2,2.4-0.7C504.9,315.3,506.6,313.7,508.9,311.7z M81.8,557.2c6,3.3,11.8,4.1,17.8,3.4
		c8.1-0.9,8.9-2.8,4.8-9.7c-0.1-0.2-0.3-0.3-0.5-0.4c-4.8,0.6-9.5,0.6-14.3,0.7c-0.9,0-2,0.2-2.6,0.7
		C85.2,553.4,83.7,555.1,81.8,557.2z M484,554c8.7,2.8,16.7,2.4,25.2-1.7c-1.8-2.1-3.2-3.9-4.9-5.4c-0.7-0.6-2-0.9-3-0.9
		c-4,0-8,0.2-12,0.4c-0.8,0-2,0.4-2.3,1C485.9,549.3,485.1,551.5,484,554z M82.1,501.3c8.5,4,16.2,4.7,24.6,1.6
		c-0.9-2-1.6-3.5-2.2-5c-0.8-2.2-2-2.8-4.5-2.4c-3.1,0.4-6.3-0.2-9.4-0.3c-1.1,0-2.6-0.1-3.3,0.5C85.5,497.2,84.1,499.1,82.1,501.3z
		 M421.8,247.5c8.2-3.3,15.4-2,22.6,1.6c0.5-2.6,1.1-4.5,1.2-6.4c0-0.9-0.8-2.5-1.6-2.8c-5.9-2-12-2.7-18.1-1.2
		c-1,0.3-2.2,1.4-2.7,2.4C422.6,242.8,422.4,244.7,421.8,247.5z M421.3,405.3c-1.9,3.1-3.9,6.2-5.8,9.3c-2.9,4.6-2.5,7.8,1.4,12.5
		c3.6-5.5,7.2-11,10.5-16.1C425.2,409,423.3,407.3,421.3,405.3z M444.7,457c-3.5-5.5-6.5-10.3-9.7-15c-0.6-0.8-2-1.8-2.8-1.6
		c-0.8,0.2-1.7,1.6-1.9,2.7c-1.2,5.3,1.3,9.6,4.1,13.8c0.3,0.4,1.1,0.7,1.7,0.7C438.7,457.4,441.3,457.2,444.7,457z M166,577
		c3.7-3.5,6.9-6.4,10-9.4c0.5-0.5,0.9-1.7,0.7-2.3c-0.9-2.5-2.1-4.8-3.2-7.2c-3.7,3.5-7,6.5-10.2,9.6c-0.5,0.5-0.9,1.8-0.6,2.5
		C163.5,572.2,164.6,574.1,166,577z M123.8,455.3c7-1,8.7-3,7.6-8.9c-1.2-6.3-2.5-7.1-9.7-5.5C122.4,445.6,123.1,450.3,123.8,455.3z
		 M354.4,354.6c-2.8,0.5-5.2,0.8-7.5,1.3c-7.8,1.7-8,2.2-4.7,9.2c0.1,0.2,0.3,0.3,0.5,0.3c4.1-1,8.2-2,12.6-3
		C354.9,359.9,354.7,357.6,354.4,354.6z M470.1,425.8c-1-3.3-2.2-6.7-3.1-10.3c-0.6-2.6-1.9-3.2-4.2-2.1c-1.1,0.5-2.4,0.7-3.3,1.4
		c-0.6,0.4-1.1,1.6-1,2.3c1.6,8.3,2.5,9,10.8,9.3C469.4,426.4,469.5,426.3,470.1,425.8z M211.1,510.3c0.4-3.4,0.7-6,1-8.6
		c-4-0.3-7.7-0.6-11.6-1c-0.7,1.6-1.4,3.3-2.1,5c-0.8,1.7-0.3,2.8,1.6,3C203.5,509.3,207.1,509.7,211.1,510.3z M160.6,363.9
		c4.8,0.3,9.4,0.6,13.9,0.8c0.5,0,1.3-0.5,1.5-0.9c0.8-1.7,1.4-3.5,2.3-5.8c-4.6,0-8.6-0.1-12.6,0
		C160.8,358.2,160.5,358.6,160.6,363.9z M391.8,360.5c-4.3-0.7-8-1.4-11.8-1.9c-0.6-0.1-1.8,0.9-1.9,1.5c-0.4,2.1-0.5,4.3-0.7,6.5
		c4,0.5,7.6,1,11.4,1.5C389.7,365.8,390.6,363.6,391.8,360.5z M172.5,431.3c1.2-2.8,2.2-4.8,3-6.9c0.8-1.8-2.4-8.8-4.3-9.4
		c-0.4-0.1-1.1,0-1.5,0.2c-1.4,0.7-2.9,1.3-3.9,2.3c-0.6,0.6-1,2.2-0.6,2.8C167.3,423.8,169.7,427.1,172.5,431.3z M197.8,359.3
		c0.9,2.7,1.5,4.7,2.4,6.6c0.3,0.6,1.3,1.2,2,1.2c3.1,0.1,6.3,0.1,9.7,0.1c-0.2-2.7-0.3-4.9-0.7-7.2c-0.1-0.5-1-1.3-1.5-1.3
		C205.9,358.8,202.1,359,197.8,359.3z M235.5,319c3.4-0.7,6.7-1.2,9.8-2.1c0.9-0.3,2.1-2.1,1.8-2.8c-1.3-3.7-2.9-7.4-4.7-11.6
		C239.9,308.5,237.8,313.6,235.5,319z M241.8,565.6c0.3,0.1,0.6,0.2,0.9,0.3c1.4-3.3,3-6.5,4.1-9.9c0.3-1-0.8-3.2-1.7-3.6
		c-3-1.1-6.3-1.7-9.7-2.5C237.6,555.4,239.7,560.5,241.8,565.6z M354.1,550.2c-4.3,1-8.2,1.9-12.7,3c2,4.5,3.8,8.7,5.9,13.5
		C349.8,560.7,351.9,555.6,354.1,550.2z M341.4,316.5c4.7,0.9,8.7,1.7,12.7,2.5c-2.2-5.2-4.3-10.3-6.8-16.1
		C345.2,307.6,343.4,311.9,341.4,316.5z M457,399.5c4-4.3,3.7-6-2.3-10.6c-2.1,2.5-4.3,5.1-6.4,7.6
		C451.4,397.6,454.2,398.5,457,399.5z M129.6,467.9c-0.4,2.1-1.6,4.3-1,5.5c1.1,2.1,3.3,3.6,5.2,5.6c1.7-2.6,3.2-5.1,4.9-7.8
		c-1.7-0.5-3-0.9-4.3-1.3C133.1,469.3,131.9,468.8,129.6,467.9z M132.1,387.6c-0.5,2.3-0.8,4.1-1.2,5.9c-0.4,2.1,1.7,4.9,3.5,4.5
		c2.5-0.6,4.9-1.5,7.8-2.4C138.7,392.8,135.5,390.3,132.1,387.6z M456.3,329.8c-2.2,2.6-4,4.9-5.9,7.2c4.6-0.3,9,1.9,13.9-0.7
		C461.4,333.9,459,332.1,456.3,329.8z M456.6,538.8c2.1-1.5,3.9-2.8,5.5-4.2c0.6-0.5,1.4-1.6,1.2-2c-0.4-0.7-1.4-1.6-2.2-1.6
		c-3.3,0-6.6,0.3-10.6,0.5C452.9,534.3,454.6,536.4,456.6,538.8z M132.9,538.9c1.7-2.6,3.2-4.7,4.8-7.3c-3.5-0.3-6.3-0.5-9.1-0.6
		c-0.7,0-1.8,0.5-2.1,1.1c-0.2,0.5,0.2,1.7,0.8,2.2C129,535.8,130.8,537.2,132.9,538.9z M444.7,619.5c-2,1.3-3.8,1.8-4.6,3.1
		c-0.7,1.2-1,3.8-0.3,4.5c1.1,1.1,3.3,1.3,5.1,1.4c0.3,0,1.2-2.1,1.1-3.2C445.9,623.6,445.2,621.8,444.7,619.5z M126,336.1
		c0.1,0.4,0.2,0.8,0.3,1.1c3.7,0,7.4,0,11.8,0c-2.1-2.6-3.7-4.5-5.4-6.6C130.3,332.6,128.1,334.4,126,336.1z M460.2,471.2
		c-3.7-6.9-5.2-7.1-9.6-1.7C453.6,470.1,456.5,470.6,460.2,471.2z"/>
</g>
</svg>
